<svg width="35" height="26" viewBox="0 0 35 26" fill="none" xmlns="http://www.w3.org/2000/svg">
<g id="business-team-icon 1" clip-path="url(#clip0_703_598)">
<g id="Group">
<path id="Vector" fill-rule="evenodd" clip-rule="evenodd" d="M26.1902 23.2609L26.757 20.5899L26.3668 20.062C26.1902 19.7453 26.1532 19.4673 26.25 19.228C26.4608 18.7107 26.8994 18.8057 27.3096 18.8057C27.7397 18.8057 28.2695 18.7036 28.4033 19.3688C28.4489 19.5905 28.3919 19.8227 28.2666 20.062L27.8764 20.5899L28.2153 22.1946L30.4626 19.7805L31.6276 19.8157C31.226 18.8198 30.7161 17.9752 30.1237 17.1799C31.2402 17.7148 32.3824 18.2426 33.2284 18.8972C33.7667 19.3125 34.043 19.6292 34.2623 20.1324C34.7237 21.2058 34.775 22.1665 34.8433 23.3278L35.0057 24.3343H28.6711L28.6768 24.3589H26.2528C26.1987 25.0451 25.8797 25.4428 25.2559 25.4991H17.5684H9.75261C9.12598 25.4393 8.80697 25.0416 8.7557 24.3484L8.97217 20.1113C9.03198 19.133 9.25415 18.3588 9.61589 17.7676C9.85514 17.3769 10.1514 17.0884 10.4789 16.8631C11.5186 16.1488 13.9453 15.9376 14.8881 14.8889L16.3322 20.1359L17.0585 17.0215L16.7025 16.5394C16.543 16.2508 16.5059 15.9974 16.5971 15.7792C16.7908 15.3077 17.1895 15.3957 17.5627 15.3957C17.9529 15.3957 18.4342 15.3042 18.5567 15.9095C18.5966 16.11 18.5453 16.3212 18.4314 16.5394L18.0754 17.0215L18.8017 20.1359L20.1091 14.8889C21.0518 15.9376 23.4814 16.1488 24.5182 16.8631C24.8458 17.0884 25.1449 17.3769 25.3813 17.7676C25.743 18.3588 25.9652 19.1295 26.025 20.1113L26.1902 23.2609ZM4.35506 17.479L5.32349 20.9946L5.81055 18.9078L5.57129 18.584C5.46305 18.3904 5.44027 18.2215 5.50008 18.0737C5.62826 17.757 5.896 17.8168 6.14665 17.8168C6.40869 17.8168 6.73055 17.757 6.81315 18.1617C6.84163 18.2954 6.80461 18.4397 6.73055 18.584L6.49129 18.9078L6.97835 20.9946L7.85563 17.479C7.98381 17.6198 8.1604 17.7394 8.36833 17.8415C8.29712 18.028 8.23161 18.225 8.17464 18.4292C8.02653 18.9605 7.92969 19.5518 7.88981 20.2098H7.89266C7.89266 20.2239 7.88981 20.2415 7.88981 20.2556L7.67904 24.3308H6.15519H0.669352C0.247803 24.2921 0.0341797 24.0246 0 23.5601L0.145264 20.977C0.18514 20.3225 0.3361 19.8051 0.578206 19.4075C0.737712 19.1471 0.937093 18.9535 1.15641 18.8022C1.8514 18.3236 3.72274 18.1828 4.35506 17.479ZM3.87939 12.4959C3.7854 12.5064 3.71419 12.5311 3.66292 12.5733C3.63444 12.5979 3.61165 12.6296 3.59741 12.6648C3.58032 12.707 3.57463 12.7633 3.57463 12.8232C3.58032 13.0167 3.66292 13.2771 3.82528 13.5763L3.82813 13.5833L4.3693 14.6461C4.58577 15.0684 4.81079 15.5012 5.08993 15.818C5.35482 16.1171 5.67668 16.3212 6.10392 16.3212C6.56535 16.3212 6.90145 16.11 7.17774 15.7933C7.46541 15.459 7.69328 15.0015 7.91829 14.544L8.52498 13.3088C8.64746 12.9639 8.68449 12.7563 8.64461 12.6578C8.61898 12.5979 8.51929 12.5803 8.35409 12.5979C8.2487 12.6261 8.13761 12.6015 8.02083 12.5276L8.3256 11.4014C7.21191 11.3838 6.45142 11.1445 5.5485 10.4337C5.25228 10.2014 5.16398 9.93394 4.86776 9.95858C4.64274 10.0114 4.45475 10.1345 4.30664 10.3351C4.16423 10.5252 4.05599 10.7856 3.98478 11.1199L4.16423 12.4677C4.07308 12.5381 3.97624 12.5451 3.87939 12.4959ZM8.70158 12.1616C8.8326 12.2108 8.92944 12.3023 8.98641 12.4466C9.07756 12.6754 9.04338 13.0167 8.86963 13.5024C8.86678 13.5129 8.86393 13.52 8.85824 13.5305L8.243 14.7833C8.00374 15.269 7.76164 15.7546 7.43693 16.1312C7.09798 16.5253 6.67928 16.7857 6.10677 16.7822C5.57129 16.7822 5.16968 16.5288 4.83927 16.1558C4.52311 15.7968 4.28101 15.3393 4.05314 14.8889L3.51196 13.8261C3.30973 13.4531 3.20719 13.1152 3.19865 12.8337C3.1958 12.6965 3.21289 12.5733 3.25562 12.4677C3.29834 12.3516 3.36385 12.2566 3.455 12.1827C3.49772 12.1475 3.54899 12.1158 3.60311 12.0912C3.56893 11.5211 3.55754 10.8172 3.58032 10.226C3.59172 10.0817 3.6145 9.93746 3.64583 9.79318C3.7854 9.18437 4.13005 8.69169 4.56014 8.35385C4.7111 8.2342 4.8763 8.13566 5.0529 8.05824C6.09253 7.59371 7.46826 7.84709 8.20597 8.83245C8.50505 9.23363 8.69588 9.76503 8.73576 10.4689L8.70158 12.1616ZM14.1418 7.45647C14.0222 7.47406 13.9282 7.51277 13.8599 7.56908C13.8171 7.60427 13.783 7.65354 13.763 7.70633C13.7402 7.76967 13.7288 7.85061 13.7288 7.94211C13.7345 8.2342 13.8599 8.61778 14.1048 9.0612L14.1105 9.06823L14.9166 10.6554C15.2384 11.2888 15.5745 11.9328 15.9904 12.4009C16.3863 12.8478 16.8677 13.1504 17.5 13.154C18.1893 13.1575 18.6906 12.8408 19.1007 12.3692C19.5308 11.873 19.8726 11.1868 20.2087 10.504L21.1145 8.66001C21.2968 8.14622 21.3538 7.83653 21.2939 7.68873C21.2569 7.59371 21.0974 7.5726 20.8297 7.60427C20.8097 7.60779 20.7898 7.60779 20.7699 7.60427C20.6588 7.60427 20.5391 7.56908 20.4081 7.49518L20.8154 5.81303C19.152 5.78839 18.0155 5.42944 16.6711 4.36666C16.2297 4.01826 16.0958 3.6206 15.6543 3.65931C15.321 3.74025 15.0391 3.92325 14.8169 4.21885C14.6033 4.50391 14.4409 4.89101 14.3355 5.38721L14.6232 7.42128C14.4523 7.53037 14.2928 7.53741 14.1418 7.45647ZM21.3765 6.95323C21.5731 7.02361 21.7155 7.16438 21.8038 7.37905C21.9405 7.72392 21.8892 8.23068 21.63 8.95562C21.6244 8.9697 21.6187 8.98378 21.613 8.99433L20.693 10.8665C20.3369 11.5915 19.9752 12.3199 19.4881 12.8795C18.9811 13.4672 18.3573 13.8578 17.5028 13.8543C16.7053 13.8508 16.1043 13.4742 15.6116 12.9182C15.1388 12.3833 14.7799 11.7006 14.4381 11.0284L13.632 9.44126C13.3329 8.88876 13.1763 8.37848 13.1649 7.9597C13.1592 7.75559 13.1877 7.5726 13.2503 7.41072C13.3158 7.23828 13.4127 7.094 13.5466 6.9849C13.6121 6.9286 13.6861 6.88285 13.7687 6.84766C13.7203 5.99954 13.7032 4.95084 13.7345 4.06753C13.7516 3.85286 13.7858 3.6382 13.8342 3.42353C14.0393 2.51207 14.5577 1.78009 15.1986 1.27685C15.4236 1.10089 15.6714 0.953089 15.9334 0.836957C17.4829 0.143686 19.5394 0.523754 20.6388 1.99476C21.086 2.59301 21.368 3.38834 21.4278 4.43704L21.3765 6.95323ZM24.1764 15.6174L24.8885 15.5927L25.4781 15.5751C24.7888 12.9534 25.0195 10.5428 26.6801 8.49461C26.9621 9.62074 27.5916 10.5463 28.6654 11.2325C29.1781 11.7041 29.6765 12.2742 30.155 12.9252C30.2405 12.4924 29.9158 11.9645 29.5199 11.4225C29.8844 11.6442 30.2205 11.9575 30.457 12.5557C30.7332 13.2525 30.7275 13.8367 30.6392 14.5933C30.5965 14.9452 30.5282 15.2725 30.4285 15.5716H31.4111C32.4479 12.8302 31.79 8.76559 29.6708 7.04121C29.0214 6.51334 28.5543 6.53093 27.7909 6.53445C26.9165 6.53445 26.4722 6.56964 25.7231 7.17845C24.6208 8.07935 23.9429 9.63834 23.658 11.8026C23.6039 12.883 23.5669 14.7481 24.1764 15.6174Z" fill="#324134"/>
</g>
</g>
<defs>
<clipPath id="clip0_703_598">
<rect width="35" height="25" fill="white" transform="translate(0 0.5)"/>
</clipPath>
</defs>
</svg>
