<svg width="52" height="35" viewBox="0 0 52 35" fill="none" xmlns="http://www.w3.org/2000/svg">
<g id="Group 2332">
<rect id="Rectangle 17" x="0.5" y="0.5" width="51" height="34" rx="17" stroke="#FF3D00"/>
<path id="shape" d="M28.625 15.8824C28.625 15.8824 29.1562 16.9412 29.1562 19.0588C29.1562 21.1765 28.625 22.2353 28.625 22.2353M24.375 15.8824C24.375 15.8824 23.8438 16.9412 23.8438 19.0588C23.8438 21.1765 24.375 22.2353 24.375 22.2353M20.125 12.1765C20.125 18.3798 18.6705 27 26.5 27C34.3295 27 32.875 18.3798 32.875 12.1765M18 12.1765H35M29.6875 12.1765V11.1176C29.6875 9.23819 27.9479 9 26.5 9C25.0521 9 23.3125 9.23819 23.3125 11.1176V12.1765" stroke="#FF0000" stroke-width="1.5" stroke-linecap="round" stroke-linejoin="round"/>
</g>
</svg>
