<svg width="25" height="26" viewBox="0 0 25 26" fill="none" xmlns="http://www.w3.org/2000/svg">
<path id="shape" d="M15.5007 10.1765C15.5007 10.1765 16.209 11.5882 16.209 14.4118C16.209 17.2353 15.5007 18.6471 15.5007 18.6471M9.83398 10.1765C9.83398 10.1765 9.12565 11.5882 9.12565 14.4118C9.12565 17.2353 9.83398 18.6471 9.83398 18.6471M4.16731 5.23529C4.16731 13.5064 2.22799 25 12.6673 25C23.1066 25 21.1673 13.5064 21.1673 5.23529M1.33398 5.23529H24.0006M16.9173 5.23529V3.82353C16.9173 1.31759 14.5978 1 12.6673 1C10.7368 1 8.41732 1.31759 8.41732 3.82353V5.23529" stroke="#FF0000" stroke-width="1.5" stroke-linecap="round" stroke-linejoin="round"/>
</svg>
