<svg width="233" height="207" viewBox="0 0 233 207" fill="none" xmlns="http://www.w3.org/2000/svg">
<path d="M232.205 4.44056V151.043C232.205 153.496 230.217 155.484 227.764 155.484H5.21594C2.76303 155.484 0.775391 153.496 0.775391 151.043V4.44056C0.775391 1.98765 2.76303 0 5.21594 0H227.764C230.217 0 232.205 1.98765 232.205 4.44056Z" fill="#F6C90E"/>
<path d="M226.066 10.7231V144.761C226.066 147.253 224.049 149.271 221.556 149.271H11.4174C10.8656 149.271 10.3422 149.173 9.85318 148.984C8.13576 148.356 6.91406 146.702 6.91406 144.761V10.7231C6.91406 8.23117 8.93119 6.21307 11.4165 6.21307H221.555C222.156 6.21307 222.735 6.33201 223.259 6.548C224.907 7.21879 226.066 8.83821 226.066 10.7231Z" fill="white"/>
<path opacity="0.6" d="M54.5702 55.3408H17.786C16.8621 55.3408 16.1133 54.592 16.1133 53.6681C16.1133 52.7442 16.8621 51.9954 17.786 51.9954H54.5702C55.494 51.9954 56.2429 52.7442 56.2429 53.6681C56.2429 54.592 55.494 55.3408 54.5702 55.3408Z" fill="#D4C7E8"/>
<path opacity="0.6" d="M54.5702 66.3893H17.786C16.8621 66.3893 16.1133 65.6405 16.1133 64.7166C16.1133 63.7928 16.8621 63.0439 17.786 63.0439H54.5702C55.494 63.0439 56.2429 63.7928 56.2429 64.7166C56.2429 65.6405 55.494 66.3893 54.5702 66.3893Z" fill="#D4C7E8"/>
<path opacity="0.6" d="M54.5702 77.438H17.786C16.8621 77.438 16.1133 76.6892 16.1133 75.7653C16.1133 74.8414 16.8621 74.0926 17.786 74.0926H54.5702C55.494 74.0926 56.2429 74.8414 56.2429 75.7653C56.2429 76.6892 55.494 77.438 54.5702 77.438Z" fill="#D4C7E8"/>
<path opacity="0.6" d="M54.5702 88.4865H17.786C16.8621 88.4865 16.1133 87.7377 16.1133 86.8138C16.1133 85.8899 16.8621 85.1411 17.786 85.1411H54.5702C55.494 85.1411 56.2429 85.8899 56.2429 86.8138C56.2429 87.7377 55.494 88.4865 54.5702 88.4865Z" fill="#D4C7E8"/>
<path opacity="0.6" d="M54.5702 99.5351H17.786C16.8621 99.5351 16.1133 98.7863 16.1133 97.8624C16.1133 96.9385 16.8621 96.1897 17.786 96.1897H54.5702C55.494 96.1897 56.2429 96.9385 56.2429 97.8624C56.2429 98.7863 55.494 99.5351 54.5702 99.5351Z" fill="#D4C7E8"/>
<path opacity="0.6" d="M54.5702 110.584H17.786C16.8621 110.584 16.1133 109.835 16.1133 108.911C16.1133 107.987 16.8621 107.238 17.786 107.238H54.5702C55.494 107.238 56.2429 107.987 56.2429 108.911C56.2429 109.835 55.494 110.584 54.5702 110.584Z" fill="#D4C7E8"/>
<path opacity="0.6" d="M215.332 55.3408H178.548C177.624 55.3408 176.875 54.592 176.875 53.6681C176.875 52.7442 177.624 51.9954 178.548 51.9954H215.332C216.256 51.9954 217.005 52.7442 217.005 53.6681C217.006 54.592 216.257 55.3408 215.332 55.3408Z" fill="#D4C7E8"/>
<path opacity="0.6" d="M215.332 66.3893H178.548C177.624 66.3893 176.875 65.6405 176.875 64.7166C176.875 63.7928 177.624 63.0439 178.548 63.0439H215.332C216.256 63.0439 217.005 63.7928 217.005 64.7166C217.006 65.6405 216.257 66.3893 215.332 66.3893Z" fill="#D4C7E8"/>
<path opacity="0.6" d="M215.332 77.4379H178.548C177.624 77.4379 176.875 76.6891 176.875 75.7652C176.875 74.8413 177.624 74.0925 178.548 74.0925H215.332C216.256 74.0925 217.005 74.8413 217.005 75.7652C217.006 76.6891 216.257 77.4379 215.332 77.4379Z" fill="#D4C7E8"/>
<path opacity="0.6" d="M215.332 88.4864H178.548C177.624 88.4864 176.875 87.7376 176.875 86.8137C176.875 85.8899 177.624 85.1411 178.548 85.1411H215.332C216.256 85.1411 217.005 85.8899 217.005 86.8137C217.006 87.7376 216.257 88.4864 215.332 88.4864Z" fill="#D4C7E8"/>
<path opacity="0.6" d="M215.332 99.5351H178.548C177.624 99.5351 176.875 98.7863 176.875 97.8624C176.875 96.9385 177.624 96.1897 178.548 96.1897H215.332C216.256 96.1897 217.005 96.9385 217.005 97.8624C217.006 98.7863 216.257 99.5351 215.332 99.5351Z" fill="#D4C7E8"/>
<path opacity="0.6" d="M215.332 110.584H178.548C177.624 110.584 176.875 109.835 176.875 108.911C176.875 107.987 177.624 107.238 178.548 107.238H215.332C216.256 107.238 217.005 107.987 217.005 108.911C217.006 109.835 216.257 110.584 215.332 110.584Z" fill="#D4C7E8"/>
<path opacity="0.6" d="M160.496 58.2771H112.454L98.3312 50.082H74.844C72.1684 50.082 70 52.2505 70 54.926V80.1307V117.874V120.846C70 123.36 72.0381 125.398 74.5519 125.398H77.5252H159.886C160.2 125.398 160.508 125.366 160.803 125.306C162.878 124.882 164.438 123.046 164.438 120.846V80.1307V62.2201C164.438 60.0421 162.673 58.2771 160.496 58.2771Z" fill="#D4C7E8"/>
<path d="M92.2492 42.003H68.762C66.0864 42.003 63.918 44.1714 63.918 46.847V109.795C63.918 113.951 67.2872 117.32 71.4432 117.32H153.804C156.318 117.32 158.356 115.282 158.356 112.768V54.141C158.356 51.964 156.591 50.199 154.414 50.199H106.372L92.2492 42.003Z" fill="#FD9200"/>
<path d="M158.356 112.767V72.0517H63.918V112.767C63.918 115.282 65.956 117.319 68.4698 117.319H153.804C156.318 117.32 158.356 115.282 158.356 112.767Z" fill="#FDB105"/>
<path d="M69.168 60.9223V72.0518H152.812V60.9223C152.812 60.5493 152.51 60.2458 152.136 60.2458H69.8435C69.4705 60.2458 69.168 60.5484 69.168 60.9223Z" fill="white"/>
<path opacity="0.6" d="M145.726 66.3733V72.0527H142.057V66.3733C142.057 65.3647 142.883 64.5388 143.891 64.5388C144.9 64.5379 145.726 65.3637 145.726 66.3733Z" fill="#D4C7E8"/>
<path opacity="0.6" d="M137.442 66.3733V72.0527H133.773V66.3733C133.773 65.3647 134.599 64.5388 135.608 64.5388C136.616 64.5379 137.442 65.3637 137.442 66.3733Z" fill="#D4C7E8"/>
<path opacity="0.6" d="M129.165 66.3733V72.0527H125.496V66.3733C125.496 65.3647 126.321 64.5388 127.331 64.5388C128.339 64.5379 129.165 65.3637 129.165 66.3733Z" fill="#D4C7E8"/>
<path opacity="0.6" d="M120.886 66.3733V72.0527H117.217V66.3733C117.217 65.3647 118.043 64.5388 119.051 64.5388C120.06 64.5379 120.886 65.3637 120.886 66.3733Z" fill="#D4C7E8"/>
<path opacity="0.6" d="M112.61 66.3733V72.0527H108.941V66.3733C108.941 65.3647 109.767 64.5388 110.776 64.5388C111.784 64.5379 112.61 65.3637 112.61 66.3733Z" fill="#D4C7E8"/>
<path opacity="0.6" d="M104.327 66.3733V72.0527H100.658V66.3733C100.658 65.3647 101.484 64.5388 102.493 64.5388C103.501 64.5379 104.327 65.3637 104.327 66.3733Z" fill="#D4C7E8"/>
<path opacity="0.6" d="M96.0517 66.3733V72.0527H92.3828V66.3733C92.3828 65.3647 93.2087 64.5388 94.2173 64.5388C95.2268 64.5379 96.0517 65.3637 96.0517 66.3733Z" fill="#D4C7E8"/>
<path opacity="0.6" d="M87.7724 66.3733V72.0527H84.1035V66.3733C84.1035 65.3647 84.9294 64.5388 85.938 64.5388C86.9475 64.5379 87.7724 65.3637 87.7724 66.3733Z" fill="#D4C7E8"/>
<path opacity="0.6" d="M79.4931 66.3733V72.0527H75.8242V66.3733C75.8242 65.3647 76.6501 64.5388 77.6587 64.5388C78.6682 64.5379 79.4931 65.3637 79.4931 66.3733Z" fill="#D4C7E8"/>
<path opacity="0.6" d="M226.068 10.7213V17.394H6.91406V10.7213C6.91406 8.23125 8.9312 6.21411 11.4212 6.21411H221.561C224.051 6.21316 226.068 8.23125 226.068 10.7213Z" fill="#D4C7E8"/>
<path d="M206.683 13.9924C207.893 13.9924 208.873 13.0122 208.873 11.8031C208.873 10.5939 207.893 9.61371 206.683 9.61371C205.474 9.61371 204.494 10.5939 204.494 11.8031C204.494 13.0122 205.474 13.9924 206.683 13.9924Z" fill="#FDB105"/>
<path d="M200.773 11.8031C200.773 13.0124 199.793 13.9924 198.584 13.9924C197.375 13.9924 196.395 13.0124 196.395 11.8031C196.395 10.5937 197.375 9.61371 198.584 9.61371C199.793 9.61371 200.773 10.5947 200.773 11.8031Z" fill="#324134"/>
<path d="M216.972 11.8031C216.972 13.0124 215.992 13.9924 214.783 13.9924C213.574 13.9924 212.594 13.0124 212.594 11.8031C212.594 10.5937 213.574 9.61371 214.783 9.61371C215.992 9.61466 216.972 10.5947 216.972 11.8031Z" fill="#324134"/>
<path d="M138.031 155.484H90.5586V197.399H138.031V155.484Z" fill="#F6C90E"/>
<path d="M165.282 206.25H63.3105V200.14C63.3105 195.582 67.0051 191.888 71.5627 191.888H157.03C161.588 191.888 165.282 195.582 165.282 200.14V206.25Z" fill="#F6C90E"/>
<path d="M189.662 158.164H178.895C178.044 158.164 177.355 157.475 177.355 156.625V155.485H191.202V156.625C191.202 157.475 190.513 158.164 189.662 158.164Z" fill="#F6C90E"/>
<path d="M210.896 158.164H200.129C199.279 158.164 198.59 157.475 198.59 156.625V155.485H212.437V156.625C212.436 157.475 211.746 158.164 210.896 158.164Z" fill="#F6C90E"/>
<path d="M168.426 158.164H157.659C156.808 158.164 156.119 157.475 156.119 156.625V155.485H169.966V156.625C169.965 157.475 169.275 158.164 168.426 158.164Z" fill="#F6C90E"/>
</svg>
