<svg width="56" height="56" viewBox="0 0 56 56" fill="none" xmlns="http://www.w3.org/2000/svg">
<g id="Group 2530">
<circle id="Ellipse 40" cx="27.8574" cy="27.8574" r="27.8574" fill="#F6C90E"/>
<path id="Vector" fill-rule="evenodd" clip-rule="evenodd" d="M28.2185 18.4739C30.5812 20.4879 32.7171 21.4422 34.5479 21.2143C34.8678 29.9171 32.4776 35.0561 28.2418 37.2154C24.1522 35.2213 21.7323 30.2902 21.9124 21.0975C24.0632 21.2485 26.1737 20.6246 28.2185 18.4881V18.4739ZM31.2147 16.964V18.2118C31.4605 18.3542 31.7042 18.4824 31.9458 18.602V17.4626H32.7934C32.8793 17.7813 33.0461 18.0491 33.2644 18.2188C33.4827 18.3886 33.7385 18.4495 33.9869 18.3909C34.2353 18.3322 34.4603 18.1577 34.6225 17.898C34.7846 17.6384 34.8735 17.3102 34.8735 16.9712C34.8735 16.6321 34.7846 16.3039 34.6225 16.0443C34.4603 15.7846 34.2353 15.6101 33.9869 15.5515C33.7385 15.4928 33.4827 15.5537 33.2644 15.7235C33.0461 15.8933 32.8793 16.161 32.7934 16.4798H31.5792C31.5312 16.4794 31.4837 16.4918 31.4394 16.5163C31.395 16.5408 31.3547 16.5769 31.3208 16.6224C31.2869 16.668 31.2601 16.7222 31.2419 16.7818C31.2237 16.8414 31.2144 16.9053 31.2147 16.9697V16.964ZM15.1953 21.9692C15.1951 21.7093 15.2472 21.4543 15.346 21.2309C15.4448 21.0076 15.5867 20.8243 15.7566 20.7005C15.9266 20.5767 16.1183 20.5169 16.3114 20.5276C16.5045 20.5382 16.6919 20.6188 16.8538 20.7609C17.0156 20.903 17.1459 21.1012 17.2308 21.3347C17.3157 21.5681 17.352 21.8281 17.336 22.0871C17.32 22.346 17.2523 22.5944 17.1399 22.8058C17.0275 23.0172 16.8747 23.1839 16.6977 23.2882V26.1682H20.5839C20.6262 26.5015 20.6707 26.8291 20.7195 27.151H16.3332C16.2382 27.1518 16.1467 27.1023 16.0786 27.0134C16.0104 26.9244 15.971 26.803 15.9687 26.6753V23.3537C15.7455 23.2671 15.5493 23.0851 15.4098 22.8354C15.2702 22.5856 15.1949 22.2816 15.1953 21.9692ZM18.1428 21.012C18.1459 20.6567 18.2466 20.3155 18.4257 20.0541C18.6048 19.7927 18.8495 19.6296 19.1127 19.5964C19.3758 19.5631 19.6389 19.662 19.851 19.8739C20.0632 20.0859 20.2095 20.3959 20.2618 20.7443C20.2618 20.9123 20.2618 21.0804 20.2618 21.2485C20.2294 21.5024 20.1473 21.7401 20.0241 21.9373C19.9009 22.1345 19.7408 22.2842 19.5604 22.3709V23.5103H20.3381C20.3571 23.8436 20.3804 24.1712 20.4059 24.4931H19.2023C19.1056 24.4931 19.0129 24.4415 18.9446 24.3496C18.8762 24.2578 18.8378 24.1331 18.8378 24.0032V22.3595C18.6328 22.2585 18.456 22.0749 18.3316 21.8337C18.2072 21.5925 18.1413 21.3055 18.1428 21.012ZM15.2123 29.9484C15.213 29.6102 15.3021 29.2831 15.464 29.0243C15.626 28.7655 15.8505 28.5915 16.0983 28.5328C16.346 28.4741 16.6012 28.5343 16.8193 28.703C17.0373 28.8717 17.2043 29.1381 17.291 29.4556H21.1623C21.2407 29.7917 21.3255 30.1193 21.4124 30.4384H17.291C17.2043 30.7556 17.0375 31.0219 16.8197 31.1906C16.6019 31.3593 16.3469 31.4198 16.0993 31.3614C15.8517 31.3031 15.6272 31.1296 15.4651 30.8713C15.3029 30.613 15.2134 30.2864 15.2123 29.9484ZM17.5262 35.9449C17.5261 35.6527 17.5922 35.3673 17.7156 35.1266C17.8389 34.886 18.0138 34.7014 18.217 34.5975V32.7031C18.217 32.6383 18.2265 32.5741 18.2451 32.5143C18.2637 32.4544 18.2909 32.4002 18.3252 32.3546C18.3595 32.309 18.4002 32.2731 18.4449 32.2488C18.4896 32.2245 18.5374 32.2124 18.5857 32.2131H21.9866C22.1116 32.5521 22.2451 32.8797 22.385 33.1988H18.948V34.5832C19.1342 34.6696 19.2991 34.8232 19.4246 35.0272C19.5501 35.2313 19.6314 35.4778 19.6596 35.7399C19.6877 36.0019 19.6616 36.2694 19.5842 36.5128C19.5067 36.7562 19.3809 36.9663 19.2205 37.1199C19.0601 37.2735 18.8713 37.3648 18.6748 37.3837C18.4784 37.4025 18.2819 37.3483 18.1068 37.2269C17.9318 37.1055 17.785 36.9217 17.6826 36.6955C17.5802 36.4694 17.526 36.2097 17.5262 35.9449ZM33.0794 44.1378C33.2727 44.1383 33.4624 44.0686 33.6286 43.9361C33.7948 43.8036 33.9313 43.6131 34.0236 43.3849C34.1159 43.1566 34.1606 42.8991 34.153 42.6395C34.1454 42.3799 34.0857 42.1279 33.9803 41.9102C33.8749 41.6924 33.7277 41.517 33.5543 41.4025C33.3808 41.288 33.1876 41.2386 32.995 41.2596C32.8023 41.2806 32.6175 41.3712 32.4601 41.5218C32.3026 41.6724 32.1784 41.8774 32.1005 42.1152H29.9582V38.56C29.7209 38.7366 29.4772 38.9047 29.2271 39.0642V42.608C29.2271 42.738 29.2655 42.8626 29.3339 42.9545C29.4022 43.0464 29.4949 43.098 29.5916 43.098H32.0517C32.116 43.3976 32.251 43.6611 32.4364 43.8486C32.6218 44.0362 32.8474 44.1376 33.0794 44.1378ZM33.7935 40.1752C33.9903 40.1756 34.1834 40.1031 34.3515 39.9657C34.5197 39.8284 34.6566 39.6315 34.747 39.3965C34.8375 39.1616 34.8782 38.8977 34.8645 38.6338C34.8509 38.3699 34.7834 38.1161 34.6696 37.9003C34.5559 37.6844 34.4001 37.5149 34.2194 37.4101C34.0387 37.3054 33.84 37.2695 33.6451 37.3065C33.4503 37.3434 33.2667 37.4518 33.1146 37.6196C32.9625 37.7874 32.8477 38.0083 32.7828 38.2581H31.9352V36.697C31.6993 36.9723 31.4556 37.2344 31.2041 37.4832V38.7509C31.2039 38.8153 31.2131 38.8792 31.2313 38.9388C31.2495 38.9985 31.2764 39.0526 31.3103 39.0982C31.3442 39.1438 31.3844 39.1798 31.4288 39.2043C31.4731 39.2288 31.5207 39.2412 31.5686 39.2409H32.7828C32.8579 39.5165 32.9945 39.7541 33.1739 39.9214C33.3533 40.0886 33.5667 40.1773 33.785 40.1752H33.7935ZM27.1463 44.1121C27.3984 44.1132 27.6427 43.9945 27.8361 43.7771C28.0295 43.5596 28.1595 43.2574 28.2034 42.9236C28.2472 42.5899 28.202 42.246 28.0756 41.9527C27.9493 41.6594 27.75 41.4355 27.5129 41.3204V39.2295C27.2734 39.0842 27.0192 38.9247 26.7818 38.7623V41.3261C26.5449 41.4411 26.3457 41.6648 26.2194 41.9578C26.093 42.2508 26.0476 42.5943 26.0912 42.9279C26.1347 43.2615 26.2644 43.5637 26.4574 43.7814C26.6504 43.999 26.8944 44.1182 27.1463 44.1178V44.1121ZM22.6965 41.0042C22.9131 41.0005 23.1237 40.9087 23.3007 40.7409C23.4778 40.5731 23.6128 40.3372 23.6881 40.0641H25.0973C25.1939 40.0626 25.2863 40.0101 25.3545 39.918C25.4227 39.8258 25.4612 39.7013 25.4617 39.5713V37.694C25.2096 37.4576 24.9659 37.2154 24.7307 36.9306V39.0842H23.6987C23.6345 38.8339 23.5203 38.6122 23.3685 38.4434C23.2167 38.2747 23.0333 38.1654 22.8384 38.1276C22.6435 38.0897 22.4445 38.1248 22.2635 38.2289C22.0824 38.3331 21.9261 38.5022 21.8119 38.7179C21.6976 38.9335 21.6297 39.1873 21.6157 39.4514C21.6016 39.7155 21.642 39.9797 21.7323 40.215C21.8226 40.4503 21.9593 40.6477 22.1275 40.7854C22.2957 40.9231 22.4889 40.9958 22.6859 40.9957L22.6965 41.0042ZM41.2438 21.9692C41.244 21.7093 41.1919 21.4543 41.0931 21.2309C40.9943 21.0076 40.8524 20.8243 40.6825 20.7005C40.5125 20.5767 40.3209 20.5169 40.1277 20.5276C39.9346 20.5382 39.7472 20.6188 39.5854 20.7609C39.4235 20.903 39.2933 21.1012 39.2084 21.3347C39.1235 21.5681 39.0871 21.8281 39.1031 22.0871C39.1191 22.346 39.1869 22.5944 39.2992 22.8058C39.4116 23.0172 39.5644 23.1839 39.7415 23.2882V26.1682H35.9612C35.9231 26.5015 35.8786 26.8291 35.8298 27.151H40.1059C40.1991 27.1481 40.2879 27.097 40.3538 27.0084C40.4197 26.9198 40.4576 26.8005 40.4598 26.6753V23.3537C40.683 23.2671 40.8792 23.0851 41.0188 22.8354C41.1583 22.5856 41.2336 22.2816 41.2332 21.9692H41.2438ZM38.2921 21.012C38.2933 20.6722 38.2049 20.3428 38.0427 20.0821C37.8804 19.8215 37.6548 19.6465 37.4058 19.5881C37.1567 19.5298 36.9004 19.5918 36.6821 19.7633C36.4639 19.9348 36.2978 20.2046 36.2134 20.5249C36.135 20.8499 36.135 21.1998 36.2134 21.5248C36.2675 21.7202 36.3523 21.8977 36.462 22.0452C36.5717 22.1927 36.7037 22.3067 36.8491 22.3794V23.5189H36.1731C36.1562 23.8522 36.1371 24.1798 36.1138 24.5017H37.2326C37.3293 24.5017 37.422 24.4501 37.4903 24.3582C37.5587 24.2663 37.5971 24.1417 37.5971 24.0117V22.3595C37.8021 22.2585 37.9789 22.0749 38.1033 21.8337C38.2277 21.5925 38.2936 21.3055 38.2921 21.012ZM41.2163 29.9484C41.2143 29.6116 41.1246 29.2863 40.9628 29.0291C40.8009 28.7719 40.5772 28.599 40.3305 28.5404C40.0837 28.4819 39.8295 28.5413 39.612 28.7085C39.3945 28.8757 39.2273 29.14 39.1397 29.4556H35.3785C35.298 29.7917 35.2132 30.1193 35.1221 30.4384H39.1397C39.2263 30.7556 39.3931 31.0219 39.6109 31.1906C39.8288 31.3593 40.0837 31.4198 40.3314 31.3614C40.579 31.3031 40.8035 31.1296 40.9656 30.8713C41.1277 30.613 41.2172 30.2864 41.2184 29.9484H41.2163ZM38.9023 35.9449C38.9024 35.6527 38.8363 35.3673 38.713 35.1266C38.5896 34.886 38.4147 34.7014 38.2116 34.5975V32.7031C38.2116 32.6385 38.2021 32.5746 38.1836 32.5149C38.1652 32.4553 38.1381 32.4012 38.1041 32.3556C38.07 32.3101 38.0296 32.2741 37.9851 32.2496C37.9406 32.2251 37.893 32.2127 37.845 32.2131H34.5373C34.408 32.5521 34.2703 32.8797 34.1283 33.1988H37.4805V34.5832C37.2943 34.6696 37.1294 34.8232 37.0039 35.0272C36.8784 35.2313 36.7971 35.4778 36.769 35.7399C36.7408 36.0019 36.7669 36.2694 36.8444 36.5128C36.9218 36.7562 37.0476 36.9663 37.2081 37.1199C37.3685 37.2735 37.5572 37.3648 37.7537 37.3837C37.9501 37.4025 38.1467 37.3483 38.3217 37.2269C38.4967 37.1055 38.6435 36.9217 38.7459 36.6955C38.8484 36.4694 38.9025 36.2097 38.9023 35.9449ZM33.0794 11.5772C33.2728 11.5764 33.4627 11.6459 33.6291 11.7785C33.7955 11.911 33.9321 12.1015 34.0245 12.3299C34.1169 12.5583 34.1616 12.816 34.1539 13.0758C34.1463 13.3356 34.0865 13.5877 33.9809 13.8055C33.8753 14.0234 33.7279 14.1987 33.5542 14.3131C33.3806 14.4274 33.1871 14.4765 32.9944 14.4551C32.8017 14.4338 32.6168 14.3427 32.4595 14.1916C32.3021 14.0405 32.178 13.835 32.1005 13.5969H29.9582V17.4113C29.7166 17.2404 29.4729 17.0637 29.2271 16.8757V13.1069C29.2269 13.0425 29.2361 12.9786 29.2543 12.919C29.2725 12.8593 29.2994 12.8052 29.3333 12.7596C29.3672 12.714 29.4074 12.6779 29.4518 12.6535C29.4961 12.629 29.5437 12.6166 29.5916 12.6169H32.0517C32.116 12.3173 32.251 12.0538 32.4364 11.8663C32.6218 11.6788 32.8474 11.5773 33.0794 11.5772ZM27.1463 11.5999C27.3979 11.6009 27.6412 11.7207 27.8337 11.9384C28.0262 12.1562 28.1556 12.458 28.1993 12.791C28.243 13.1241 28.1982 13.4672 28.0727 13.7604C27.9472 14.0535 27.749 14.278 27.5129 14.3945V16.7361C27.2685 16.9583 27.0248 17.1635 26.7818 17.3515V14.3945C26.5458 14.2781 26.3478 14.0538 26.2223 13.761C26.0968 13.4681 26.0518 13.1253 26.0952 12.7924C26.1387 12.4596 26.2677 12.1578 26.4598 11.9398C26.6519 11.7218 26.8949 11.6015 27.1463 11.5999ZM22.6859 14.7107C22.9033 14.7107 23.1155 14.7995 23.2945 14.9653C23.4735 15.1312 23.6108 15.3663 23.6881 15.6394H25.0973C25.1943 15.6409 25.287 15.6938 25.3552 15.7866C25.4235 15.8794 25.4617 16.0046 25.4617 16.1351V18.2289C25.218 18.3656 24.9744 18.4881 24.7286 18.5963V16.6222H23.6987C23.6345 16.8725 23.5203 17.0942 23.3685 17.2629C23.2167 17.4317 23.0333 17.541 22.8384 17.5788C22.6435 17.6166 22.4445 17.5816 22.2635 17.4774C22.0824 17.3733 21.9261 17.2041 21.8119 16.9885C21.6976 16.7728 21.6297 16.519 21.6157 16.2549C21.6016 15.9908 21.642 15.7266 21.7323 15.4913C21.8226 15.256 21.9593 15.0587 22.1275 14.921C22.2957 14.7833 22.4889 14.7105 22.6859 14.7107ZM25.8643 25.8577H26.0995V25.2737C26.0985 24.4939 26.3217 23.7436 26.7225 23.1799C26.9162 22.9011 27.1504 22.6788 27.4107 22.5269C27.671 22.3749 27.9517 22.2965 28.2355 22.2965C28.5192 22.2965 28.7999 22.3749 29.0602 22.5269C29.3205 22.6788 29.5547 22.9011 29.7484 23.1799C30.1492 23.7436 30.3724 24.4939 30.3714 25.2737V25.8577H30.6066C30.6991 25.8584 30.7877 25.9082 30.8532 25.9962C30.9186 26.0842 30.9557 26.2033 30.9562 26.3277V31.2787C30.9557 31.4029 30.9186 31.5217 30.8531 31.6093C30.7876 31.6968 30.6989 31.7459 30.6066 31.7459H25.8686C25.7762 31.7459 25.6876 31.6968 25.6221 31.6093C25.5566 31.5217 25.5195 31.4029 25.5189 31.2787V26.3277C25.5195 26.2033 25.5565 26.0842 25.622 25.9962C25.6874 25.9082 25.776 25.8584 25.8686 25.8577H25.8643ZM27.9494 29.0197L27.5743 30.3444H28.8966L28.5448 29.0026C28.6831 28.9075 28.7933 28.752 28.8573 28.5618C28.9214 28.3716 28.9356 28.1577 28.8976 27.9552C28.8596 27.7528 28.7716 27.5736 28.648 27.447C28.5245 27.3204 28.3727 27.2539 28.2173 27.2583C28.062 27.2628 27.9124 27.3379 27.793 27.4714C27.6735 27.6049 27.5913 27.7889 27.5597 27.9934C27.5281 28.1978 27.549 28.4107 27.619 28.5971C27.689 28.7835 27.804 28.9325 27.9452 29.0197H27.9494ZM26.7649 25.8577H29.7145V25.2737C29.7163 24.7228 29.5599 24.1922 29.278 23.7924C29.1451 23.6009 28.9844 23.4482 28.8058 23.3437C28.6272 23.2393 28.4345 23.1854 28.2397 23.1854C28.0449 23.1854 27.8522 23.2393 27.6736 23.3437C27.495 23.4482 27.3342 23.6009 27.2014 23.7924C26.9194 24.1922 26.7631 24.7228 26.7649 25.2737V25.8577Z" fill="white"/>
</g>
</svg>
