<svg width="56" height="56" viewBox="0 0 56 56" fill="none" xmlns="http://www.w3.org/2000/svg">
<g id="Group 2530">
<circle id="Ellipse 40" cx="27.8574" cy="27.8574" r="27.8574" fill="#F6C90E"/>
<path id="Vector" d="M29.3455 15.9511C29.1395 15.7098 28.8981 15.5909 28.6184 15.5909C28.339 15.5909 28.0942 15.7098 27.8915 15.9511L26.7834 17.2445C26.4863 17.0194 26.172 16.8227 25.8433 16.6467C25.5149 16.4708 25.1792 16.3198 24.8402 16.1886V14.1989C24.8402 13.8634 24.7425 13.581 24.543 13.3477C24.3443 13.1144 24.1032 13 23.8164 13H21.6844C21.4117 13 21.1744 13.1144 20.9682 13.3477C20.7656 13.581 20.664 13.8634 20.664 14.1989V16.0206C20.3078 16.1185 19.9617 16.2414 19.6294 16.393C19.2942 16.5443 18.9762 16.7166 18.6754 16.9087L17.4486 15.4924C17.2564 15.2551 17.0223 15.1322 16.7392 15.1322C16.4592 15.1322 16.2183 15.2551 16.0121 15.4924L14.5199 17.2445C14.3139 17.4858 14.2123 17.7685 14.2123 18.0954C14.2123 18.423 14.3139 18.7097 14.5199 18.947L15.6246 20.2447C15.4324 20.5924 15.2647 20.9608 15.1144 21.3451C14.9639 21.73 14.835 22.1234 14.7227 22.5202H13.0242C12.7373 22.5202 12.4961 22.6346 12.2971 22.8679C12.0979 23.1015 12 23.3839 12 23.7197V26.2166C12 26.5354 12.0979 26.8141 12.2969 27.0557C12.4958 27.2926 12.7373 27.4116 13.024 27.4116H14.579C14.6628 27.8285 14.7675 28.2338 14.8972 28.6227C15.0269 29.0158 15.1735 29.3965 15.3376 29.7646L14.1282 31.1767C13.9253 31.4021 13.8206 31.6762 13.8206 32.0081C13.8206 32.3353 13.9253 32.618 14.1282 32.8596L15.6243 34.6319C15.8303 34.857 16.0715 34.968 16.3514 34.968C16.6306 34.968 16.8751 34.8573 17.0783 34.6319L18.1861 33.314C18.483 33.5388 18.7978 33.7352 19.1262 33.9118C19.4549 34.0872 19.7903 34.239 20.1294 34.3699V36.3593C20.1294 36.6948 20.2273 36.9769 20.4263 37.2099C20.6255 37.4439 20.8669 37.5585 21.1534 37.5585H23.2852C23.5578 37.5585 23.7953 37.4439 24.0016 37.2099C24.204 36.9769 24.3055 36.6948 24.3055 36.3593V34.5376C24.662 34.4397 25.0079 34.3168 25.3399 34.1649C25.6756 34.0137 26.0009 33.8413 26.3149 33.6492L27.5207 35.0659C27.7132 35.3031 27.9504 35.4261 28.2376 35.4261C28.5272 35.4261 28.765 35.3035 28.9577 35.0659L30.471 33.314C30.6632 33.0722 30.758 32.7897 30.758 32.4625C30.758 32.1352 30.6635 31.8486 30.471 31.6113L29.3457 30.3135C29.5379 29.9656 29.7057 29.5974 29.8562 29.2128C30.0059 28.8283 30.1354 28.4348 30.2473 28.038H31.9461C32.2325 28.038 32.4734 27.9227 32.6724 27.69C32.8719 27.4564 32.9698 27.1743 32.9698 26.8385V24.3419C32.9698 24.0226 32.8719 23.7447 32.6724 23.5026C32.4734 23.2653 32.2325 23.1466 31.9461 23.1466H30.3906C30.3067 22.7456 30.2018 22.3445 30.0723 21.9477C29.9432 21.5464 29.796 21.17 29.632 20.8174L30.8416 19.3813C31.0442 19.1562 31.1492 18.8817 31.1492 18.5505C31.1492 18.2226 31.0445 17.9405 30.8416 17.6989L29.3455 15.9511ZM41.146 29.3623C41.0143 29.254 40.8742 29.2162 40.7223 29.2476C40.5705 29.2784 40.4471 29.3699 40.3575 29.5233L39.8606 30.3474C39.6814 30.2583 39.4955 30.187 39.3022 30.1275C39.1103 30.0683 38.9158 30.0229 38.7212 29.99L38.5608 28.9109C38.5335 28.7291 38.458 28.5867 38.3306 28.4821C38.204 28.3775 38.0639 28.3421 37.9085 28.3741L36.7519 28.6102C36.6045 28.6404 36.485 28.7291 36.3918 28.8783C36.3006 29.0268 36.2681 29.1915 36.2957 29.3739L36.4425 30.3614C36.2569 30.4538 36.0793 30.5591 35.9121 30.678C35.7417 30.7976 35.5831 30.9257 35.436 31.0635L34.656 30.4313C34.5321 30.3239 34.3959 30.2837 34.242 30.3145C34.0901 30.3459 33.9696 30.4386 33.8769 30.5902L33.2091 31.7061C33.1169 31.8598 33.0844 32.0245 33.1109 32.2011C33.1375 32.3795 33.2156 32.5235 33.3466 32.6293L34.0506 33.2109C33.9745 33.4205 33.9133 33.6385 33.8628 33.8648C33.812 34.0899 33.7735 34.3174 33.7451 34.5453L32.8237 34.7331C32.6685 34.7648 32.5469 34.8539 32.4575 35.0027C32.368 35.151 32.3383 35.3153 32.3654 35.4971L32.5667 36.8516C32.5924 37.0242 32.6677 37.1645 32.7958 37.2734C32.9227 37.3801 33.0633 37.4179 33.2188 37.3859L34.0623 37.2139C34.1414 37.4314 34.231 37.6391 34.3326 37.8358C34.4347 38.0346 34.5448 38.2243 34.6639 38.4058L34.1219 39.3061C34.03 39.451 33.9956 39.6108 34.0222 39.791C34.0487 39.9689 34.1279 40.1104 34.2576 40.2186L35.212 41.0137C35.342 41.1129 35.4818 41.1467 35.6334 41.1156C35.7852 41.0848 35.9092 40.997 36.0006 40.8527L36.4951 40.0152C36.6743 40.1046 36.8605 40.1762 37.0535 40.2351C37.2457 40.2943 37.44 40.3397 37.6342 40.3724L37.7952 41.452C37.8223 41.6341 37.8983 41.7762 38.0251 41.8802C38.1517 41.9851 38.2921 42.0205 38.4473 41.9888L39.6033 41.7524C39.7515 41.7219 39.871 41.6338 39.9642 41.4843C40.0551 41.3355 40.0877 41.1717 40.0601 40.989L39.9129 40.0006C40.0986 39.9082 40.2765 39.8035 40.4442 39.6843C40.6137 39.5644 40.776 39.436 40.9312 39.297L41.6997 39.9316C41.8234 40.039 41.9622 40.079 42.1174 40.0469C42.2747 40.0152 42.3937 39.9222 42.4789 39.7721L43.1583 38.6544C43.2427 38.5019 43.2716 38.3384 43.2448 38.1609C43.2185 37.9831 43.144 37.8379 43.0208 37.7309L42.3052 37.1517C42.3818 36.9418 42.4427 36.7238 42.4932 36.4978C42.5437 36.2727 42.5823 36.0452 42.6109 35.8171L43.532 35.6292C43.6875 35.5975 43.8089 35.509 43.8979 35.3599C43.9875 35.211 44.0175 35.0476 43.9904 34.8655L43.7886 33.511C43.7628 33.3381 43.6873 33.1984 43.5596 33.0889C43.4328 32.9819 43.2922 32.9447 43.1367 32.9764L42.2932 33.1487C42.2153 32.9401 42.126 32.7345 42.0237 32.5336C41.9208 32.3301 41.8112 32.1423 41.6937 31.9693L42.2338 31.0559C42.3258 30.911 42.3599 30.7515 42.3328 30.571C42.3065 30.3932 42.2273 30.2522 42.0974 30.1437L41.146 29.3623ZM37.8236 32.8026C38.1025 32.7452 38.3751 32.7531 38.6431 32.8254C38.9101 32.9005 39.1517 33.0258 39.3663 33.2009C39.5812 33.3784 39.7629 33.6022 39.9135 33.8712C40.0627 34.1424 40.1609 34.44 40.2101 34.7667C40.2588 35.0936 40.2518 35.4129 40.1903 35.7274C40.1262 36.0394 40.0197 36.3218 39.8692 36.574C39.7176 36.825 39.527 37.0382 39.2973 37.2145C39.0658 37.3893 38.8116 37.5046 38.5324 37.5619C38.2538 37.6186 37.9811 37.6104 37.7126 37.5384C37.4457 37.4634 37.2048 37.3386 36.9894 37.1627C36.7754 36.9852 36.5931 36.7619 36.4425 36.4929C36.2936 36.2218 36.1946 35.9238 36.1462 35.5972C36.0972 35.2708 36.104 34.9515 36.1657 34.6371C36.2298 34.3244 36.3368 34.042 36.4863 33.7898C36.6381 33.5394 36.829 33.3259 37.0587 33.1496C37.2907 32.9749 37.5449 32.8596 37.8236 32.8026ZM22.4852 20.388C23.0584 20.388 23.5998 20.5152 24.1133 20.7686C24.624 21.0267 25.068 21.3744 25.4454 21.812C25.8191 22.2539 26.116 22.7746 26.3363 23.3714C26.5532 23.9732 26.6613 24.6078 26.6613 25.2788C26.6613 25.9501 26.5532 26.5848 26.3363 27.1862C26.116 27.7837 25.8191 28.3043 25.4454 28.7462C25.068 29.1842 24.624 29.5316 24.1133 29.7896C23.5998 30.0436 23.0584 30.1702 22.4852 30.1702C21.912 30.1702 21.37 30.0436 20.8562 29.7896C20.3463 29.5316 19.902 29.1842 19.5249 28.7462C19.1507 28.3043 18.8538 27.784 18.6335 27.1862C18.4171 26.5848 18.3085 25.9501 18.3085 25.2788C18.3085 24.6078 18.4171 23.9732 18.6335 23.3714C18.8538 22.7743 19.1507 22.2539 19.5249 21.812C19.902 21.3744 20.3463 21.0264 20.8562 20.7686C21.3698 20.5152 21.912 20.388 22.4852 20.388Z" fill="white"/>
</g>
</svg>
