<svg width="77" height="52" viewBox="0 0 77 52" fill="none" xmlns="http://www.w3.org/2000/svg">
<g id="Group">
<path id="Vector" d="M76.1621 8.45557C76.1621 8.45557 76.1816 14.5772 67.7148 22.4388V15.9283L68.5795 15.1824L72.2376 10.8901L76.1621 8.45557Z" fill="#324134"/>
<g id="Group_2">
<g id="Group_3">
<g id="Group_4">
<g id="Group_5">
<g id="Group_6">
<path id="Vector_2" d="M68.6844 45.824H8.38281V9.68417C8.38281 7.91831 9.81968 6.48145 11.5855 6.48145H65.4817C67.2476 6.48145 68.6844 7.91831 68.6844 9.68417V45.824ZM10.7426 43.4642H66.3244V9.68417C66.3244 9.21936 65.9465 8.84122 65.4814 8.84122H11.5855C11.1207 8.84122 10.7426 9.21936 10.7426 9.68417V43.4642Z" fill="#F6C90E"/>
</g>
</g>
</g>
<g id="Group_7">
<g id="Group_8">
<path id="Vector_3" d="M12.5117 38.8649V11.1913C12.5117 10.9099 12.7397 10.6819 13.0211 10.6819H63.876C64.1574 10.6819 64.3853 10.9099 64.3853 11.1913V38.8649C64.3853 39.1463 64.1574 39.3743 63.876 39.3743H13.0211C12.7397 39.3743 12.5117 39.1463 12.5117 38.8649Z" fill="#324134"/>
</g>
</g>
<path id="Vector_4" d="M67.504 41.239H9.5625V44.6441H67.504V41.239Z" fill="#324134"/>
<path id="Vector_5" d="M1.54883 39.9646C1.54883 39.9646 3.14867 44.0491 10.4935 44.0454C16.8358 44.042 12.1575 41.4057 12.1575 41.4057L7.45224 39.9646L4.12408 38.8809L1.54883 39.9646Z" fill="#324134"/>
<path id="Vector_6" d="M40.1685 42.4834H36.8952C36.666 42.4834 36.4805 42.6693 36.4805 42.8982V42.9848C36.4805 43.214 36.6663 43.3996 36.8952 43.3996H40.1685C40.3977 43.3996 40.5832 43.2137 40.5832 42.9848V42.8982C40.5832 42.669 40.3974 42.4834 40.1685 42.4834Z" fill="white"/>
</g>
<path id="Vector_7" d="M45.1529 48.2129C45.1529 49.0687 44.393 49.7621 43.4557 49.7621H33.0211C32.0838 49.7621 31.3239 49.0684 31.3239 48.2129H2.96289C2.96289 50.3044 4.7254 52.0001 6.89931 52.0001H70.1659C72.3398 52.0001 74.1023 50.3044 74.1023 48.2129H45.1529Z" fill="#324134"/>
</g>
<g id="Group_9">
<path id="Vector_8" d="M38.4288 34.4943C43.6491 34.4943 47.881 30.2624 47.881 25.0421C47.881 19.8218 43.6491 15.5898 38.4288 15.5898C33.2085 15.5898 28.9766 19.8218 28.9766 25.0421C28.9766 30.2624 33.2085 34.4943 38.4288 34.4943Z" stroke="white" stroke-width="2" stroke-miterlimit="10"/>
<path id="Vector_9" d="M38.4291 34.4941C41.2041 34.4941 43.4538 30.2622 43.4538 25.0418C43.4538 19.8215 41.2041 15.5896 38.4291 15.5896C35.654 15.5896 33.4043 19.8215 33.4043 25.0418C33.4043 30.2622 35.654 34.4941 38.4291 34.4941Z" stroke="white" stroke-width="2" stroke-miterlimit="10"/>
<path id="Vector_10" d="M45.2858 18.5403C43.5633 16.7241 41.1291 15.5894 38.4281 15.5894C35.7271 15.5894 33.2928 16.7241 31.5703 18.5403C33.2928 19.4565 35.7271 20.0287 38.4281 20.0287C41.1291 20.0287 43.5633 19.4568 45.2858 18.5403Z" stroke="white" stroke-width="2" stroke-miterlimit="10"/>
<path id="Vector_11" d="M31.5703 31.5431C33.2928 33.3594 35.7271 34.4941 38.4281 34.4941C41.1291 34.4941 43.5633 33.3594 45.2858 31.5431C43.5633 30.6269 41.1291 30.0547 38.4281 30.0547C35.7271 30.0547 33.2931 30.6269 31.5703 31.5431Z" stroke="white" stroke-width="2" stroke-miterlimit="10"/>
<path id="Vector_12" d="M28.9766 25.0417H47.8813" stroke="white" stroke-width="2" stroke-miterlimit="10"/>
<path id="Vector_13" d="M38.4297 15.5894V34.4941" stroke="white" stroke-width="2" stroke-miterlimit="10"/>
</g>
<g id="Group_10">
<path id="Vector_14" d="M74.8579 4.58614C72.5625 -0.46211 59.0457 0.562742 42.7857 6.48142H51.1078C61.1381 3.72183 68.6581 3.61531 70.0858 6.75578C72.2378 11.4888 59.7394 21.8011 42.1701 29.7893C24.6009 37.7775 8.61346 40.4165 6.46182 35.6835C5.79711 34.2213 6.53202 32.2263 8.38151 29.9318V25.7631C3.01005 30.5587 0.368269 34.9462 1.69008 37.8529C4.41914 43.8549 23.0105 41.2732 43.2154 32.0868C63.4197 22.901 77.5866 10.5881 74.8579 4.58614Z" fill="#FFB000"/>
</g>
<path id="Vector_15" d="M76.0856 4.02829C74.8703 1.35538 71.5522 0 66.2238 0C61.4401 0 55.3106 1.11366 48.5932 3.13132L51.6369 3.66327C63.7453 0.393092 72.9958 0.490453 74.8581 4.58649C77.5872 10.5885 63.4199 22.9013 43.2153 32.0877C23.0104 41.2742 4.41906 43.8558 1.68999 37.8538C0.946534 36.2186 1.45713 34.1152 3.00234 31.734C2.86012 31.3446 2.75971 30.6298 2.6886 29.8272C0.171947 33.1694 -0.59715 36.0812 0.462492 38.4123C1.67778 41.0852 4.99588 42.4406 10.3243 42.4406C18.7026 42.4406 31.2068 39.0294 43.7735 33.3159C53.6607 28.8206 62.4497 23.4385 68.5216 18.1613C75.0812 12.459 77.697 7.57223 76.0856 4.02829Z" fill="white"/>
<path id="Vector_16" d="M16.5437 10.6956H12.5957V14.6436H16.5437V10.6956Z" fill="white"/>
<g id="Group_11">
<path id="Vector_17" d="M11.817 5.05322H6.95312V9.91683H11.817V5.05322Z" fill="#324134"/>
<path id="Vector_18" d="M11.3597 5.51056V9.45858H7.41168V5.51056H11.3597ZM12.2753 4.59497H11.3597H7.41168H6.49609V5.51056V9.45858V10.3742H7.41168H11.3597H12.2753V9.45858V5.51056V4.59497Z" fill="white"/>
</g>
<path id="Vector_19" d="M19.5288 14.6436H16.5449V17.6275H19.5288V14.6436Z" fill="white"/>
<path id="Vector_20" d="M21.7928 12.3782H19.5273V14.6436H21.7928V12.3782Z" fill="white"/>
<path id="Vector_21" d="M16.5424 21.22H14.5684V23.194H16.5424V21.22Z" fill="white"/>
<path id="Vector_22" d="M22.5315 18.8054H20.9473V20.3897H22.5315V18.8054Z" fill="white"/>
<path id="Vector_23" d="M4.73857 0.556641H3.1543V2.14092H4.73857V0.556641Z" fill="#324134"/>
<path id="Vector_24" d="M14.3433 2.52686H11.3594V5.51076H14.3433V2.52686Z" fill="#324134"/>
<path id="Vector_25" d="M7.41001 3.24512H5.14453V5.51059H7.41001V3.24512Z" fill="#324134"/>
<path id="Vector_26" d="M5.12831 7.48462H3.1543V9.45863H5.12831V7.48462Z" fill="#324134"/>
</g>
</svg>
