<svg width="56" height="56" viewBox="0 0 56 56" fill="none" xmlns="http://www.w3.org/2000/svg">
<g id="Group 2530">
<circle id="Ellipse 40" cx="27.8574" cy="27.8574" r="27.8574" fill="#F6C90E"/>
<g id="Group 2289">
<path id="Vector" fill-rule="evenodd" clip-rule="evenodd" d="M27.499 18.5661C29.7665 20.4836 31.8165 21.3922 33.5736 21.1752C33.8807 29.4609 31.5867 34.3536 27.5214 36.4094C23.5964 34.5109 21.2739 29.8162 21.4468 21.064C23.5109 21.2078 25.5365 20.6138 27.499 18.5797V18.5661ZM30.3746 17.1287V18.3166C30.6105 18.4522 30.8444 18.5743 31.0762 18.6882V17.6033H31.8897C31.9722 17.9068 32.1323 18.1617 32.3418 18.3234C32.5513 18.485 32.7968 18.543 33.0352 18.4871C33.2736 18.4313 33.4896 18.2651 33.6452 18.0179C33.8008 17.7707 33.8861 17.4583 33.8861 17.1355C33.8861 16.8127 33.8008 16.5002 33.6452 16.253C33.4896 16.0058 33.2736 15.8397 33.0352 15.7838C32.7968 15.728 32.5513 15.786 32.3418 15.9476C32.1323 16.1092 31.9722 16.3642 31.8897 16.6676H30.7244C30.6784 16.6673 30.6328 16.6791 30.5902 16.7024C30.5477 16.7257 30.509 16.7601 30.4765 16.8035C30.4439 16.8469 30.4182 16.8984 30.4007 16.9552C30.3832 17.0119 30.3743 17.0728 30.3746 17.1341V17.1287ZM15 21.894C14.9998 21.6466 15.0498 21.4037 15.1446 21.1911C15.2395 20.9784 15.3756 20.8039 15.5387 20.6861C15.7018 20.5682 15.8858 20.5113 16.0712 20.5214C16.2565 20.5315 16.4364 20.6083 16.5917 20.7436C16.747 20.8789 16.872 21.0676 16.9535 21.2899C17.035 21.5121 17.0699 21.7596 17.0546 22.0062C17.0392 22.2527 16.9742 22.4892 16.8663 22.6905C16.7585 22.8918 16.6118 23.0504 16.4419 23.1497V25.8917H20.1716C20.2123 26.209 20.255 26.5209 20.3018 26.8274H16.0921C16.0009 26.8281 15.9131 26.7811 15.8477 26.6964C15.7823 26.6116 15.7444 26.496 15.7423 26.3745V23.2121C15.528 23.1296 15.3397 22.9564 15.2058 22.7186C15.0719 22.4808 14.9997 22.1914 15 21.894ZM17.8288 20.9827C17.8318 20.6444 17.9285 20.3195 18.1004 20.0706C18.2722 19.8218 18.5071 19.6665 18.7597 19.6349C19.0123 19.6032 19.2647 19.6973 19.4683 19.8991C19.6719 20.1009 19.8124 20.3961 19.8625 20.7277C19.8625 20.8878 19.8625 21.0478 19.8625 21.2078C19.8314 21.4495 19.7527 21.6758 19.6344 21.8636C19.5161 22.0514 19.3625 22.1938 19.1894 22.2764V23.3612H19.9357C19.954 23.6786 19.9764 23.9905 20.0008 24.2969H18.8457C18.7529 24.2969 18.6639 24.2478 18.5983 24.1603C18.5327 24.0728 18.4959 23.9542 18.4959 23.8304V22.2655C18.2991 22.1694 18.1295 21.9946 18.0101 21.765C17.8907 21.5353 17.8274 21.2621 17.8288 20.9827ZM15.0163 29.4907C15.0169 29.1687 15.1025 28.8573 15.2579 28.6109C15.4134 28.3645 15.6288 28.1989 15.8666 28.143C16.1044 28.0871 16.3493 28.1444 16.5586 28.305C16.7678 28.4656 16.9281 28.7193 17.0113 29.0215H20.7268C20.8021 29.3416 20.8834 29.6535 20.9668 29.9572H17.0113C16.9282 30.2593 16.7681 30.5128 16.559 30.6734C16.35 30.834 16.1052 30.8916 15.8676 30.836C15.6299 30.7805 15.4145 30.6153 15.2589 30.3694C15.1033 30.1235 15.0174 29.8125 15.0163 29.4907ZM17.237 35.1998C17.237 34.9216 17.3004 34.6499 17.4188 34.4208C17.5372 34.1917 17.705 34.016 17.9 33.917V32.1134C17.9 32.0517 17.9092 31.9906 17.927 31.9336C17.9449 31.8766 17.971 31.825 18.0039 31.7816C18.0368 31.7382 18.0759 31.704 18.1188 31.6808C18.1617 31.6577 18.2076 31.6462 18.2539 31.6469H21.5179C21.6379 31.9696 21.766 32.2815 21.9003 32.5853H18.6016V33.9034C18.7803 33.9856 18.9386 34.1319 19.0591 34.3261C19.1795 34.5204 19.2575 34.7551 19.2846 35.0046C19.3116 35.2541 19.2865 35.5087 19.2122 35.7405C19.1379 35.9722 19.0171 36.1722 18.8631 36.3185C18.7092 36.4648 18.528 36.5516 18.3395 36.5696C18.1509 36.5876 17.9623 36.536 17.7943 36.4204C17.6263 36.3048 17.4855 36.1298 17.3872 35.9145C17.2889 35.6992 17.2369 35.4519 17.237 35.1998ZM32.1642 43C32.3497 43.0005 32.5318 42.9342 32.6913 42.808C32.8509 42.6818 32.9818 42.5005 33.0704 42.2832C33.159 42.0659 33.2019 41.8207 33.1946 41.5735C33.1873 41.3264 33.1301 41.0865 33.0289 40.8792C32.9277 40.6718 32.7865 40.5048 32.62 40.3958C32.4535 40.2868 32.268 40.2398 32.0832 40.2598C31.8983 40.2798 31.7209 40.366 31.5698 40.5094C31.4187 40.6528 31.2995 40.848 31.2247 41.0744H29.1686V37.6896C28.9409 37.8577 28.707 38.0178 28.467 38.1696V41.5436C28.467 41.6673 28.5039 41.7859 28.5695 41.8734C28.6351 41.9609 28.724 42.0101 28.8168 42.0101H31.1779C31.2396 42.2953 31.3692 42.5462 31.5471 42.7247C31.725 42.9033 31.9416 42.9999 32.1642 43ZM32.8496 39.2274C33.0385 39.2277 33.2237 39.1587 33.3852 39.0279C33.5466 38.8972 33.6779 38.7097 33.7647 38.486C33.8516 38.2623 33.8906 38.0111 33.8775 37.7598C33.8644 37.5086 33.7997 37.267 33.6905 37.0615C33.5812 36.856 33.4317 36.6945 33.2583 36.5948C33.0849 36.4951 32.8942 36.4609 32.7072 36.4961C32.5202 36.5313 32.344 36.6344 32.198 36.7942C32.0521 36.954 31.9419 37.1643 31.8795 37.4021H31.0661V35.9158C30.8396 36.178 30.6058 36.4275 30.3644 36.6644V37.8713C30.3642 37.9327 30.373 37.9935 30.3905 38.0502C30.408 38.107 30.4338 38.1586 30.4663 38.202C30.4988 38.2454 30.5375 38.2797 30.58 38.303C30.6226 38.3263 30.6682 38.3382 30.7142 38.3378H31.8795C31.9516 38.6002 32.0827 38.8265 32.2549 38.9857C32.4271 39.1449 32.6319 39.2293 32.8415 39.2274H32.8496ZM26.4699 42.9756C26.7119 42.9766 26.9463 42.8636 27.1319 42.6566C27.3175 42.4496 27.4424 42.1618 27.4844 41.8441C27.5265 41.5263 27.4831 41.1989 27.3619 40.9197C27.2406 40.6404 27.0494 40.4272 26.8218 40.3177V38.3269C26.592 38.1886 26.3479 38.0367 26.1202 37.8821V40.3231C25.8927 40.4326 25.7016 40.6455 25.5803 40.9245C25.4591 41.2035 25.4155 41.5306 25.4573 41.8481C25.4991 42.1657 25.6236 42.4535 25.8088 42.6607C25.994 42.8679 26.2282 42.9814 26.4699 42.981V42.9756ZM22.1992 40.0166C22.4071 40.0131 22.6093 39.9257 22.7792 39.7659C22.9491 39.6062 23.0787 39.3815 23.151 39.1216H24.5034C24.5962 39.1202 24.6848 39.0702 24.7503 38.9824C24.8157 38.8947 24.8526 38.7762 24.8532 38.6524V36.8651C24.6112 36.64 24.3773 36.4094 24.1516 36.1382V38.1886H23.1611C23.0995 37.9503 22.9898 37.7393 22.8442 37.5786C22.6985 37.4179 22.5225 37.3139 22.3354 37.2779C22.1483 37.2418 21.9574 37.2752 21.7836 37.3744C21.6099 37.4735 21.4599 37.6346 21.3502 37.8399C21.2406 38.0452 21.1754 38.2868 21.1619 38.5383C21.1485 38.7897 21.1872 39.0412 21.2738 39.2653C21.3605 39.4893 21.4917 39.6772 21.6532 39.8083C21.8146 39.9394 22 40.0087 22.1891 40.0085L22.1992 40.0166ZM40 21.894C40.0002 21.6466 39.9502 21.4037 39.8554 21.1911C39.7605 20.9784 39.6244 20.8039 39.4613 20.6861C39.2982 20.5682 39.1142 20.5113 38.9288 20.5214C38.7435 20.5315 38.5636 20.6083 38.4083 20.7436C38.253 20.8789 38.128 21.0676 38.0465 21.2899C37.965 21.5121 37.9301 21.7596 37.9454 22.0062C37.9608 22.2527 38.0258 22.4892 38.1337 22.6905C38.2415 22.8918 38.3882 23.0504 38.5581 23.1497V25.8917H34.93C34.8934 26.209 34.8507 26.5209 34.804 26.8274H38.9079C38.9973 26.8246 39.0825 26.776 39.1458 26.6917C39.209 26.6073 39.2455 26.4937 39.2475 26.3745V23.2121C39.4618 23.1296 39.6501 22.9564 39.784 22.7186C39.9179 22.4808 39.9902 22.1914 39.9898 21.894H40ZM37.1671 20.9827C37.1682 20.6591 37.0834 20.3455 36.9277 20.0973C36.772 19.8492 36.5555 19.6826 36.3165 19.627C36.0774 19.5715 35.8314 19.6305 35.6219 19.7938C35.4124 19.957 35.2531 20.2139 35.1721 20.5189C35.0968 20.8283 35.0968 21.1615 35.1721 21.4709C35.224 21.6569 35.3054 21.8259 35.4106 21.9663C35.5159 22.1067 35.6426 22.2152 35.7822 22.2845V23.3694H35.1334C35.1171 23.6867 35.0988 23.9986 35.0765 24.3051H36.1502C36.243 24.3051 36.332 24.2559 36.3976 24.1684C36.4632 24.081 36.5 23.9623 36.5 23.8386V22.2655C36.6968 22.1694 36.8665 21.9946 36.9859 21.765C37.1053 21.5353 37.1686 21.2621 37.1671 20.9827ZM39.9736 29.4907C39.9716 29.17 39.8856 28.8603 39.7303 28.6155C39.575 28.3706 39.3603 28.206 39.1234 28.1502C38.8866 28.0945 38.6426 28.1511 38.4339 28.3103C38.2251 28.4694 38.0647 28.7211 37.9806 29.0215H34.3708C34.2935 29.3416 34.2122 29.6535 34.1247 29.9572H37.9806C38.0637 30.2593 38.2238 30.5128 38.4328 30.6734C38.6419 30.834 38.8866 30.8916 39.1243 30.836C39.3619 30.7805 39.5774 30.6153 39.733 30.3694C39.8886 30.1235 39.9745 29.8125 39.9756 29.4907H39.9736ZM37.7528 35.1998C37.7528 34.9216 37.6894 34.6499 37.571 34.4208C37.4526 34.1917 37.2848 34.016 37.0898 33.917V32.1134C37.0898 32.0519 37.0807 31.991 37.063 31.9342C37.0453 31.8775 37.0193 31.8259 36.9866 31.7826C36.9539 31.7392 36.9151 31.7049 36.8725 31.6816C36.8298 31.6583 36.7841 31.6465 36.738 31.6469H33.5634C33.4394 31.9696 33.3072 32.2815 33.1709 32.5853H36.3882V33.9034C36.2095 33.9856 36.0512 34.1319 35.9308 34.3261C35.8103 34.5204 35.7323 34.7551 35.7053 35.0046C35.6783 35.2541 35.7033 35.5087 35.7776 35.7405C35.852 35.9722 35.9727 36.1722 36.1267 36.3185C36.2806 36.4648 36.4618 36.5516 36.6504 36.5696C36.8389 36.5876 37.0275 36.536 37.1955 36.4204C37.3635 36.3048 37.5044 36.1298 37.6027 35.9145C37.701 35.6992 37.7529 35.4519 37.7528 35.1998ZM32.1642 12C32.3498 11.9993 32.5321 12.0655 32.6918 12.1917C32.8515 12.3178 32.9826 12.4992 33.0713 12.7167C33.1599 12.9341 33.2029 13.1795 33.1955 13.4268C33.1881 13.6741 33.1308 13.9142 33.0294 14.1216C32.9281 14.329 32.7866 14.4959 32.6199 14.6048C32.4533 14.7137 32.2676 14.7604 32.0826 14.7401C31.8977 14.7197 31.7203 14.633 31.5692 14.4892C31.4182 14.3453 31.2991 14.1497 31.2247 13.9229H29.1686V17.5545C28.9368 17.3918 28.7029 17.2236 28.467 17.0446V13.4564C28.4667 13.3951 28.4756 13.3343 28.4931 13.2775C28.5106 13.2207 28.5363 13.1692 28.5689 13.1258C28.6014 13.0824 28.6401 13.048 28.6826 13.0247C28.7252 13.0014 28.7708 12.9896 28.8168 12.9899H31.1779C31.2396 12.7047 31.3692 12.4538 31.5471 12.2753C31.725 12.0967 31.9416 12.0001 32.1642 12ZM26.4699 12.0217C26.7114 12.0226 26.9449 12.1367 27.1297 12.344C27.3144 12.5513 27.4386 12.8386 27.4805 13.1557C27.5225 13.4728 27.4795 13.7995 27.359 14.0786C27.2386 14.3576 27.0484 14.5714 26.8218 14.6823V16.9117C26.5872 17.1233 26.3533 17.3186 26.1202 17.4976V14.6823C25.8937 14.5714 25.7036 14.358 25.5831 14.0792C25.4627 13.8004 25.4195 13.474 25.4612 13.157C25.5029 12.8401 25.6267 12.5528 25.8111 12.3453C25.9955 12.1377 26.2287 12.0232 26.4699 12.0217ZM22.1891 14.9834C22.3977 14.9833 22.6014 15.0679 22.7732 15.2258C22.945 15.3837 23.0768 15.6075 23.151 15.8675H24.5034C24.5965 15.869 24.6855 15.9193 24.751 16.0077C24.8165 16.096 24.8532 16.2152 24.8532 16.3395V18.3329C24.6193 18.4631 24.3854 18.5797 24.1495 18.6828V16.8032H23.1611C23.0995 17.0415 22.9898 17.2526 22.8442 17.4133C22.6985 17.5739 22.5225 17.678 22.3354 17.714C22.1483 17.75 21.9574 17.7166 21.7836 17.6175C21.6099 17.5184 21.4599 17.3573 21.3502 17.152C21.2406 16.9467 21.1754 16.705 21.1619 16.4536C21.1485 16.2022 21.1872 15.9506 21.2738 15.7266C21.3605 15.5026 21.4917 15.3147 21.6532 15.1836C21.8146 15.0525 22 14.9832 22.1891 14.9834ZM25.2396 25.5961H25.4653V25.0401C25.4643 24.2976 25.6785 23.5834 26.0632 23.0466C26.2491 22.7812 26.4739 22.5696 26.7237 22.4249C26.9735 22.2802 27.2429 22.2055 27.5153 22.2055C27.7876 22.2055 28.057 22.2802 28.3068 22.4249C28.5566 22.5696 28.7814 22.7812 28.9673 23.0466C29.352 23.5834 29.5662 24.2976 29.5652 25.0401V25.5961H29.7909C29.8798 25.5968 29.9648 25.6442 30.0276 25.7279C30.0904 25.8117 30.126 25.9251 30.1265 26.0436V30.7573C30.126 30.8755 30.0904 30.9886 30.0275 31.072C29.9646 31.1553 29.8796 31.2021 29.7909 31.2021H25.2436C25.155 31.2021 25.0699 31.1553 25.0071 31.072C24.9442 30.9886 24.9086 30.8755 24.9081 30.7573V26.0436C24.9086 25.9251 24.9441 25.8117 25.007 25.7279C25.0698 25.6442 25.1548 25.5968 25.2436 25.5961H25.2396ZM27.2407 28.6066L26.8807 29.8677H28.1498L27.8122 28.5903C27.9449 28.4997 28.0506 28.3517 28.1121 28.1706C28.1736 27.9895 28.1872 27.7859 28.1507 27.5931C28.1142 27.4003 28.0298 27.2297 27.9112 27.1092C27.7926 26.9887 27.6469 26.9254 27.4979 26.9296C27.3488 26.9338 27.2052 27.0053 27.0906 27.1324C26.976 27.2595 26.897 27.4347 26.8667 27.6294C26.8364 27.8241 26.8565 28.0267 26.9236 28.2042C26.9908 28.3817 27.1012 28.5235 27.2366 28.6066H27.2407ZM26.1039 25.5961H28.9348V25.0401C28.9365 24.5156 28.7864 24.0104 28.5158 23.6297C28.3883 23.4474 28.2341 23.302 28.0626 23.2026C27.8912 23.1032 27.7063 23.0519 27.5193 23.0519C27.3324 23.0519 27.1474 23.1032 26.976 23.2026C26.8046 23.302 26.6503 23.4474 26.5228 23.6297C26.2522 24.0104 26.1022 24.5156 26.1039 25.0401V25.5961Z" fill="white"/>
<line id="Line 4" x1="40.3841" y1="12.3201" x2="15.3841" y2="42.3201" stroke="white"/>
</g>
</g>
</svg>
