<svg width="175" height="172" viewBox="0 0 175 172" fill="none" xmlns="http://www.w3.org/2000/svg">
<path d="M87.3587 171.448C87.2843 171.465 87.2039 171.481 87.1295 171.5C-15.646 150.066 0.995893 33.9419 0.995893 33.9419L87.1295 0L87.3587 0.0897255L173.263 33.9419C173.263 33.9419 189.881 149.889 87.3587 171.448Z" fill="#F6C90E"/>
<path opacity="0.2" d="M168.207 96.5135C161.972 118.116 149.653 140.724 125.928 156.066C115.443 162.846 102.744 168.212 87.3555 171.446V0.0844727L173.257 33.9339C173.257 33.9339 177.577 64.1042 168.207 96.5135Z" fill="black"/>
<path d="M156.222 92.4673C146.122 128.662 122.884 151.215 87.1292 159.558C51.3739 151.215 28.1366 128.662 18.0365 92.4673C12.2242 71.6473 12.4297 51.7104 13.0341 41.8493L87.1292 12.6492L161.224 41.8493C161.832 51.7022 162.037 71.6391 156.222 92.4673Z" fill="#324134"/>
<path d="M156.218 92.4673C146.118 128.662 122.88 151.215 87.125 159.558V12.6492L161.22 41.8493C161.828 51.7022 162.033 71.6391 156.218 92.4673Z" fill="#324134"/>
</svg>
