<svg width="49" height="54" viewBox="0 0 49 54" fill="none" xmlns="http://www.w3.org/2000/svg">
<path d="M44.009 15.8696H24.6188H5.42458C2.96595 15.8696 0.970703 17.8648 0.970703 20.3206V49.5063C0.970703 51.9649 2.96595 53.9601 5.42458 53.9601H24.6178H44.008C46.4666 53.9601 48.459 51.9649 48.459 49.5063V20.3206C48.46 17.8648 46.4666 15.8696 44.009 15.8696Z" fill="#FDB105"/>
<path d="M24.59 26.392C24.4863 26.3968 24.3835 26.4044 24.2817 26.4158C24.2665 26.4177 24.2522 26.4196 24.237 26.4215C24.138 26.4339 24.0391 26.4472 23.942 26.4653C23.9258 26.4681 23.9097 26.4719 23.8935 26.4748C23.7983 26.4929 23.7032 26.5138 23.61 26.5376C23.5928 26.5423 23.5757 26.5471 23.5576 26.5519C23.4663 26.5766 23.3749 26.6023 23.2855 26.6318C23.2684 26.6375 23.2512 26.6441 23.2332 26.6499C23.1447 26.6803 23.0571 26.7117 22.9706 26.7469C22.9534 26.7545 22.9363 26.7621 22.9192 26.7688C22.8335 26.8049 22.7498 26.842 22.667 26.882C22.649 26.8906 22.6328 26.9001 22.6147 26.9087C22.5329 26.9496 22.453 26.9914 22.374 27.0371C22.3569 27.0466 22.3397 27.058 22.3226 27.0685C22.2446 27.1142 22.1675 27.1617 22.0933 27.2112C22.0762 27.2226 22.0609 27.235 22.0438 27.2455C21.9696 27.2959 21.8963 27.3482 21.825 27.4025C21.8088 27.4148 21.7926 27.4291 21.7765 27.4424C21.707 27.4976 21.6375 27.5528 21.5719 27.6118C21.5548 27.627 21.5386 27.6432 21.5215 27.6584C21.4568 27.7165 21.393 27.7754 21.3321 27.8373C21.314 27.8554 21.2969 27.8754 21.2798 27.8934C21.2217 27.9534 21.1637 28.0143 21.1085 28.0771C21.0885 28.0999 21.0695 28.1246 21.0505 28.1484C20.9991 28.2093 20.9487 28.2693 20.9001 28.333C20.8792 28.3606 20.8602 28.3901 20.8392 28.4187C20.7945 28.4796 20.7498 28.5395 20.7089 28.6023C20.6851 28.6375 20.6642 28.6755 20.6413 28.7117C20.6052 28.7688 20.569 28.8259 20.5348 28.8849C20.5015 28.9448 20.471 29.0057 20.4387 29.0666C20.4196 29.1037 20.3987 29.1399 20.3797 29.1779C20.2741 29.3977 20.1846 29.627 20.1123 29.863C19.9696 30.3254 19.8906 30.8164 19.8906 31.3264C19.8906 31.9896 20.0238 32.6213 20.2598 33.1989C20.5129 33.8173 20.8868 34.374 21.354 34.8373C21.3768 34.8602 21.4025 34.8792 21.4254 34.9011C21.6689 35.1323 21.9325 35.3416 22.2103 35.5138L21.3036 39.3074L20.1371 44.1866H24.6147H29.0419L27.0277 35.7603C27.5367 35.511 27.9915 35.1751 28.3845 34.7698C29.2522 33.8792 29.787 32.6689 29.787 31.3254C29.787 30.5243 29.591 29.7659 29.2522 29.1018C28.8469 28.295 28.2275 27.6146 27.4682 27.136C26.707 26.6565 25.8041 26.3796 24.8336 26.3796C24.8012 26.3796 24.7698 26.3806 24.7375 26.3815C24.7298 26.3815 24.7213 26.3815 24.7137 26.3825C24.6737 26.3853 24.6318 26.3901 24.59 26.392Z" fill="#E96B12"/>
<path d="M44.0063 15.8696H24.6161V21.627C17.4134 21.627 11.5723 27.4672 11.5723 34.6708C11.5723 41.8735 17.4124 47.7146 24.6161 47.7146V53.962H44.0063C46.4649 53.962 48.4573 51.9668 48.4573 49.5082V20.3225C48.4573 17.8648 46.464 15.8696 44.0063 15.8696ZM29.0424 44.1884H20.1375L21.303 39.3093L22.2108 35.5148C21.931 35.3425 21.6694 35.1323 21.4248 34.9011C21.4029 34.8792 21.3763 34.8611 21.3544 34.8392C20.8863 34.3758 20.5143 33.8183 20.2612 33.1989C20.0214 32.6223 19.8901 31.9895 19.8901 31.3273C19.8901 30.8154 19.9681 30.3254 20.1137 29.863C20.186 29.6289 20.2754 29.3996 20.3801 29.1789C20.3991 29.1408 20.4201 29.1056 20.4391 29.0657C20.4714 29.0067 20.5009 28.9448 20.5333 28.8849C20.5685 28.8259 20.6056 28.7688 20.6408 28.7126C20.6627 28.6746 20.6836 28.6375 20.7084 28.6023C20.7483 28.5404 20.795 28.4786 20.8378 28.4196C20.8597 28.3901 20.8777 28.3634 20.8996 28.333C20.9481 28.2711 20.9995 28.2093 21.0509 28.1503C21.0699 28.1256 21.089 28.1018 21.107 28.078C21.1641 28.0162 21.2203 27.9543 21.2793 27.8944C21.2983 27.8753 21.3145 27.8563 21.3335 27.8382C21.3925 27.7764 21.4572 27.7193 21.5219 27.6603C21.5381 27.6441 21.5542 27.628 21.5704 27.6147C21.638 27.5557 21.7074 27.4986 21.7778 27.4453C21.794 27.432 21.8102 27.4186 21.8264 27.4053C21.8968 27.3511 21.9719 27.3007 22.0442 27.2493C22.0604 27.236 22.0766 27.2245 22.0928 27.2141C22.1679 27.1627 22.246 27.117 22.324 27.0713C22.3402 27.0609 22.3563 27.0504 22.3754 27.039C22.4534 26.9933 22.5343 26.9534 22.6151 26.9096C22.6342 26.901 22.6503 26.8906 22.6665 26.883C22.7502 26.843 22.834 26.8049 22.9196 26.7697C22.9386 26.7621 22.9548 26.7536 22.971 26.7478C23.0566 26.7126 23.1461 26.6803 23.2345 26.6508C23.2507 26.6422 23.2669 26.6375 23.2859 26.6318C23.3744 26.6023 23.4658 26.5756 23.558 26.5509C23.5742 26.5461 23.5933 26.5404 23.6094 26.5376C23.7036 26.5138 23.7978 26.4919 23.892 26.4757C23.9082 26.47 23.9244 26.4672 23.9405 26.4653C24.0376 26.4462 24.1375 26.4329 24.2365 26.4224C24.2498 26.4196 24.2659 26.4167 24.2793 26.4167C24.382 26.4034 24.4838 26.3977 24.5885 26.393C24.5961 26.393 24.6075 26.3901 24.6151 26.3901C24.6475 26.3872 24.6827 26.3844 24.715 26.3844H24.7369C24.7693 26.3815 24.8016 26.3815 24.834 26.3815C25.8035 26.3815 26.7084 26.6594 27.4677 27.138C28.2298 27.6175 28.8492 28.2959 29.2526 29.1037C29.5923 29.7688 29.7883 30.5252 29.7883 31.3283C29.7883 32.6717 29.2527 33.8811 28.3859 34.7726C27.9929 35.1789 27.5381 35.5129 27.029 35.7641L29.0424 44.1884Z" fill="#FD9200"/>
<path d="M42.1186 15.8705H36.8892C36.6333 14.1151 36.0034 12.4776 35.0824 11.0485C32.9149 7.66119 29.1366 5.40429 24.834 5.36147C24.7988 5.35862 24.7588 5.3586 24.7151 5.3586C20.3639 5.3586 16.5352 7.63169 14.343 11.0485C13.4277 12.4785 12.7978 14.1151 12.5418 15.8705H7.3125C7.47711 14.1798 7.89386 12.5613 8.51041 11.0485C11.1308 4.66974 17.4067 0.16449 24.7151 0.16449H24.834C32.0957 0.218724 38.3136 4.70685 40.9149 11.0485C41.5315 12.5613 41.9482 14.1798 42.1186 15.8705Z" fill="#F6C90E"/>
<path d="M38.5373 15.8704H36.8865C36.6306 14.115 36.0007 12.4775 35.0797 11.0484C32.9122 7.66109 29.1339 5.40419 24.8313 5.36137C24.7961 5.35852 24.7561 5.3585 24.7124 5.3585C20.3612 5.3585 16.5325 7.63159 14.3403 11.0484C13.425 12.4784 12.7951 14.115 12.5391 15.8704H10.6895C10.8246 14.5184 11.1557 13.2234 11.6504 12.0122C13.7456 6.90942 18.7675 3.30426 24.6134 3.30426H24.7105C30.5183 3.34708 35.4945 6.93987 37.5735 12.0122C38.0692 13.2244 38.4032 14.5193 38.5373 15.8704Z" fill="#F6C90E"/>
</svg>
