<svg width="111" height="190" viewBox="0 0 111 190" fill="none" xmlns="http://www.w3.org/2000/svg">
<path d="M107.332 10.0221V179.678C107.332 184.997 103.021 189.306 97.7035 189.306H13.2179C10.5461 189.306 8.13029 188.219 6.38528 186.463C4.65739 184.721 3.58984 182.325 3.58984 179.678V10.0221C3.58984 4.70329 7.89908 0.394043 13.2179 0.394043H97.7035C99.2753 0.394043 100.76 0.769876 102.071 1.43972C105.194 3.03059 107.332 6.27514 107.332 10.0221Z" fill="#F6C90E"/>
<path d="M107.333 10.022V179.678C107.333 184.997 103.023 189.306 97.7049 189.306H13.2193C10.5475 189.306 8.13173 188.219 6.38672 186.463L102.073 1.43872C105.195 3.03055 107.333 6.2751 107.333 10.022Z" fill="#F6C90E"/>
<path d="M3.59073 48.2888H2.09214C0.974152 48.2888 0.0683594 47.383 0.0683594 46.265V27.8986C0.0683594 26.7806 0.974152 25.8748 2.09214 25.8748H3.59073V48.2888Z" fill="#F6C90E"/>
<path d="M107.332 47.4619H108.558C109.473 47.4619 110.214 46.7207 110.214 45.8063V30.8671C110.214 29.9527 109.473 29.2115 108.558 29.2115H107.332V47.4619Z" fill="#F6C90E"/>
<path d="M3.59073 73.7436H2.09214C0.974152 73.7436 0.0683594 72.8378 0.0683594 71.7198V53.3534C0.0683594 52.2354 0.974152 51.3296 2.09214 51.3296H3.59073V73.7436Z" fill="#F6C90E"/>
<path d="M102.528 9.60246V180.098C102.528 182.531 100.555 184.504 98.1218 184.504H12.7969C10.9824 184.504 9.42583 183.408 8.75028 181.842C8.51811 181.307 8.39062 180.718 8.39062 180.098V9.60246C8.39062 7.16858 10.363 5.19617 12.7969 5.19617H98.1218C98.765 5.19617 99.3758 5.33414 99.9258 5.58247C101.46 6.27134 102.528 7.81178 102.528 9.60246Z" fill="white"/>
<path opacity="0.6" d="M87.3175 30.4133H22.7606C21.8367 30.4133 21.0879 29.6645 21.0879 28.7406C21.0879 27.8167 21.8367 27.0679 22.7606 27.0679H87.3175C88.2414 27.0679 88.9902 27.8167 88.9902 28.7406C88.9902 29.6645 88.2414 30.4133 87.3175 30.4133Z" fill="#D4C7E8"/>
<path opacity="0.6" d="M87.3175 41.7084H22.7606C21.8367 41.7084 21.0879 40.9596 21.0879 40.0357C21.0879 39.1118 21.8367 38.363 22.7606 38.363H87.3175C88.2414 38.363 88.9902 39.1118 88.9902 40.0357C88.9902 40.9596 88.2414 41.7084 87.3175 41.7084Z" fill="#D4C7E8"/>
<path opacity="0.6" d="M87.3175 53.0033H22.7606C21.8367 53.0033 21.0879 52.2545 21.0879 51.3306C21.0879 50.4067 21.8367 49.6579 22.7606 49.6579H87.3175C88.2414 49.6579 88.9902 50.4067 88.9902 51.3306C88.9902 52.2545 88.2414 53.0033 87.3175 53.0033Z" fill="#D4C7E8"/>
<path opacity="0.6" d="M87.3175 138.294H22.7606C21.8367 138.294 21.0879 137.545 21.0879 136.621C21.0879 135.697 21.8367 134.948 22.7606 134.948H87.3175C88.2414 134.948 88.9902 135.697 88.9902 136.621C88.9902 137.545 88.2414 138.294 87.3175 138.294Z" fill="#D4C7E8"/>
<path opacity="0.6" d="M87.3175 149.589H22.7606C21.8367 149.589 21.0879 148.84 21.0879 147.916C21.0879 146.992 21.8367 146.244 22.7606 146.244H87.3175C88.2414 146.244 88.9902 146.992 88.9902 147.916C88.9902 148.84 88.2414 149.589 87.3175 149.589Z" fill="#D4C7E8"/>
<path opacity="0.6" d="M87.3175 160.884H22.7606C21.8367 160.884 21.0879 160.135 21.0879 159.211C21.0879 158.287 21.8367 157.538 22.7606 157.538H87.3175C88.2414 157.538 88.9902 158.287 88.9902 159.211C88.9902 160.135 88.2414 160.884 87.3175 160.884Z" fill="#D4C7E8"/>
<path opacity="0.6" d="M90.5317 73.6313H55.9882L45.8341 67.7388H28.9463C27.0224 67.7388 25.4629 69.2983 25.4629 71.2221V89.345V116.483V118.62C25.4629 120.428 26.9282 121.893 28.736 121.893H30.874H90.0931C90.3186 121.893 90.5393 121.87 90.7524 121.827C92.2443 121.521 93.3661 120.202 93.3661 118.62V89.345V76.4667C93.3661 74.9006 92.0969 73.6313 90.5317 73.6313Z" fill="#D4C7E8"/>
<path d="M41.4551 61.9301H24.5673C22.6434 61.9301 21.084 63.4896 21.084 65.4135V110.673C21.084 113.662 23.5064 116.084 26.4941 116.084H85.7132C87.521 116.084 88.9863 114.618 88.9863 112.81V70.6571C88.9863 69.0919 87.717 67.8226 86.1518 67.8226H51.6103L41.4551 61.9301Z" fill="#FD9200"/>
<path d="M88.9872 112.811V83.5363H21.084V112.811C21.084 114.619 22.5492 116.085 24.357 116.085H85.7141C87.522 116.084 88.9872 114.619 88.9872 112.811Z" fill="#FDB105"/>
<path d="M24.8613 75.7227V83.5353H85.0034V75.7227C85.0034 75.3498 84.7008 75.0462 84.3269 75.0462H25.5369C25.1639 75.0472 24.8613 75.3498 24.8613 75.7227Z" fill="white"/>
<path opacity="0.6" d="M79.908 79.4526V83.5363H77.2695V79.4526C77.2695 78.7266 77.8633 78.1329 78.5883 78.1329C79.3152 78.1329 79.908 78.7266 79.908 79.4526Z" fill="#D4C7E8"/>
<path opacity="0.6" d="M73.9548 79.4526V83.5363H71.3164V79.4526C71.3164 78.7266 71.9101 78.1329 72.6351 78.1329C73.3621 78.1329 73.9548 78.7266 73.9548 79.4526Z" fill="#D4C7E8"/>
<path opacity="0.6" d="M68.0017 79.4526V83.5363H65.3633V79.4526C65.3633 78.7266 65.957 78.1329 66.682 78.1329C67.408 78.1329 68.0017 78.7266 68.0017 79.4526Z" fill="#D4C7E8"/>
<path opacity="0.6" d="M62.0486 79.4526V83.5363H59.4102V79.4526C59.4102 78.7266 60.0039 78.1329 60.7289 78.1329C61.4549 78.1329 62.0486 78.7266 62.0486 79.4526Z" fill="#D4C7E8"/>
<path opacity="0.6" d="M56.0994 79.4526V83.5363H53.4609V79.4526C53.4609 78.7266 54.0546 78.1329 54.7797 78.1329C55.5057 78.1329 56.0994 78.7266 56.0994 79.4526Z" fill="#D4C7E8"/>
<path opacity="0.6" d="M50.1463 79.4526V83.5363H47.5078V79.4526C47.5078 78.7266 48.1016 78.1329 48.8266 78.1329C49.5526 78.1329 50.1463 78.7266 50.1463 79.4526Z" fill="#D4C7E8"/>
<path opacity="0.6" d="M44.1931 79.4526V83.5363H41.5547V79.4526C41.5547 78.7266 42.1484 78.1329 42.8734 78.1329C43.5994 78.1329 44.1931 78.7266 44.1931 79.4526Z" fill="#D4C7E8"/>
<path opacity="0.6" d="M38.24 79.4526V83.5363H35.6016V79.4526C35.6016 78.7266 36.1953 78.1329 36.9213 78.1329C37.6463 78.1329 38.24 78.7266 38.24 79.4526Z" fill="#D4C7E8"/>
<path opacity="0.6" d="M32.2869 79.4526V83.5363H29.6484V79.4526C29.6484 78.7266 30.2421 78.1329 30.9672 78.1329C31.6932 78.1329 32.2869 78.7266 32.2869 79.4526Z" fill="#D4C7E8"/>
<path d="M83.9981 5.04105L80.0733 11.0125C78.9781 12.6786 77.1189 13.6814 75.1256 13.6814H37.1968C35.2034 13.6814 33.3433 12.6786 32.2491 11.0125L28.3242 5.04105C28.3242 4.42259 28.8304 3.91449 29.4508 3.91449H82.8725C83.49 3.91544 83.9981 4.42259 83.9981 5.04105Z" fill="#F6C90E"/>
<path opacity="0.4" d="M69.9145 9.35887H36.3929C36.0133 9.35887 35.7031 9.0487 35.7031 8.66906V7.64716C35.7031 7.26752 36.0133 6.95734 36.3929 6.95734H69.9145C70.2941 6.95734 70.6043 7.26752 70.6043 7.64716V8.66906C70.6043 9.0487 70.2941 9.35887 69.9145 9.35887Z" fill="#D4C7E8"/>
<path opacity="0.4" d="M76.9748 8.07818C76.9748 8.87362 76.3297 9.51871 75.5343 9.51871C74.7388 9.51871 74.0938 8.87362 74.0938 8.07818C74.0938 7.28275 74.7388 6.63764 75.5343 6.63764C76.3297 6.63668 76.9748 7.28275 76.9748 8.07818Z" fill="#D4C7E8"/>
</svg>
