<svg width="141" height="145" viewBox="0 0 141 145" fill="none" xmlns="http://www.w3.org/2000/svg">
<path d="M127.855 42.3298H70.5866H13.8967C6.63515 42.3298 0.742188 47.7076 0.742188 54.3266V132.99C0.742188 139.617 6.63515 144.995 13.8967 144.995H70.5838H127.853C135.114 144.995 140.999 139.617 140.999 132.99V54.3266C141.002 47.7076 135.114 42.3298 127.855 42.3298Z" fill="#F6C90E"/>
<path d="M70.5084 70.6906C70.2021 70.7034 69.8986 70.7239 69.5979 70.7547C69.553 70.7598 69.5108 70.765 69.4658 70.7701C69.1736 70.8034 68.8813 70.8393 68.5947 70.888C68.5469 70.8957 68.4991 70.906 68.4514 70.9137C68.1703 70.9624 67.8893 71.0188 67.6139 71.0829C67.5633 71.0957 67.5128 71.1086 67.4594 71.1214C67.1896 71.1881 66.9198 71.2573 66.6556 71.3368C66.6051 71.3522 66.5545 71.3702 66.5011 71.3855C66.2397 71.4676 65.9812 71.5522 65.7255 71.6471C65.6749 71.6676 65.6243 71.6882 65.5737 71.7061C65.3208 71.8036 65.0735 71.9035 64.829 72.0112C64.7756 72.0343 64.7279 72.06 64.6745 72.0831C64.4328 72.1934 64.1967 72.3062 63.9635 72.4293C63.9129 72.4549 63.8623 72.4857 63.8117 72.5139C63.5813 72.637 63.3537 72.7652 63.1345 72.8986C63.0839 72.9294 63.0389 72.9627 62.9884 72.9909C62.7692 73.1269 62.5528 73.2679 62.342 73.414C62.2942 73.4474 62.2465 73.4859 62.1987 73.5218C61.9936 73.6705 61.7884 73.8192 61.5945 73.9782C61.5439 74.0193 61.4961 74.0629 61.4456 74.1039C61.2545 74.2604 61.0662 74.4193 60.8863 74.586C60.8329 74.6347 60.7824 74.6886 60.7318 74.7374C60.5604 74.8989 60.3889 75.063 60.2259 75.2323C60.1669 75.2939 60.1107 75.3605 60.0545 75.4246C59.9028 75.5887 59.7538 75.7503 59.6105 75.9221C59.5487 75.9965 59.4925 76.0761 59.4307 76.153C59.2986 76.3171 59.1665 76.4787 59.0457 76.6479C58.9754 76.7428 58.9136 76.8454 58.8461 76.9428C58.7394 77.0967 58.6326 77.2506 58.5314 77.4096C58.433 77.5711 58.3431 77.7353 58.2476 77.8994C58.1914 77.9994 58.1295 78.0968 58.0733 78.1994C57.7614 78.7918 57.4972 79.4099 57.2837 80.0459C56.8621 81.2922 56.6289 82.6156 56.6289 83.9901C56.6289 85.7776 57.0223 87.4804 57.7193 89.0371C58.4668 90.704 59.5712 92.2043 60.951 93.4532C61.0184 93.5147 61.0943 93.566 61.1617 93.625C61.8811 94.2482 62.6596 94.8124 63.4801 95.2766L60.802 105.501L57.3567 118.652H70.5815H83.6573L77.7081 95.9407C79.2116 95.2688 80.5549 94.3636 81.7155 93.2711C84.2783 90.8707 85.8577 87.6086 85.8577 83.9876C85.8577 81.8282 85.2788 79.7843 84.2783 77.9943C83.0812 75.8196 81.2518 73.9859 79.0092 72.696C76.7611 71.4035 74.0942 70.6572 71.2278 70.6572C71.1323 70.6572 71.0395 70.6597 70.944 70.6623C70.9215 70.6623 70.8962 70.6623 70.8737 70.6649C70.7557 70.6726 70.6321 70.6854 70.5084 70.6906Z" fill="white"/>
<path d="M127.848 42.3298H70.5796V57.8478C49.3064 57.8478 32.0547 73.5887 32.0547 93.0046C32.0547 112.418 49.3036 128.162 70.5796 128.162V145H127.848C135.11 145 140.994 139.622 140.994 132.996V54.3318C140.994 47.7077 135.107 42.3298 127.848 42.3298ZM83.6525 118.657H57.352L60.7945 105.507L63.4754 95.2793C62.6492 94.8151 61.8764 94.2484 61.1542 93.6252C61.0896 93.5663 61.0109 93.5175 60.9462 93.4585C59.5636 92.2096 58.4648 90.7068 57.7173 89.0373C57.0092 87.4832 56.6214 85.7778 56.6214 83.9929C56.6214 82.6132 56.8518 81.2925 57.2818 80.0461C57.4953 79.4152 57.7595 78.7972 58.0686 78.2022C58.1248 78.0997 58.1866 78.0048 58.2428 77.8971C58.3384 77.7381 58.4255 77.5714 58.521 77.4098C58.625 77.2508 58.7346 77.097 58.8386 76.9457C58.9032 76.8431 58.9651 76.7431 59.0381 76.6482C59.1561 76.4815 59.2938 76.3148 59.4203 76.1558C59.4849 76.0763 59.5383 76.0044 59.603 75.9224C59.7463 75.7557 59.898 75.589 60.0498 75.43C60.106 75.3633 60.1622 75.2993 60.2156 75.2351C60.3842 75.0685 60.55 74.9017 60.7242 74.7401C60.7804 74.6888 60.8282 74.6376 60.8844 74.5889C61.0586 74.4222 61.2497 74.2683 61.4408 74.1093C61.4886 74.0657 61.5364 74.0221 61.5841 73.9862C61.7837 73.8272 61.9888 73.6733 62.1968 73.5297C62.2445 73.4938 62.2923 73.4579 62.3401 73.422C62.548 73.2759 62.77 73.1399 62.9836 73.0015C63.0314 72.9655 63.0792 72.9347 63.1269 72.9065C63.3489 72.768 63.5794 72.645 63.8098 72.5219C63.8576 72.4936 63.9054 72.4654 63.9616 72.4347C64.192 72.3116 64.4309 72.2039 64.6697 72.0859C64.7259 72.0629 64.7737 72.0346 64.8215 72.0141C65.0688 71.9064 65.3161 71.8038 65.569 71.7089C65.6252 71.6884 65.673 71.6653 65.7207 71.6499C65.9737 71.555 66.2378 71.4679 66.4992 71.3884C66.5469 71.3653 66.5947 71.3524 66.6509 71.337C66.9123 71.2575 67.182 71.1858 67.4546 71.1191C67.5024 71.1063 67.5586 71.0908 67.6064 71.0832C67.8846 71.019 68.1628 70.9601 68.441 70.9165C68.4888 70.9011 68.5366 70.8934 68.5843 70.8883C68.871 70.837 69.166 70.8011 69.4583 70.7728C69.4976 70.7651 69.5454 70.7575 69.5848 70.7575C69.8883 70.7216 70.1889 70.7062 70.4981 70.6934C70.5205 70.6934 70.5543 70.6857 70.5768 70.6857C70.6723 70.678 70.7763 70.6703 70.8718 70.6703H70.9365C71.032 70.6626 71.1275 70.6626 71.2231 70.6626C74.0867 70.6626 76.7592 71.4114 79.0017 72.7014C81.2527 73.9939 83.0821 75.8224 84.2736 77.9997C85.2768 79.7923 85.8557 81.831 85.8557 83.9955C85.8557 87.6166 84.2736 90.8761 81.7135 93.279C80.5529 94.374 79.2096 95.2742 77.7062 95.9513L83.6525 118.657Z" fill="#F6C90E"/>
<path d="M122.264 42.3324H106.82C106.064 37.6008 104.203 33.1873 101.483 29.3354C95.0814 20.2058 83.9221 14.1228 71.2145 14.0074C71.1105 13.9997 70.9925 13.9996 70.8632 13.9996C58.0122 13.9996 46.704 20.1263 40.2293 29.3354C37.5259 33.1899 35.6656 37.6008 34.9096 42.3324H19.4648C19.951 37.7752 21.1819 33.413 23.0029 29.3354C30.7421 12.143 49.2781 0 70.8632 0H71.2145C92.6618 0.146177 111.026 12.243 118.709 29.3354C120.53 33.413 121.761 37.7752 122.264 42.3324Z" fill="#F6C90E"/>
<path d="M111.694 42.3322H106.818C106.062 37.6006 104.202 33.1871 101.482 29.3352C95.0801 20.2056 83.9208 14.1226 71.2131 14.0072C71.1092 13.9995 70.9911 13.9994 70.8619 13.9994C58.0109 13.9994 46.7027 20.1261 40.228 29.3352C37.5246 33.1897 35.6643 37.6006 34.9083 42.3322H29.4453C29.8444 38.688 30.8223 35.1977 32.2836 31.9331C38.4716 18.1796 53.3038 8.46265 70.5696 8.46265H70.8562C88.0096 8.57805 102.707 18.2617 108.847 31.9331C110.311 35.2003 111.298 38.6905 111.694 42.3322Z" fill="#F6C90E"/>
</svg>
