<svg width="36" height="37" viewBox="0 0 36 37" fill="none" xmlns="http://www.w3.org/2000/svg">
<path d="M35.3944 18.8604L34.4391 13.3133L29.2421 14.2077C28.755 12.9384 28.0518 11.7472 27.1622 10.6739L30.126 6.47789L25.5285 3.2305L22.6921 7.2467C21.1174 6.52643 19.4447 6.14868 17.773 6.10587L16.8786 0.906982L11.3315 1.86227L12.2535 7.22006C11.2173 7.68247 10.2401 8.28666 9.34669 9.02882L5.15067 6.064L1.90327 10.6615L5.91946 13.4979C5.19919 15.0726 4.82145 16.7453 4.77864 18.4171L0.234375 19.1982L1.18871 24.7453L5.89282 23.9356C6.48274 25.2582 7.29911 26.4894 8.34002 27.5636L5.50271 31.5798L10.1003 34.8272L13.0651 30.6312C14.5884 31.1916 16.1793 31.4418 17.7616 31.399L18.6607 36.6284L24.2078 35.6731L23.2326 30.0042C24.3192 29.4466 25.3325 28.7263 26.2373 27.8491L30.2535 30.6864L33.5009 26.0888L29.3049 23.125C29.7055 22.0355 29.9481 20.9118 30.0375 19.7796L35.3944 18.8604ZM21.6436 21.7349C20.0023 24.0584 16.7768 24.614 14.4533 22.9718C12.1298 21.3305 11.5741 18.105 13.2164 15.7815C14.8577 13.458 18.0832 12.9023 20.4067 14.5436C22.7302 16.1858 23.2859 19.4113 21.6436 21.7349Z" fill="#2D3A2F"/>
</svg>
