<svg width="57" height="61" viewBox="0 0 57 61" fill="none" xmlns="http://www.w3.org/2000/svg">
<path d="M28.7958 60.9819C28.772 60.9876 28.7463 60.9934 28.7225 61C-4.11872 53.4948 1.19909 12.8333 1.19909 12.8333L28.7225 0.948364L28.7958 0.979782L56.246 12.8333C56.246 12.8333 61.5562 53.4329 28.7958 60.9819Z" fill="#F6C90E"/>
<path opacity="0.2" d="M54.6324 34.743C52.64 42.3073 48.7037 50.2236 41.1223 55.5957C37.7722 57.9696 33.7141 59.8488 28.7969 60.981V0.977905L56.2461 12.8305C56.2461 12.8305 57.6267 23.3948 54.6324 34.743Z" fill="black"/>
<path d="M50.8011 33.3263C47.5737 46 40.1484 53.8973 28.723 56.8183C17.2977 53.8973 9.8723 46 6.64489 33.3263C4.7876 26.0361 4.85326 19.055 5.04641 15.6021L28.723 5.37756L52.3996 15.6021C52.5937 19.0522 52.6594 26.0332 50.8011 33.3263Z" fill="#324134"/>
<path d="M50.8008 33.3263C47.5734 46 40.148 53.8973 28.7227 56.8183V5.37756L52.3993 15.6021C52.5934 19.0522 52.659 26.0332 50.8008 33.3263Z" fill="#324134"/>
</svg>
