<svg width="90" height="81" viewBox="0 0 90 81" fill="none" xmlns="http://www.w3.org/2000/svg">
<path d="M48.6403 8.3774C48.0672 7.70625 47.3956 7.37535 46.6175 7.37535C45.8401 7.37535 45.1591 7.70625 44.5954 8.3774L41.5127 11.9758C40.686 11.3496 39.8115 10.8024 38.8972 10.3128C37.9836 9.82322 37.0497 9.40322 36.1064 9.03837V3.50287C36.1064 2.56954 35.8347 1.78384 35.2798 1.13475C34.727 0.485662 34.0561 0.16748 33.2584 0.16748H27.3269C26.5683 0.16748 25.9083 0.485662 25.3345 1.13475C24.7708 1.78384 24.4883 2.56954 24.4883 3.50287V8.57086C23.4972 8.84322 22.5343 9.18516 21.6098 9.60686C20.6774 10.0277 19.7928 10.5071 18.956 11.0416L15.5428 7.10128C15.0081 6.44117 14.3568 6.09923 13.5693 6.09923C12.7904 6.09923 12.1203 6.44117 11.5465 7.10128L7.39506 11.9758C6.82198 12.647 6.53942 13.4335 6.53942 14.3431C6.53942 15.2544 6.82198 16.0519 7.39506 16.7121L10.4684 20.3223C9.93372 21.2896 9.46714 22.3146 9.0491 23.3837C8.63034 24.4545 8.27171 25.549 7.95945 26.6529H3.23424C2.43584 26.6529 1.76494 26.9711 1.21142 27.6202C0.657179 28.2701 0.384766 29.0558 0.384766 29.99V36.9365C0.384766 37.8232 0.657179 38.5987 1.2107 39.2707C1.76422 39.9299 2.43584 40.2609 3.23351 40.2609H7.55952C7.79281 41.4207 8.08406 42.5484 8.44487 43.6302C8.80567 44.7239 9.21357 45.7828 9.67 46.8069L6.30541 50.7354C5.74102 51.3624 5.44977 52.1252 5.44977 53.0483C5.44977 53.9588 5.74102 54.7453 6.30541 55.4173L10.4677 60.3479C11.0408 60.974 11.7117 61.2829 12.4905 61.2829C13.2672 61.2829 13.9475 60.9749 14.5126 60.3479L17.5946 56.6816C18.4206 57.3069 19.2965 57.8533 20.2101 58.3446C21.1244 58.8325 22.0576 59.255 23.0009 59.619V65.1537C23.0009 66.087 23.2733 66.8718 23.8268 67.5201C24.381 68.1709 25.0527 68.4899 25.8496 68.4899H31.7804C32.539 68.4899 33.1997 68.1709 33.7735 67.5201C34.3364 66.8718 34.619 66.087 34.619 65.1537V60.0857C35.6109 59.8133 36.573 59.4714 37.4967 59.0488C38.4306 58.628 39.3355 58.1486 40.2093 57.614L43.5637 61.5552C44.0991 62.2154 44.7592 62.5573 45.5583 62.5573C46.3639 62.5573 47.0254 62.2162 47.5615 61.5552L51.7716 56.6816C52.3063 56.0087 52.57 55.223 52.57 54.3126C52.57 53.4022 52.307 52.6046 51.7716 51.9445L48.641 48.3342C49.1757 47.3661 49.6423 46.3419 50.0611 45.272C50.4777 44.2021 50.8377 43.1075 51.1493 42.0036H55.8752C56.6722 42.0036 57.3423 41.6829 57.8959 41.0355C58.4508 40.3856 58.7232 39.6007 58.7232 38.6666V31.7209C58.7232 30.8325 58.4508 30.0595 57.8959 29.3858C57.3423 28.7257 56.6722 28.3957 55.8752 28.3957H51.5478C51.3145 27.2799 51.0225 26.1642 50.6624 25.0603C50.3031 23.9437 49.8937 22.8966 49.4373 21.9158L52.8026 17.9203C53.3663 17.2941 53.6582 16.5305 53.6582 15.609C53.6582 14.6969 53.367 13.9121 52.8026 13.2401L48.6403 8.3774ZM81.4697 45.6878C81.1031 45.3865 80.7134 45.2813 80.291 45.3687C79.8686 45.4544 79.5252 45.709 79.276 46.1358L77.8936 48.4284C77.3951 48.1806 76.8778 47.9821 76.3403 47.8166C75.8063 47.652 75.2651 47.5256 74.7239 47.4339L74.2776 44.432C74.2015 43.9263 73.9914 43.5301 73.6371 43.239C73.285 42.948 72.8952 42.8496 72.4627 42.9387L69.2452 43.5954C68.8351 43.6794 68.5026 43.9263 68.2432 44.3412C67.9896 44.7544 67.8991 45.2126 67.9759 45.72L68.3845 48.4674C67.8679 48.7245 67.3738 49.0172 66.9087 49.3481C66.4349 49.6807 65.9936 50.0371 65.5843 50.4206L63.4144 48.6617C63.0695 48.363 62.6906 48.251 62.2624 48.3367C61.84 48.4241 61.5046 48.6821 61.2467 49.1037L59.3891 52.2083C59.1326 52.636 59.042 53.0942 59.1159 53.5854C59.1898 54.0818 59.4072 54.4823 59.7716 54.7767L61.7299 56.3948C61.5184 56.9777 61.3481 57.5843 61.2076 58.2139C61.0663 58.8401 60.9591 59.4731 60.8801 60.1069L58.3168 60.6295C57.885 60.7178 57.5466 60.9655 57.2981 61.3796C57.0489 61.792 56.9663 62.2493 57.0417 62.755L57.6017 66.5231C57.6734 67.0033 57.8828 67.3937 58.2393 67.6966C58.5921 67.9935 58.9833 68.0987 59.4159 68.0097L61.7625 67.5311C61.9828 68.1361 62.232 68.7139 62.5146 69.2612C62.7986 69.8144 63.105 70.3421 63.4361 70.847L61.9284 73.3517C61.6727 73.7547 61.5771 74.1993 61.651 74.7008C61.7249 75.1955 61.9451 75.5892 62.3059 75.8904L64.9612 78.1024C65.3227 78.3781 65.7118 78.4723 66.1335 78.3857C66.5558 78.3001 66.9007 78.0557 67.155 77.6544L68.5308 75.3244C69.0293 75.573 69.5473 75.7724 70.0842 75.9362C70.6189 76.1008 71.1593 76.2272 71.6998 76.318L72.1476 79.3216C72.2229 79.8282 72.4345 80.2236 72.7873 80.5129C73.1394 80.8048 73.5299 80.9032 73.9617 80.815L77.1778 80.1574C77.59 80.0725 77.9226 79.8273 78.182 79.4116C78.4348 78.9975 78.5254 78.5419 78.4486 78.0336L78.0392 75.2837C78.5558 75.0266 79.0506 74.7356 79.5172 74.4038C79.9889 74.0704 80.4402 73.7132 80.872 73.3262L83.01 75.0919C83.3542 75.3906 83.7403 75.5018 84.1721 75.4127C84.6097 75.3244 84.9408 75.0656 85.1778 74.6482L87.068 71.5385C87.3027 71.1143 87.3831 70.6595 87.3085 70.1656C87.2353 69.671 87.0281 69.2671 86.6854 68.9693L84.6945 67.358C84.9075 66.7743 85.0771 66.1676 85.2176 65.5389C85.3582 64.9127 85.4654 64.2797 85.5451 63.6451L88.1077 63.1224C88.5402 63.0341 88.8778 62.7881 89.1256 62.3732C89.3748 61.9591 89.4581 61.5043 89.3828 60.9978L88.8213 57.2297C88.7496 56.7486 88.5395 56.36 88.1844 56.0554C87.8316 55.7576 87.4404 55.654 87.0079 55.7423L84.6612 56.2217C84.4446 55.6413 84.1961 55.0694 83.9113 54.5103C83.6252 53.9443 83.3201 53.4217 82.9934 52.9406L84.496 50.3994C84.7518 49.9964 84.8467 49.5526 84.7713 49.0503C84.6981 48.5556 84.4779 48.1636 84.1164 47.8616L81.4697 45.6878ZM72.2265 55.2586C73.0025 55.0991 73.761 55.1212 74.5065 55.3223C75.2492 55.531 75.9215 55.8797 76.5185 56.3668C77.1162 56.8606 77.6219 57.4834 78.0407 58.2317C78.4558 58.986 78.729 59.8142 78.8659 60.7229C79.0014 61.6325 78.9818 62.5208 78.8108 63.3956C78.6326 64.2636 78.3363 65.0493 77.9175 65.751C77.4958 66.4493 76.9655 67.0424 76.3265 67.5328C75.6824 68.019 74.9753 68.3397 74.1986 68.4992C73.4234 68.657 72.6649 68.6341 71.9179 68.4339C71.1753 68.2252 70.5051 67.8781 69.906 67.3886C69.3104 66.8947 68.8033 66.2737 68.3845 65.5253C67.9701 64.771 67.6948 63.942 67.56 63.0333C67.4238 62.1254 67.4426 61.2371 67.6143 60.3623C67.7926 59.4926 68.0903 58.7069 68.5062 58.0052C68.9286 57.3086 69.4597 56.7146 70.0987 56.2242C70.7442 55.738 71.4513 55.4173 72.2265 55.2586ZM29.5547 20.7211C31.1494 20.7211 32.6556 21.075 34.0843 21.78C35.5051 22.4979 36.7404 23.4651 37.7902 24.6827C38.8298 25.9122 39.6558 27.3605 40.2687 29.021C40.8722 30.6951 41.1729 32.4608 41.1729 34.3274C41.1729 36.1949 40.8722 37.9606 40.2687 39.6338C39.6558 41.296 38.8298 42.7444 37.7902 43.9738C36.7404 45.1922 35.5051 46.1587 34.0843 46.8765C32.6556 47.5833 31.1494 47.9354 29.5547 47.9354C27.9601 47.9354 26.4524 47.5833 25.023 46.8765C23.6044 46.1587 22.3684 45.1922 21.3193 43.9738C20.2782 42.7444 19.4522 41.2969 18.8393 39.6338C18.2373 37.9606 17.9351 36.1949 17.9351 34.3274C17.9351 32.4608 18.2373 30.6951 18.8393 29.021C19.4522 27.3597 20.2782 25.9122 21.3193 24.6827C22.3684 23.4651 23.6044 22.497 25.023 21.78C26.4517 21.075 27.9601 20.7211 29.5547 20.7211Z" fill="white"/>
</svg>
