<svg width="20" height="21" viewBox="0 0 20 21" fill="none" xmlns="http://www.w3.org/2000/svg">
<path d="M19.2142 10.558L18.6918 7.52654L15.8516 8.01561C15.5852 7.32103 15.2008 6.67022 14.7146 6.08411L16.334 3.79104L13.8212 2.01651L12.2712 4.21158C11.4111 3.81767 10.4967 3.6112 9.5833 3.58836L9.09519 0.747253L6.06378 1.26963L6.56806 4.19732C6.00193 4.45042 5.46815 4.77963 4.97909 5.18591L2.68603 3.56554L0.911517 6.07839L3.10658 7.62835C2.71362 8.48848 2.5062 9.40287 2.48336 10.3163L0 10.7435L0.521411 13.7759L3.09136 13.3334C3.41391 14.0556 3.86015 14.7283 4.42914 15.3163L2.87822 17.5114L5.39108 19.2859L7.01145 16.9928C7.84399 17.2992 8.71365 17.4362 9.57759 17.4124L10.0695 20.2707L13.1009 19.7483L12.5681 16.6503C13.1618 16.3458 13.7165 15.9519 14.2103 15.4724L16.4054 17.0232L18.1799 14.5104L15.8868 12.891C16.1057 12.2954 16.2379 11.6817 16.2874 11.0632L19.2142 10.558ZM11.6994 12.1298C10.8021 13.4 9.04 13.7036 7.76978 12.8063C6.50051 11.9091 6.19698 10.1469 7.09423 8.8767C7.99147 7.60647 9.75361 7.3039 11.0238 8.2002C12.2931 9.09744 12.5966 10.8596 11.6994 12.1298Z" fill="#2D3A2F"/>
</svg>
