<svg width="110" height="149" viewBox="0 0 110 149" fill="none" xmlns="http://www.w3.org/2000/svg">
<g id="Group">
<path id="Vector" d="M19.4291 131.141C19.0067 128.355 16.2705 128.038 14.6057 130.476C12.9409 132.914 13.7185 136.183 13.7185 136.183C13.7185 136.183 20.0302 135.113 19.4291 131.141Z" fill="white" stroke="#F6C90E" stroke-miterlimit="10" stroke-linecap="round" stroke-linejoin="round"/>
<path id="Vector_2" d="M41.1368 140.361C42.7286 138.227 45.2133 139.601 45.5647 142.692C45.9161 145.782 43.8059 148.118 43.8059 148.118C43.8059 148.118 38.8691 143.4 41.1368 140.361Z" fill="white" stroke="#F6C90E" stroke-miterlimit="10" stroke-linecap="round" stroke-linejoin="round"/>
<path id="Vector_3" d="M38.0263 40.9576C29.6694 41.5265 20.6538 37.499 16.1278 34.0979C9.8255 29.3639 1 29.8055 1 50.6535C1 71.5016 1 131.571 1 131.571L54.3639 87.6875" stroke="#F6C90E" stroke-miterlimit="10" stroke-linecap="round" stroke-linejoin="round"/>
<g id="Group_2">
<g id="Clip path group">
<mask id="mask0_566_300" style="mask-type:luminance" maskUnits="userSpaceOnUse" x="1" y="44" width="40" height="88">
<g id="SVGID_00000178193990674130577800000002160075351899365001_">
<path id="Vector_4" d="M1.00193 51.9102L8.6407 44.7671C8.6407 44.7671 13.0112 51.8753 25.7521 54.8224C38.4949 57.7696 40.3038 99.25 40.3038 99.25L1 131.571L1 51.9102H1.00193Z" fill="white"/>
</g>
</mask>
<g mask="url(#mask0_566_300)">
<path id="Vector_5" d="M6.75693 42.3601H1L1 134.814H6.75693L6.75693 42.3601Z" fill="#F6C90E"/>
</g>
</g>
<g id="Clip path group_2">
<mask id="mask1_566_300" style="mask-type:luminance" maskUnits="userSpaceOnUse" x="1" y="44" width="40" height="88">
<g id="SVGID_00000178193990674130577800000002160075351899365001__2">
<path id="Vector_6" d="M1.00193 51.9102L8.6407 44.7671C8.6407 44.7671 13.0112 51.8753 25.7521 54.8224C38.4949 57.7696 40.3038 99.25 40.3038 99.25L1 131.571L1 51.9102H1.00193Z" fill="white"/>
</g>
</mask>
<g mask="url(#mask1_566_300)">
<path id="Vector_7" d="M14.3995 40.1912H8.64258L8.64258 128.547H14.3995L14.3995 40.1912Z" fill="#F6C90E"/>
</g>
</g>
<g id="Clip path group_3">
<mask id="mask2_566_300" style="mask-type:luminance" maskUnits="userSpaceOnUse" x="1" y="44" width="40" height="88">
<g id="SVGID_00000178193990674130577800000002160075351899365001__3">
<path id="Vector_8" d="M1.00193 51.9102L8.6407 44.7671C8.6407 44.7671 13.0112 51.8753 25.7521 54.8224C38.4949 57.7696 40.3038 99.25 40.3038 99.25L1 131.571L1 51.9102H1.00193Z" fill="white"/>
</g>
</mask>
<g mask="url(#mask2_566_300)">
<path id="Vector_9" d="M22.0382 50.6543H16.2812L16.2812 136.131H22.0382L22.0382 50.6543Z" fill="#F6C90E"/>
</g>
</g>
<g id="Clip path group_4">
<mask id="mask3_566_300" style="mask-type:luminance" maskUnits="userSpaceOnUse" x="1" y="44" width="40" height="88">
<g id="SVGID_00000178193990674130577800000002160075351899365001__4">
<path id="Vector_10" d="M1.00193 51.9102L8.6407 44.7671C8.6407 44.7671 13.0112 51.8753 25.7521 54.8224C38.4949 57.7696 40.3038 99.25 40.3038 99.25L1 131.571L1 51.9102H1.00193Z" fill="white"/>
</g>
</mask>
<g mask="url(#mask3_566_300)">
<path id="Vector_11" d="M29.6729 50.6541H23.916L23.916 136.131H29.6729L29.6729 50.6541Z" fill="#F6C90E"/>
</g>
</g>
<g id="Clip path group_5">
<mask id="mask4_566_300" style="mask-type:luminance" maskUnits="userSpaceOnUse" x="1" y="44" width="40" height="88">
<g id="SVGID_00000178193990674130577800000002160075351899365001__5">
<path id="Vector_12" d="M1.00193 51.9102L8.6407 44.7671C8.6407 44.7671 13.0112 51.8753 25.7521 54.8224C38.4949 57.7696 40.3038 99.25 40.3038 99.25L1 131.571L1 51.9102H1.00193Z" fill="white"/>
</g>
</mask>
<g mask="url(#mask4_566_300)">
<path id="Vector_13" d="M37.3097 50.6538H31.5527L31.5527 136.131H37.3097L37.3097 50.6538Z" fill="#F6C90E"/>
</g>
</g>
</g>
<g id="Group_3">
<path id="Vector_14" d="M39.0815 141.035L21.4785 133.66L36.9731 83.2637L54.576 90.6388L39.0815 141.035Z" fill="white"/>
<g id="Clip path group_6">
<mask id="mask5_566_300" style="mask-type:luminance" maskUnits="userSpaceOnUse" x="21" y="83" width="34" height="59">
<g id="XMLID_00000028284568181831632850000017409584890261404577_">
<path id="Vector_15" d="M39.0815 141.034L21.4785 133.658L36.9731 83.2625L54.576 90.6376L39.0815 141.034Z" fill="white"/>
</g>
</mask>
<g mask="url(#mask5_566_300)">
<path id="Vector_16" d="M33.6822 89.5769L33.5996 102.413L40.3529 94.8878L39.7941 105.957L47.2982 98.794L45.6007 110.081L53.7058 103.396" stroke="#F6C90E" stroke-miterlimit="10" stroke-linecap="round" stroke-linejoin="round"/>
</g>
</g>
<g id="Clip path group_7">
<mask id="mask6_566_300" style="mask-type:luminance" maskUnits="userSpaceOnUse" x="21" y="83" width="34" height="59">
<g id="XMLID_00000028284568181831632850000017409584890261404577__2">
<path id="Vector_17" d="M39.0815 141.034L21.4785 133.658L36.9731 83.2625L54.576 90.6376L39.0815 141.034Z" fill="white"/>
</g>
</mask>
<g mask="url(#mask6_566_300)">
<path id="Vector_18" d="M25.7461 112.149L33.3078 104.998V114.856L39.4024 108.106L38.6171 118.526L44.9402 112.583L45.0881 125.275" stroke="#F6C90E" stroke-miterlimit="10" stroke-linecap="round" stroke-linejoin="round"/>
</g>
</g>
<g id="Clip path group_8">
<mask id="mask7_566_300" style="mask-type:luminance" maskUnits="userSpaceOnUse" x="21" y="83" width="34" height="59">
<g id="XMLID_00000028284568181831632850000017409584890261404577__3">
<path id="Vector_19" d="M39.0815 141.034L21.4785 133.658L36.9731 83.2625L54.576 90.6376L39.0815 141.034Z" fill="white"/>
</g>
</mask>
<g mask="url(#mask7_566_300)">
<path id="Vector_20" d="M26.4414 110.653L27.3151 124.191L32.6571 117.224L32.947 127.881L38.2966 120.5L39.7425 130.919L47.3944 123.54" stroke="#F6C90E" stroke-miterlimit="10" stroke-linecap="round" stroke-linejoin="round"/>
</g>
</g>
<g id="Clip path group_9">
<mask id="mask8_566_300" style="mask-type:luminance" maskUnits="userSpaceOnUse" x="21" y="83" width="34" height="59">
<g id="XMLID_00000028284568181831632850000017409584890261404577__4">
<path id="Vector_21" d="M39.0815 141.034L21.4785 133.658L36.9731 83.2625L54.576 90.6376L39.0815 141.034Z" fill="white"/>
</g>
</mask>
<g mask="url(#mask8_566_300)">
<path id="Vector_22" d="M18.0371 135.212L26.8085 126.576L26.6203 138.381L33.0241 129.834L33.3121 140.443L39.3645 132.655L39.0784 141.032" stroke="#F6C90E" stroke-miterlimit="10" stroke-linecap="round" stroke-linejoin="round"/>
</g>
</g>
<path id="Vector_23" d="M39.0815 141.035L21.4785 133.66L36.9731 83.2637L54.576 90.6388L39.0815 141.035Z" stroke="#F6C90E" stroke-miterlimit="10" stroke-linecap="round" stroke-linejoin="round"/>
</g>
<path id="Vector_24" d="M58.7467 129.618C58.2359 123.756 56.2063 101.835 56.2063 101.835H55.035H54.841H53.6716C53.6716 101.835 51.642 123.756 51.1312 129.618C50.6205 135.479 53.447 137.432 54.914 139.167H54.8679C56.3368 137.432 59.2574 135.479 58.7467 129.618Z" fill="#F6C90E"/>
<path id="Vector_25" d="M48.8952 129.253C49.9916 123.503 53.9779 101.951 53.9779 101.951L52.8661 101.52L52.6818 101.448L51.57 101.017C51.57 101.017 43.7318 121.077 41.6657 126.452C39.5995 131.826 41.7559 134.72 42.6814 136.907L42.6373 136.891C44.4999 135.784 47.7987 135.001 48.8952 129.253Z" fill="#F6C90E"/>
<g id="Group_4">
<path id="Vector_26" d="M40.5374 145.063C40.4433 145.063 40.3492 145.057 40.2532 145.047C34.9938 144.464 24.6248 141.028 18.0405 135.214C16.731 134.058 16.4737 131.883 17.4626 130.355C18.4534 128.827 20.316 128.525 21.6236 129.681C26.9771 134.407 36.2074 137.631 40.8139 138.142C42.448 138.323 43.6461 140.015 43.4906 141.923C43.3466 143.718 42.0524 145.063 40.5374 145.063Z" fill="white" stroke="#F6C90E" stroke-miterlimit="10" stroke-linecap="round" stroke-linejoin="round"/>
</g>
<path id="Vector_27" d="M31.6153 140.73C30.9106 142.776 27.4735 144.333 27.4735 144.333C27.4735 144.333 25.9201 140.431 26.6248 138.385C27.3295 136.34 28.6487 136.28 30.0274 136.929C31.4061 137.578 32.32 138.685 31.6153 140.73Z" fill="white" stroke="#F6C90E" stroke-miterlimit="10" stroke-linecap="round" stroke-linejoin="round"/>
<path id="Vector_28" d="M90.4722 131.141C90.8947 128.354 93.6309 128.038 95.2957 130.476C96.9605 132.914 96.1809 136.183 96.1809 136.183C96.1809 136.183 89.8693 135.113 90.4722 131.141Z" fill="white" stroke="#F6C90E" stroke-miterlimit="10" stroke-linecap="round" stroke-linejoin="round"/>
<path id="Vector_29" d="M68.7682 140.361C67.1763 138.227 64.6916 139.601 64.3403 142.692C63.9889 145.782 66.0991 148.118 66.0991 148.118C66.0991 148.118 71.0359 143.4 68.7682 140.361Z" fill="white" stroke="#F6C90E" stroke-miterlimit="10" stroke-linecap="round" stroke-linejoin="round"/>
<path id="Vector_30" d="M71.8707 40.9576C80.2277 41.5265 89.2433 37.499 93.7693 34.0979C100.072 29.3639 108.897 29.8055 108.897 50.6535C108.897 71.5016 108.897 131.571 108.897 131.571L55.5332 87.6875" stroke="#F6C90E" stroke-miterlimit="10" stroke-linecap="round" stroke-linejoin="round"/>
<g id="Group_5">
<g id="Clip path group_10">
<mask id="mask9_566_300" style="mask-type:luminance" maskUnits="userSpaceOnUse" x="69" y="44" width="40" height="88">
<g id="SVGID_00000139973617607695301170000007352530336652441486_">
<path id="Vector_31" d="M108.888 51.9146L101.249 44.7715C101.249 44.7715 96.8785 51.8796 84.1376 54.8268C71.3948 57.774 69.5859 99.2544 69.5859 99.2544L108.89 131.575L108.89 51.9146H108.888Z" fill="white"/>
</g>
</mask>
<g mask="url(#mask9_566_300)">
<path id="Vector_32" d="M108.894 42.3643H103.137L103.137 134.818H108.894L108.894 42.3643Z" fill="#F6C90E"/>
</g>
</g>
<g id="Clip path group_11">
<mask id="mask10_566_300" style="mask-type:luminance" maskUnits="userSpaceOnUse" x="69" y="44" width="40" height="88">
<g id="SVGID_00000139973617607695301170000007352530336652441486__2">
<path id="Vector_33" d="M108.888 51.9146L101.249 44.7715C101.249 44.7715 96.8785 51.8796 84.1376 54.8268C71.3948 57.774 69.5859 99.2544 69.5859 99.2544L108.89 131.575L108.89 51.9146H108.888Z" fill="white"/>
</g>
</mask>
<g mask="url(#mask10_566_300)">
<path id="Vector_34" d="M101.255 40.1929H95.498L95.498 128.549H101.255L101.255 40.1929Z" fill="#F6C90E"/>
</g>
</g>
<g id="Clip path group_12">
<mask id="mask11_566_300" style="mask-type:luminance" maskUnits="userSpaceOnUse" x="69" y="44" width="40" height="88">
<g id="SVGID_00000139973617607695301170000007352530336652441486__3">
<path id="Vector_35" d="M108.888 51.9146L101.249 44.7715C101.249 44.7715 96.8785 51.8796 84.1376 54.8268C71.3948 57.774 69.5859 99.2544 69.5859 99.2544L108.89 131.575L108.89 51.9146H108.888Z" fill="white"/>
</g>
</mask>
<g mask="url(#mask11_566_300)">
<path id="Vector_36" d="M93.6143 50.6567H87.8574L87.8574 136.133H93.6143L93.6143 50.6567Z" fill="#F6C90E"/>
</g>
</g>
<g id="Clip path group_13">
<mask id="mask12_566_300" style="mask-type:luminance" maskUnits="userSpaceOnUse" x="69" y="44" width="40" height="88">
<g id="SVGID_00000139973617607695301170000007352530336652441486__4">
<path id="Vector_37" d="M108.888 51.9146L101.249 44.7715C101.249 44.7715 96.8785 51.8796 84.1376 54.8268C71.3948 57.774 69.5859 99.2544 69.5859 99.2544L108.89 131.575L108.89 51.9146H108.888Z" fill="white"/>
</g>
</mask>
<g mask="url(#mask12_566_300)">
<path id="Vector_38" d="M85.9718 50.6567H80.2148L80.2148 136.133H85.9718L85.9718 50.6567Z" fill="#F6C90E"/>
</g>
</g>
<g id="Clip path group_14">
<mask id="mask13_566_300" style="mask-type:luminance" maskUnits="userSpaceOnUse" x="69" y="44" width="40" height="88">
<g id="SVGID_00000139973617607695301170000007352530336652441486__5">
<path id="Vector_39" d="M108.888 51.9146L101.249 44.7715C101.249 44.7715 96.8785 51.8796 84.1376 54.8268C71.3948 57.774 69.5859 99.2544 69.5859 99.2544L108.89 131.575L108.89 51.9146H108.888Z" fill="white"/>
</g>
</mask>
<g mask="url(#mask13_566_300)">
<path id="Vector_40" d="M78.3331 50.6567H72.5762L72.5762 136.133H78.3331L78.3331 50.6567Z" fill="#F6C90E"/>
</g>
</g>
</g>
<g id="Group_6">
<path id="Vector_41" d="M70.8168 141.036L88.4178 133.661L72.9233 83.2646L55.3223 90.6398L70.8168 141.036Z" fill="white"/>
<g id="Clip path group_15">
<mask id="mask14_566_300" style="mask-type:luminance" maskUnits="userSpaceOnUse" x="55" y="83" width="34" height="59">
<g id="XMLID_00000011033416577606071350000009608683370589425795_">
<path id="Vector_42" d="M70.8168 141.035L88.4178 133.66L72.9233 83.2642L55.3223 90.6393L70.8168 141.035Z" fill="white"/>
</g>
</mask>
<g mask="url(#mask14_566_300)">
<path id="Vector_43" d="M76.2189 89.5776L76.3015 102.413L69.5482 94.8885L70.107 105.958L62.6029 98.7947L64.3004 110.082L56.1953 103.397" stroke="#F6C90E" stroke-miterlimit="10" stroke-linecap="round" stroke-linejoin="round"/>
</g>
</g>
<g id="Clip path group_16">
<mask id="mask15_566_300" style="mask-type:luminance" maskUnits="userSpaceOnUse" x="55" y="83" width="34" height="59">
<g id="XMLID_00000011033416577606071350000009608683370589425795__2">
<path id="Vector_44" d="M70.8168 141.035L88.4178 133.66L72.9233 83.2642L55.3223 90.6393L70.8168 141.035Z" fill="white"/>
</g>
</mask>
<g mask="url(#mask15_566_300)">
<path id="Vector_45" d="M84.1466 112.151L76.583 105V114.857L70.4903 108.107L71.2757 118.527L64.9525 112.584L64.8047 125.276" stroke="#F6C90E" stroke-miterlimit="10" stroke-linecap="round" stroke-linejoin="round"/>
</g>
</g>
<g id="Clip path group_17">
<mask id="mask16_566_300" style="mask-type:luminance" maskUnits="userSpaceOnUse" x="55" y="83" width="34" height="59">
<g id="XMLID_00000011033416577606071350000009608683370589425795__3">
<path id="Vector_46" d="M70.8168 141.035L88.4178 133.66L72.9233 83.2642L55.3223 90.6393L70.8168 141.035Z" fill="white"/>
</g>
</mask>
<g mask="url(#mask16_566_300)">
<path id="Vector_47" d="M83.4667 110.654L82.593 124.192L77.251 117.226L76.9611 127.882L71.6115 120.501L70.1656 130.92L62.5137 123.541" stroke="#F6C90E" stroke-miterlimit="10" stroke-linecap="round" stroke-linejoin="round"/>
</g>
</g>
<g id="Clip path group_18">
<mask id="mask17_566_300" style="mask-type:luminance" maskUnits="userSpaceOnUse" x="55" y="83" width="34" height="59">
<g id="XMLID_00000011033416577606071350000009608683370589425795__4">
<path id="Vector_48" d="M70.8168 141.035L88.4178 133.66L72.9233 83.2642L55.3223 90.6393L70.8168 141.035Z" fill="white"/>
</g>
</mask>
<g mask="url(#mask17_566_300)">
<path id="Vector_49" d="M91.8606 135.214L83.0893 126.578L83.2775 138.383L76.8736 129.835L76.5837 140.445L70.5332 132.657L70.8193 141.034" stroke="#F6C90E" stroke-miterlimit="10" stroke-linecap="round" stroke-linejoin="round"/>
</g>
</g>
<path id="Vector_50" d="M70.8168 141.036L88.4178 133.661L72.9233 83.2646L55.3223 90.6398L70.8168 141.036Z" stroke="#F6C90E" stroke-miterlimit="10" stroke-linecap="round" stroke-linejoin="round"/>
</g>
<path id="Vector_51" d="M60.9987 129.253C59.9023 123.503 55.916 101.951 55.916 101.951L57.0278 101.52L57.2121 101.448L58.3239 101.017C58.3239 101.017 66.1621 121.077 68.2282 126.452C70.2943 131.826 68.138 134.72 67.2124 136.907L67.2566 136.891C65.394 135.784 62.0951 135.001 60.9987 129.253Z" fill="#F6C90E"/>
<path id="Vector_52" d="M55.0416 49.3071H54.8553C40.8413 56.8343 25.752 54.8791 25.752 54.8791C25.752 54.8791 30.5353 97.7889 54.8553 108.543H55.0416C79.3636 97.791 84.145 54.8791 84.145 54.8791C84.145 54.8791 69.0556 56.8322 55.0416 49.3071Z" fill="white" stroke="#F6C90E" stroke-width="0.5" stroke-miterlimit="10" stroke-linecap="round" stroke-linejoin="round"/>
<g id="Group_7">
<path id="Vector_53" d="M54.949 105.706C36.5786 96.8112 30.2554 67.4554 28.6367 57.7208C29.1686 57.7373 29.7581 57.7496 30.3994 57.7496C35.5359 57.7496 45.4095 57.0123 54.9509 52.1902C64.4923 57.0123 74.3658 57.7496 79.5023 57.7496C80.1417 57.7496 80.7312 57.7393 81.2631 57.7208C79.6329 67.4575 73.2905 96.8235 54.949 105.706Z" fill="white"/>
<g id="Clip path group_19">
<mask id="mask18_566_300" style="mask-type:luminance" maskUnits="userSpaceOnUse" x="28" y="52" width="54" height="54">
<g id="XMLID_00000045621093110170763570000008911734328297200299_">
<path id="Vector_54" d="M54.9431 105.705C36.5727 96.8107 30.2496 67.455 28.6309 57.7204C29.1627 57.7368 29.7522 57.7491 30.3936 57.7491C35.5301 57.7491 45.4037 57.0118 54.945 52.1897C64.4864 57.0118 74.3599 57.7491 79.4964 57.7491C80.1358 57.7491 80.7254 57.7388 81.2573 57.7204C79.627 67.457 73.2847 96.823 54.9431 105.705Z" fill="white"/>
</g>
</mask>
<g mask="url(#mask18_566_300)">
<path id="Vector_55" d="M45.9861 50.2024H28.0586L28.0586 109.886H45.9861L45.9861 50.2024Z" fill="#F6C90E"/>
</g>
</g>
<g id="Clip path group_20">
<mask id="mask19_566_300" style="mask-type:luminance" maskUnits="userSpaceOnUse" x="28" y="52" width="54" height="54">
<g id="XMLID_00000045621093110170763570000008911734328297200299__2">
<path id="Vector_56" d="M54.9431 105.705C36.5727 96.8107 30.2496 67.455 28.6309 57.7204C29.1627 57.7368 29.7522 57.7491 30.3936 57.7491C35.5301 57.7491 45.4037 57.0118 54.945 52.1897C64.4864 57.0118 74.3599 57.7491 79.4964 57.7491C80.1358 57.7491 80.7254 57.7388 81.2573 57.7204C79.627 67.457 73.2847 96.823 54.9431 105.705Z" fill="white"/>
</g>
</mask>
<g mask="url(#mask19_566_300)">
<path id="Vector_57" d="M81.613 50.2026H63.6855L63.6855 109.886H81.613V50.2026Z" fill="#F6C90E"/>
</g>
</g>
<path id="Vector_58" d="M54.949 105.706C36.5786 96.8112 30.2554 67.4554 28.6367 57.7208C29.1686 57.7373 29.7581 57.7496 30.3994 57.7496C35.5359 57.7496 45.4095 57.0123 54.9509 52.1902C64.4923 57.0123 74.3658 57.7496 79.5023 57.7496C80.1417 57.7496 80.7312 57.7393 81.2631 57.7208C79.6329 67.4575 73.2905 96.8235 54.949 105.706Z" stroke="#F6C90E" stroke-width="0.5" stroke-miterlimit="10" stroke-linecap="round" stroke-linejoin="round"/>
</g>
<g id="Group_8">
<path id="Vector_59" d="M54.949 105.706C36.5786 96.8112 30.2554 67.4554 28.6367 57.7208C29.1686 57.7373 29.7581 57.7496 30.3994 57.7496C35.5359 57.7496 45.4095 57.0123 54.9509 52.1902C64.4923 57.0123 74.3658 57.7496 79.5023 57.7496C80.1417 57.7496 80.7312 57.7393 81.2631 57.7208C79.6329 67.4575 73.2905 96.8235 54.949 105.706Z" fill="white"/>
<g id="Clip path group_21">
<mask id="mask20_566_300" style="mask-type:luminance" maskUnits="userSpaceOnUse" x="28" y="52" width="54" height="54">
<g id="XMLID_00000045621093110170763570000008911734328297200299__3">
<path id="Vector_60" d="M54.9431 105.705C36.5727 96.8107 30.2496 67.455 28.6309 57.7204C29.1627 57.7368 29.7522 57.7491 30.3936 57.7491C35.5301 57.7491 45.4037 57.0118 54.945 52.1897C64.4864 57.0118 74.3599 57.7491 79.4964 57.7491C80.1358 57.7491 80.7254 57.7388 81.2573 57.7204C79.627 67.457 73.2847 96.823 54.9431 105.705Z" fill="white"/>
</g>
</mask>
<g mask="url(#mask20_566_300)">
<path id="Vector_61" d="M45.9861 50.2024H28.0586L28.0586 109.886H45.9861L45.9861 50.2024Z" fill="#F6C90E"/>
</g>
</g>
<g id="Clip path group_22">
<mask id="mask21_566_300" style="mask-type:luminance" maskUnits="userSpaceOnUse" x="28" y="52" width="54" height="54">
<g id="XMLID_00000045621093110170763570000008911734328297200299__4">
<path id="Vector_62" d="M54.9431 105.705C36.5727 96.8107 30.2496 67.455 28.6309 57.7204C29.1627 57.7368 29.7522 57.7491 30.3936 57.7491C35.5301 57.7491 45.4037 57.0118 54.945 52.1897C64.4864 57.0118 74.3599 57.7491 79.4964 57.7491C80.1358 57.7491 80.7254 57.7388 81.2573 57.7204C79.627 67.457 73.2847 96.823 54.9431 105.705Z" fill="white"/>
</g>
</mask>
<g mask="url(#mask21_566_300)">
<path id="Vector_63" d="M81.613 50.2026H63.6855L63.6855 109.886H81.613V50.2026Z" fill="#F6C90E"/>
</g>
</g>
<path id="Vector_64" d="M54.949 105.706C36.5786 96.8112 30.2554 67.4554 28.6367 57.7208C29.1686 57.7373 29.7581 57.7496 30.3994 57.7496C35.5359 57.7496 45.4095 57.0123 54.9509 52.1902C64.4923 57.0123 74.3658 57.7496 79.5023 57.7496C80.1417 57.7496 80.7312 57.7393 81.2631 57.7208C79.6329 67.4575 73.2905 96.8235 54.949 105.706Z" stroke="#F6C90E" stroke-width="0.5" stroke-miterlimit="10" stroke-linecap="round" stroke-linejoin="round"/>
</g>
<g id="Group_9">
<path id="Vector_65" d="M69.3633 145.064C69.4574 145.064 69.5534 145.058 69.6475 145.048C74.9069 144.464 85.2739 141.029 91.8601 135.215C93.1678 134.058 93.427 131.883 92.4381 130.355C91.4473 128.827 89.5847 128.526 88.2751 129.682C82.9217 134.407 73.6913 137.632 69.0848 138.143C67.4507 138.324 66.2526 140.016 66.4081 141.924C66.556 143.719 67.8502 145.064 69.3633 145.064Z" fill="white" stroke="#F6C90E" stroke-miterlimit="10" stroke-linecap="round" stroke-linejoin="round"/>
</g>
<path id="Vector_66" d="M78.2903 140.73C78.995 142.775 82.4321 144.332 82.4321 144.332C82.4321 144.332 83.9855 140.43 83.2808 138.385C82.5761 136.339 81.2569 136.28 79.8783 136.929C78.5015 137.575 77.5856 138.684 78.2903 140.73Z" fill="white" stroke="#F6C90E" stroke-miterlimit="10" stroke-linecap="round" stroke-linejoin="round"/>
<g id="Group_10">
<g id="Clip path group_23">
<mask id="mask22_566_300" style="mask-type:luminance" maskUnits="userSpaceOnUse" x="36" y="0" width="38" height="44">
<g id="XMLID_00000129895407551359539190000013060418438911997107_">
<path id="Vector_67" d="M65.3463 40.1303L73.3015 43.0732C73.3015 43.0732 62.5793 30.7243 62.6023 14.5677C62.6023 9.72712 63.5989 0.583984 58.7773 0.583984C56.0987 0.583984 54.5625 0.583984 51.5171 0.583984C48.4717 0.583984 48.0185 4.88651 48.0185 4.88651C48.0185 4.88651 46.8088 4.88651 43.8998 4.88651C40.9907 4.88651 40.0383 12.1485 40.0383 12.1485C40.0383 12.1485 47.3772 6.2317 47.3907 14.5677C47.4137 30.7243 36.6914 43.0732 36.6914 43.0732L44.6467 40.1303H65.3463Z" fill="white"/>
</g>
</mask>
<g mask="url(#mask22_566_300)">
<path id="Vector_68" d="M41.8359 11.3612C43.2991 7.15523 48.0976 7.30721 49.9909 8.38336C51.8842 9.4595 50.2482 14.0311 47.4966 14.3001L41.8359 11.3612Z" fill="#F6C90E"/>
</g>
</g>
<g id="Clip path group_24">
<mask id="mask23_566_300" style="mask-type:luminance" maskUnits="userSpaceOnUse" x="36" y="0" width="38" height="44">
<g id="XMLID_00000129895407551359539190000013060418438911997107__2">
<path id="Vector_69" d="M65.3463 40.1303L73.3015 43.0732C73.3015 43.0732 62.5793 30.7243 62.6023 14.5677C62.6023 9.72712 63.5989 0.583984 58.7773 0.583984C56.0987 0.583984 54.5625 0.583984 51.5171 0.583984C48.4717 0.583984 48.0185 4.88651 48.0185 4.88651C48.0185 4.88651 46.8088 4.88651 43.8998 4.88651C40.9907 4.88651 40.0383 12.1485 40.0383 12.1485C40.0383 12.1485 47.3772 6.2317 47.3907 14.5677C47.4137 30.7243 36.6914 43.0732 36.6914 43.0732L44.6467 40.1303H65.3463Z" fill="white"/>
</g>
</mask>
<g mask="url(#mask23_566_300)">
<path id="Vector_70" d="M60.1804 0.582796C60.2611 0.886745 60.1728 0.570479 56.0789 3.54015C51.0308 7.20191 47.6916 5.09892 47.6916 5.09892C47.6916 5.09892 45.5871 -0.819879 49.0645 -1.60234C52.5381 -2.38275 59.7734 -0.949273 60.1804 0.582796Z" fill="#F6C90E"/>
</g>
</g>
<path id="Vector_71" d="M65.3384 40.1295L73.2937 43.0725C73.2937 43.0725 62.5715 30.7235 62.5945 14.567C62.5945 9.72639 63.5911 0.583252 58.7695 0.583252C56.0908 0.583252 54.5547 0.583252 51.5093 0.583252C48.4639 0.583252 48.0107 4.88578 48.0107 4.88578C48.0107 4.88578 46.801 4.88578 43.8919 4.88578C40.9829 4.88578 40.0305 12.1477 40.0305 12.1477C40.0305 12.1477 47.3694 6.23097 47.3828 14.567C47.4059 30.7235 36.6836 43.0725 36.6836 43.0725L44.6389 40.1295H65.3384Z" stroke="#F6C90E" stroke-miterlimit="10" stroke-linecap="round" stroke-linejoin="round"/>
</g>
<path id="Vector_72" d="M55.3147 4.7516C55.3147 5.62854 54.706 6.33911 53.9552 6.33911C53.2044 6.33911 52.5957 5.62854 52.5957 4.7516C52.5957 3.87467 53.2044 3.16406 53.9552 3.16406C54.706 3.16406 55.3147 3.87467 55.3147 4.7516Z" fill="white" stroke="#F6C90E" stroke-width="0.5" stroke-miterlimit="10" stroke-linecap="round" stroke-linejoin="round"/>
<path id="Vector_73" d="M88.4238 134.175C89.3186 133.594 90.0464 133.034 90.5456 132.51" stroke="#F6C90E" stroke-miterlimit="10" stroke-linecap="round" stroke-linejoin="round"/>
<path id="Vector_74" d="M84.0762 136.559C85.0823 136.075 86.0367 135.582 86.8988 135.094" stroke="#F6C90E" stroke-miterlimit="10" stroke-linecap="round" stroke-linejoin="round"/>
<path id="Vector_75" d="M73.6445 140.732C74.5777 140.43 75.5763 140.085 76.6055 139.705" stroke="#F6C90E" stroke-miterlimit="10" stroke-linecap="round" stroke-linejoin="round"/>
<path id="Vector_76" d="M68.5078 141.988C69.224 141.945 70.3684 141.697 71.774 141.3" stroke="#F6C90E" stroke-miterlimit="10" stroke-linecap="round" stroke-linejoin="round"/>
<path id="Vector_77" d="M37.8672 141.579C38.883 141.844 39.7701 141.995 40.469 142.003" stroke="#F6C90E" stroke-miterlimit="10" stroke-linecap="round" stroke-linejoin="round"/>
<path id="Vector_78" d="M33.2227 139.976C34.2557 140.392 35.2542 140.766 36.1893 141.074" stroke="#F6C90E" stroke-miterlimit="10" stroke-linecap="round" stroke-linejoin="round"/>
<path id="Vector_79" d="M23.0898 135.036C23.9482 135.528 24.8833 136.037 25.8607 136.548" stroke="#F6C90E" stroke-miterlimit="10" stroke-linecap="round" stroke-linejoin="round"/>
<path id="Vector_80" d="M18.6211 132.041C19.1549 132.552 20.1285 133.241 21.3881 134.023" stroke="#F6C90E" stroke-miterlimit="10" stroke-linecap="round" stroke-linejoin="round"/>
<g id="Vector_81">
<path d="M49.4873 40.6536L42.7148 44.4181C42.7148 44.4181 49.0303 32.3156 48.6732 21.0222" fill="white"/>
<path d="M49.4873 40.6536L42.7148 44.4181C42.7148 44.4181 49.0303 32.3156 48.6732 21.0222" stroke="#F6C90E" stroke-miterlimit="10" stroke-linecap="round" stroke-linejoin="round"/>
</g>
<g id="Vector_82">
<path d="M60.4883 40.6536L67.2608 44.4181C67.2608 44.4181 60.9453 32.3156 61.3025 21.0222" fill="white"/>
<path d="M60.4883 40.6536L67.2608 44.4181C67.2608 44.4181 60.9453 32.3156 61.3025 21.0222" stroke="#F6C90E" stroke-miterlimit="10" stroke-linecap="round" stroke-linejoin="round"/>
</g>
<g id="Group_11">
<g id="Vector_83">
<path d="M52.0077 19.946C52.697 29.6272 49.4961 40.6536 49.4961 40.6536L54.8515 46.8415L60.4929 40.6536C60.4929 40.6536 57.292 29.6272 57.9814 19.946" fill="white"/>
<path d="M52.0077 19.946C52.697 29.6272 49.4961 40.6536 49.4961 40.6536L54.8515 46.8415L60.4929 40.6536C60.4929 40.6536 57.292 29.6272 57.9814 19.946" stroke="#F6C90E" stroke-miterlimit="10" stroke-linecap="round" stroke-linejoin="round"/>
</g>
</g>
</g>
</svg>
