<svg width="66" height="44" viewBox="0 0 66 44" fill="none" xmlns="http://www.w3.org/2000/svg">
<g id="curved / upload">
<path id="shape" d="M19.3071 18.3949V16.6235C19.3071 11.7321 25.4372 7.76685 32.9991 7.76685C40.561 7.76685 46.6911 11.7321 46.6911 16.6235V18.3949C52.7406 18.3949 57.6447 21.5671 57.6447 25.4802C57.6447 28.1028 55.4419 30.4548 52.1679 31.6799M19.3071 18.3949C13.2576 18.3949 8.35352 21.5671 8.35352 25.4802C8.35352 28.1028 10.5563 30.4548 13.8303 31.6799M19.3071 18.3949C20.4924 18.3949 21.6338 18.5166 22.7029 18.7419M32.9991 21.9375V37.8796M32.9991 21.9375L41.2143 27.2515M32.9991 21.9375L24.7839 27.2515" stroke="#F6C90E" stroke-width="3" stroke-linecap="round" stroke-linejoin="round"/>
</g>
</svg>
