<svg width="45" height="44" viewBox="0 0 45 44" fill="none" xmlns="http://www.w3.org/2000/svg">
<g id="curved / upload">
<path id="shape" d="M13.7298 18.3333V16.4999C13.7298 11.4373 17.8339 7.33325 22.8965 7.33325C27.9591 7.33325 32.0632 11.4373 32.0632 16.4999V18.3333C36.1132 18.3333 39.3965 21.6165 39.3965 25.6666C39.3965 28.381 37.9218 30.8153 35.7298 32.0833M13.7298 18.3333C9.67973 18.3333 6.39648 21.6165 6.39648 25.6666C6.39648 28.381 7.87121 30.8153 10.0632 32.0833M13.7298 18.3333C14.5234 18.3333 15.2875 18.4593 16.0033 18.6925M22.8965 21.9999V38.4999M22.8965 21.9999L28.3965 27.4999M22.8965 21.9999L17.3965 27.4999" stroke="black" stroke-width="3" stroke-linecap="round" stroke-linejoin="round"/>
</g>
</svg>
