<svg width="19" height="14" viewBox="0 0 19 14" fill="none" xmlns="http://www.w3.org/2000/svg">
<g id="business-team-icon 1" clip-path="url(#clip0_548_363)">
<g id="Group">
<path id="Vector" fill-rule="evenodd" clip-rule="evenodd" d="M14.2175 12.3358L14.5252 10.9468L14.3134 10.6723C14.2175 10.5077 14.1974 10.3631 14.25 10.2386C14.3644 9.96965 14.6025 10.0191 14.8252 10.0191C15.0587 10.0191 15.3463 9.96599 15.4189 10.3118C15.4437 10.4271 15.4128 10.5479 15.3447 10.6723L15.1329 10.9468L15.3169 11.7813L16.5369 10.526L17.1693 10.5443C16.9513 10.0264 16.6745 9.58719 16.3529 9.17362C16.959 9.45177 17.579 9.72626 18.0382 10.0666C18.3305 10.2826 18.4805 10.4473 18.5995 10.7089C18.85 11.2671 18.8778 11.7667 18.915 12.3705L19.0031 12.8939H15.5643L15.5674 12.9067H14.2515C14.2222 13.2636 14.049 13.4704 13.7104 13.4996H9.53711H5.29427C4.9541 13.4685 4.78092 13.2617 4.75309 12.9012L4.87061 10.698C4.90308 10.1892 5.02368 9.78665 5.22005 9.47922C5.34994 9.27609 5.51074 9.12604 5.68856 9.00892C6.25293 8.63744 7.57031 8.52764 8.08211 7.98232L8.86605 10.7108L9.26034 9.09127L9.06706 8.84056C8.98047 8.69051 8.96037 8.55875 9.00985 8.44529C9.11499 8.20008 9.33146 8.24583 9.53402 8.24583C9.74585 8.24583 10.0072 8.19825 10.0737 8.513C10.0953 8.61731 10.0675 8.72711 10.0056 8.84056L9.81234 9.09127L10.2066 10.7108L10.9163 7.98232C11.4281 8.52764 12.7471 8.63744 13.3099 9.00892C13.4877 9.12604 13.6501 9.27609 13.7784 9.47922C13.9748 9.78665 14.0954 10.1874 14.1278 10.698L14.2175 12.3358ZM2.36418 9.32916L2.88989 11.1573L3.1543 10.0721L3.02441 9.90377C2.96566 9.80312 2.95329 9.71528 2.98576 9.63842C3.05534 9.47373 3.20068 9.50484 3.33675 9.50484C3.479 9.50484 3.65373 9.47373 3.69857 9.68417C3.71403 9.75371 3.69393 9.82874 3.65373 9.90377L3.52384 10.0721L3.78825 11.1573L4.26449 9.32916C4.33407 9.40236 4.42993 9.46458 4.54281 9.51765C4.50415 9.61463 4.46859 9.71711 4.43766 9.82325C4.35726 10.0996 4.30469 10.407 4.28304 10.7492H4.28459C4.28459 10.7565 4.28304 10.7657 4.28304 10.773L4.16862 12.8921H3.34139H0.363363C0.134521 12.872 0.0185547 12.7329 0 12.4913L0.0788574 11.1481C0.100505 10.8078 0.182454 10.5388 0.313883 10.332C0.400472 10.1966 0.508708 10.0959 0.627767 10.0172C1.00505 9.76835 2.02091 9.69515 2.36418 9.32916ZM2.10596 6.73795C2.05493 6.74344 2.01628 6.75625 1.98844 6.77821C1.97298 6.79102 1.96061 6.80748 1.95288 6.82578C1.9436 6.84774 1.94051 6.87702 1.94051 6.90813C1.9436 7.00878 1.98844 7.1442 2.07658 7.29974L2.07812 7.3034L2.37191 7.85605C2.48942 8.07564 2.61157 8.30073 2.7631 8.46542C2.9069 8.62097 3.08162 8.72711 3.31356 8.72711C3.56405 8.72711 3.7465 8.61731 3.89648 8.45261C4.05265 8.27877 4.17635 8.04087 4.2985 7.80298L4.62785 7.16067C4.69434 6.98133 4.71444 6.87336 4.69279 6.82212C4.67887 6.79101 4.62476 6.78187 4.53508 6.79101C4.47786 6.80565 4.41756 6.79284 4.35417 6.75442L4.51961 6.16883C3.91504 6.15968 3.5022 6.03524 3.01204 5.66559C2.85124 5.54482 2.8033 5.40574 2.6425 5.41855C2.52035 5.446 2.41829 5.51005 2.33789 5.61435C2.26058 5.71317 2.20182 5.84859 2.16317 6.02243L2.26058 6.72331C2.2111 6.75991 2.15853 6.76357 2.10596 6.73795ZM4.72371 6.5641C4.79484 6.58972 4.84741 6.6373 4.87834 6.71233C4.92782 6.83127 4.90926 7.00878 4.81494 7.26131C4.8134 7.2668 4.81185 7.27046 4.80876 7.27595L4.47477 7.92742C4.34489 8.17995 4.21346 8.43248 4.03719 8.62829C3.85319 8.83324 3.6259 8.96866 3.3151 8.96683C3.02441 8.96683 2.8064 8.83507 2.62703 8.6411C2.4554 8.45444 2.32397 8.21655 2.20028 7.98232L1.90649 7.42967C1.79671 7.23569 1.74105 7.06002 1.73641 6.91362C1.73486 6.84225 1.74414 6.7782 1.76733 6.72331C1.79053 6.66292 1.82609 6.61351 1.87557 6.57508C1.89876 6.55678 1.9266 6.54031 1.95597 6.5275C1.93742 6.23105 1.93123 5.86506 1.9436 5.55762C1.94979 5.4826 1.96216 5.40757 1.97917 5.33254C2.05493 5.01596 2.24202 4.75976 2.4755 4.58409C2.55745 4.52187 2.64714 4.47063 2.743 4.43037C3.30737 4.18882 4.0542 4.32058 4.45467 4.83296C4.61702 5.04158 4.72062 5.3179 4.74227 5.68389L4.72371 6.5641ZM7.677 4.11745C7.61206 4.1266 7.56104 4.14673 7.52393 4.17601C7.50073 4.19431 7.48218 4.21993 7.47135 4.24738C7.45898 4.28032 7.4528 4.32241 7.4528 4.36998C7.45589 4.52187 7.52393 4.72134 7.6569 4.95191L7.65999 4.95557L8.09758 5.78088C8.2723 6.11027 8.45475 6.44515 8.6805 6.68854C8.89543 6.92094 9.15674 7.07832 9.5 7.08015C9.87419 7.08198 10.1463 6.91728 10.369 6.67207C10.6025 6.41404 10.788 6.0572 10.9705 5.70219L11.4622 4.7433C11.5611 4.47612 11.592 4.31509 11.5596 4.23823C11.5395 4.18882 11.4529 4.17784 11.3075 4.19431C11.2967 4.19614 11.2859 4.19614 11.2751 4.19431C11.2148 4.19431 11.1498 4.17601 11.0787 4.13758L11.2998 3.26286C10.3968 3.25005 9.77987 3.0634 9.05005 2.51075C8.81038 2.32958 8.73771 2.1228 8.49805 2.14293C8.31714 2.18502 8.16406 2.28018 8.04346 2.43389C7.92749 2.58212 7.83936 2.78341 7.78215 3.04144L7.93831 4.09915C7.84554 4.15588 7.75895 4.15954 7.677 4.11745ZM11.6044 3.85577C11.7111 3.89237 11.7884 3.96556 11.8363 4.07719C11.9106 4.25653 11.8827 4.52004 11.742 4.89701C11.7389 4.90433 11.7358 4.91165 11.7327 4.91714L11.2333 5.89068C11.04 6.26765 10.8437 6.64645 10.5793 6.93741C10.304 7.24301 9.96541 7.44614 9.50155 7.44431C9.0686 7.44248 8.74235 7.24667 8.47485 6.95754C8.21818 6.67939 8.02336 6.32438 7.83781 5.97485L7.40023 5.14955C7.23787 4.86224 7.15283 4.5969 7.14665 4.37913C7.14356 4.273 7.15902 4.17784 7.19303 4.09366C7.2286 4.00399 7.28117 3.92897 7.35384 3.87224C7.3894 3.84296 7.42961 3.81917 7.47445 3.80087C7.44816 3.35985 7.43888 2.81452 7.45589 2.3552C7.46517 2.24358 7.48372 2.13195 7.51001 2.02032C7.62134 1.54636 7.90275 1.16573 8.25065 0.90405C8.3728 0.812552 8.50732 0.735694 8.64958 0.675306C9.49072 0.314805 10.6071 0.51244 11.2039 1.27736C11.4467 1.58845 11.5998 2.00202 11.6322 2.54735L11.6044 3.85577ZM13.1243 8.36112L13.5109 8.34831L13.831 8.33916C13.4568 6.97584 13.582 5.72232 14.4835 4.65729C14.6366 5.24287 14.9783 5.72415 15.5612 6.08099C15.8395 6.32621 16.1101 6.62266 16.3699 6.9612C16.4163 6.73612 16.24 6.46162 16.0251 6.17981C16.223 6.2951 16.4054 6.45796 16.5338 6.76905C16.6838 7.13139 16.6807 7.43516 16.6327 7.8286C16.6095 8.01159 16.5724 8.18178 16.5183 8.33733H17.0518C17.6146 6.91179 17.2574 4.79819 16.107 3.90152C15.7545 3.62702 15.5009 3.63617 15.0865 3.638C14.6118 3.638 14.3706 3.6563 13.9639 3.97288C13.3656 4.44135 12.9976 5.25202 12.8429 6.37744C12.8136 6.93924 12.7935 7.90912 13.1243 8.36112Z" fill="white"/>
</g>
</g>
<defs>
<clipPath id="clip0_548_363">
<rect width="19" height="13" fill="white" transform="translate(0 0.5)"/>
</clipPath>
</defs>
</svg>
