<svg width="19" height="24" viewBox="0 0 19 24" fill="none" xmlns="http://www.w3.org/2000/svg">
<g id="encrypted-icon (1) 1" clip-path="url(#clip0_415_78)">
<path id="Vector" fill-rule="evenodd" clip-rule="evenodd" d="M9.49931 4.88449C11.0412 6.16488 12.4352 6.77158 13.63 6.6267C13.8389 12.1594 12.2789 15.4265 9.51452 16.7992C6.84552 15.5315 5.26625 12.3966 5.3838 6.55244C6.78744 6.64843 8.16481 6.25181 9.49931 4.89355V4.88449ZM11.4547 3.92465V4.71788C11.6151 4.80843 11.7742 4.88992 11.9318 4.96599V4.24158H12.485C12.5411 4.4442 12.65 4.61444 12.7924 4.72238C12.9349 4.83031 13.1018 4.86903 13.2639 4.83173C13.426 4.79442 13.5729 4.68349 13.6787 4.51842C13.7846 4.35335 13.8426 4.14471 13.8426 3.92918C13.8426 3.71364 13.7846 3.505 13.6787 3.33993C13.5729 3.17486 13.426 3.06393 13.2639 3.02663C13.1018 2.98932 12.9349 3.02804 12.7924 3.13598C12.65 3.24391 12.5411 3.41415 12.485 3.61677H11.6926C11.6613 3.61653 11.6303 3.62443 11.6013 3.64C11.5724 3.65557 11.5461 3.6785 11.524 3.70747C11.5019 3.73645 11.4844 3.77088 11.4725 3.80878C11.4606 3.84668 11.4545 3.8873 11.4547 3.92827V3.92465ZM1 7.10662C0.999878 6.94141 1.03386 6.77924 1.09835 6.63726C1.16283 6.49528 1.25543 6.37876 1.36634 6.30005C1.47725 6.22134 1.60234 6.18335 1.72838 6.19011C1.85443 6.19687 1.97673 6.24813 2.08235 6.33846C2.18797 6.42878 2.27298 6.55482 2.32839 6.70324C2.3838 6.85165 2.40754 7.01692 2.3971 7.18155C2.38666 7.34619 2.34243 7.50406 2.26909 7.63848C2.19575 7.77289 2.09603 7.87884 1.98048 7.94512V9.77606H4.51672C4.54438 9.98795 4.57342 10.1962 4.60522 10.4009H1.74262C1.68061 10.4014 1.62093 10.3699 1.57644 10.3134C1.53195 10.2568 1.50621 10.1796 1.50476 10.0984V7.98677C1.35907 7.93172 1.23101 7.81606 1.13995 7.65728C1.04889 7.49849 0.999763 7.3052 1 7.10662ZM2.92362 6.49811C2.92561 6.27221 2.99138 6.05526 3.10825 5.88909C3.22512 5.72291 3.38482 5.61927 3.55658 5.59812C3.72833 5.57698 3.89998 5.63984 4.03845 5.77458C4.17692 5.90932 4.27241 6.10642 4.30652 6.32788C4.30652 6.43473 4.30652 6.54158 4.30652 6.64843C4.28537 6.80983 4.23184 6.96096 4.1514 7.08635C4.07097 7.21173 3.96653 7.30685 3.84878 7.36197V8.08638H4.3563C4.36875 8.29827 4.38396 8.50654 4.40055 8.71118H3.61507C3.55198 8.71118 3.49148 8.67836 3.44687 8.61995C3.40227 8.56153 3.37721 8.4823 3.37721 8.39969V7.35473C3.24342 7.29054 3.12804 7.1738 3.04685 7.02047C2.96565 6.86714 2.92262 6.6847 2.92362 6.49811ZM1.01106 12.1793C1.01151 11.9643 1.06968 11.7563 1.17538 11.5918C1.28109 11.4273 1.4276 11.3167 1.58928 11.2793C1.75097 11.242 1.91753 11.2803 2.05983 11.3875C2.20213 11.4948 2.31111 11.6641 2.36769 11.866H4.89425C4.94542 12.0797 5.00073 12.288 5.05743 12.4908H2.36769C2.31115 12.6925 2.20229 12.8618 2.06014 12.969C1.91798 13.0763 1.75156 13.1147 1.58996 13.0776C1.42836 13.0405 1.28185 12.9302 1.17604 12.766C1.07023 12.6018 1.01183 12.3941 1.01106 12.1793ZM2.52119 15.9915C2.52116 15.8057 2.56427 15.6243 2.64478 15.4713C2.7253 15.3183 2.83942 15.201 2.97202 15.1349V13.9306C2.97202 13.8893 2.97826 13.8485 2.99038 13.8105C3.00251 13.7725 3.02028 13.738 3.04266 13.709C3.06504 13.68 3.09159 13.6572 3.12077 13.6417C3.14995 13.6263 3.18117 13.6186 3.21264 13.6191H5.4322C5.51379 13.8346 5.60091 14.0428 5.69218 14.2457H3.44912V15.1258C3.57063 15.1807 3.67824 15.2784 3.76016 15.4081C3.84208 15.5378 3.89513 15.6945 3.9135 15.8611C3.93187 16.0277 3.91485 16.1978 3.8643 16.3525C3.81375 16.5073 3.73162 16.6408 3.62694 16.7385C3.52225 16.8361 3.39904 16.8942 3.27084 16.9062C3.14263 16.9182 3.01437 16.8837 2.90014 16.8065C2.78591 16.7294 2.69012 16.6125 2.62327 16.4687C2.55642 16.3249 2.5211 16.1598 2.52119 15.9915ZM12.6717 21.2C12.7978 21.2003 12.9216 21.156 13.0301 21.0718C13.1386 20.9875 13.2277 20.8665 13.2879 20.7214C13.3481 20.5763 13.3773 20.4125 13.3723 20.2475C13.3674 20.0825 13.3284 19.9223 13.2597 19.7838C13.1909 19.6454 13.0948 19.5339 12.9816 19.4611C12.8684 19.3883 12.7423 19.3569 12.6166 19.3702C12.4909 19.3836 12.3702 19.4412 12.2675 19.5369C12.1647 19.6327 12.0836 19.763 12.0328 19.9142H10.6347V17.654C10.4798 17.7663 10.3208 17.8731 10.1576 17.9746V20.2275C10.1576 20.3101 10.1826 20.3893 10.2272 20.4477C10.2718 20.5062 10.3323 20.539 10.3954 20.539H12.001C12.0429 20.7295 12.1311 20.897 12.252 21.0162C12.373 21.1354 12.5203 21.1999 12.6717 21.2ZM13.1377 18.6809C13.2661 18.6811 13.3921 18.635 13.5019 18.5477C13.6117 18.4604 13.701 18.3352 13.76 18.1858C13.8191 18.0365 13.8456 17.8687 13.8367 17.7009C13.8278 17.5331 13.7838 17.3718 13.7095 17.2346C13.6352 17.0974 13.5336 16.9896 13.4156 16.923C13.2977 16.8564 13.1681 16.8336 13.0409 16.8571C12.9137 16.8806 12.7939 16.9494 12.6947 17.0562C12.5954 17.1629 12.5205 17.3033 12.4781 17.462H11.9249V16.4696C11.771 16.6447 11.6119 16.8113 11.4478 16.9694V17.7754C11.4476 17.8163 11.4537 17.8569 11.4655 17.8948C11.4774 17.9327 11.495 17.9672 11.5171 17.9962C11.5392 18.0251 11.5655 18.0481 11.5944 18.0636C11.6234 18.0792 11.6544 18.0871 11.6857 18.0868H12.4781C12.5271 18.2621 12.6162 18.4132 12.7333 18.5195C12.8504 18.6258 12.9897 18.6822 13.1322 18.6809H13.1377ZM8.79956 21.1837C8.96409 21.1844 9.12352 21.1089 9.24972 20.9707C9.37593 20.8325 9.46082 20.6403 9.48943 20.4281C9.51803 20.2159 9.48851 19.9973 9.40607 19.8109C9.32363 19.6244 9.19356 19.4821 9.0388 19.4089V18.0796C8.88254 17.9872 8.71659 17.8858 8.5617 17.7826V19.4125C8.40706 19.4856 8.27707 19.6278 8.19462 19.8141C8.11217 20.0004 8.08255 20.2188 8.11097 20.4309C8.13939 20.6429 8.22403 20.8351 8.34999 20.9734C8.47595 21.1118 8.63515 21.1875 8.79956 21.1873V21.1837ZM5.89547 19.2079C6.03682 19.2055 6.17431 19.1472 6.28984 19.0405C6.40536 18.9338 6.49351 18.7838 6.54267 18.6102H7.4623C7.52539 18.6093 7.58568 18.5759 7.63017 18.5173C7.67466 18.4587 7.6998 18.3796 7.70016 18.2969V17.1035C7.53559 16.9531 7.37656 16.7992 7.22305 16.6181V17.9872H6.54958C6.50767 17.8281 6.4331 17.6872 6.33405 17.5799C6.235 17.4726 6.1153 17.4031 5.98809 17.3791C5.86087 17.355 5.73106 17.3773 5.61288 17.4435C5.4947 17.5097 5.39273 17.6173 5.31816 17.7544C5.24358 17.8915 5.19928 18.0528 5.19012 18.2207C5.18095 18.3886 5.20727 18.5566 5.2662 18.7062C5.32513 18.8558 5.41438 18.9812 5.52416 19.0688C5.63395 19.1563 5.76002 19.2026 5.88856 19.2024L5.89547 19.2079ZM18 7.10662C18.0001 6.94141 17.9661 6.77924 17.9017 6.63726C17.8372 6.49528 17.7446 6.37876 17.6337 6.30005C17.5228 6.22134 17.3977 6.18335 17.2716 6.19011C17.1456 6.19687 17.0233 6.24813 16.9177 6.33846C16.812 6.42878 16.727 6.55482 16.6716 6.70324C16.6162 6.85165 16.5925 7.01692 16.6029 7.18155C16.6133 7.34619 16.6576 7.50406 16.7309 7.63848C16.8043 7.77289 16.904 7.87884 17.0195 7.94512V9.77606H14.5524C14.5275 9.98795 14.4985 10.1962 14.4667 10.4009H17.2574C17.3182 10.399 17.3761 10.3666 17.4191 10.3102C17.4621 10.2539 17.4869 10.1781 17.4883 10.0984V7.98677C17.634 7.93172 17.7621 7.81606 17.8531 7.65728C17.9442 7.49849 17.9933 7.3052 17.9931 7.10662H18ZM16.0736 6.49811C16.0744 6.28206 16.0167 6.07263 15.9108 5.90693C15.805 5.74124 15.6577 5.62998 15.4952 5.59288C15.3327 5.55578 15.1653 5.59523 15.0229 5.70424C14.8805 5.81325 14.7721 5.98478 14.717 6.18843C14.6658 6.39502 14.6658 6.6175 14.717 6.8241C14.7523 6.94835 14.8077 7.06118 14.8792 7.15493C14.9508 7.24868 15.037 7.32114 15.1319 7.3674V8.09181H14.6907C14.6797 8.3037 14.6672 8.51197 14.652 8.71662H15.3822C15.4453 8.71662 15.5058 8.6838 15.5504 8.62538C15.595 8.56696 15.62 8.48773 15.62 8.40512V7.35473C15.7538 7.29054 15.8692 7.1738 15.9504 7.02047C16.0316 6.86714 16.0746 6.6847 16.0736 6.49811ZM17.982 12.1793C17.9807 11.9651 17.9222 11.7584 17.8166 11.5948C17.711 11.4313 17.565 11.3214 17.4039 11.2842C17.2429 11.247 17.077 11.2848 16.935 11.3911C16.7931 11.4973 16.684 11.6654 16.6268 11.866H14.1721C14.1196 12.0797 14.0643 12.288 14.0048 12.4908H16.6268C16.6833 12.6925 16.7922 12.8618 16.9343 12.969C17.0765 13.0763 17.2429 13.1147 17.4045 13.0776C17.5661 13.0405 17.7126 12.9302 17.8184 12.766C17.9242 12.6018 17.9826 12.3941 17.9834 12.1793H17.982ZM16.4719 15.9915C16.4719 15.8057 16.4288 15.6243 16.3483 15.4713C16.2678 15.3183 16.1537 15.201 16.0211 15.1349V13.9306C16.0211 13.8895 16.0149 13.8488 16.0028 13.8109C15.9908 13.773 15.9731 13.7386 15.9509 13.7096C15.9287 13.6807 15.9023 13.6578 15.8733 13.6422C15.8443 13.6267 15.8132 13.6188 15.7818 13.6191H13.6231C13.5388 13.8346 13.4489 14.0428 13.3562 14.2457H15.544V15.1258C15.4225 15.1807 15.3148 15.2784 15.2329 15.4081C15.151 15.5378 15.098 15.6945 15.0796 15.8611C15.0612 16.0277 15.0782 16.1978 15.1288 16.3525C15.1793 16.5073 15.2615 16.6408 15.3662 16.7385C15.4708 16.8361 15.594 16.8942 15.7223 16.9062C15.8505 16.9182 15.9787 16.8837 16.0929 16.8065C16.2072 16.7294 16.303 16.6125 16.3698 16.4687C16.4367 16.3249 16.472 16.1598 16.4719 15.9915ZM12.6717 0.500004C12.7979 0.499516 12.9218 0.543737 13.0304 0.627983C13.139 0.712229 13.2282 0.833364 13.2885 0.978558C13.3488 1.12375 13.378 1.2876 13.3729 1.45275C13.3679 1.6179 13.3289 1.77819 13.26 1.91667C13.1911 2.05514 13.0949 2.16663 12.9816 2.23934C12.8682 2.31204 12.742 2.34325 12.6162 2.32965C12.4904 2.31605 12.3698 2.25816 12.2671 2.16211C12.1644 2.06606 12.0834 1.93541 12.0328 1.78402H10.6347V4.20898C10.477 4.10032 10.318 3.98803 10.1576 3.86851V1.47252C10.1574 1.43155 10.1634 1.39094 10.1753 1.35304C10.1872 1.31513 10.2047 1.2807 10.2268 1.25173C10.249 1.22275 10.2752 1.19982 10.3042 1.18425C10.3331 1.16868 10.3641 1.16079 10.3954 1.16103H12.001C12.0429 0.970526 12.1311 0.803047 12.252 0.683822C12.373 0.564597 12.5203 0.500085 12.6717 0.500004ZM8.79956 0.514492C8.96374 0.51508 9.12254 0.591251 9.24816 0.729679C9.37379 0.868107 9.45825 1.05998 9.48676 1.27172C9.51528 1.48346 9.48603 1.70159 9.40414 1.88794C9.32225 2.0743 9.19293 2.21701 9.0388 2.29111V3.77977C8.87931 3.92103 8.72027 4.05142 8.5617 4.17095V2.29111C8.40769 2.21706 8.27843 2.07451 8.19653 1.88834C8.11462 1.70217 8.08527 1.48423 8.11361 1.2726C8.14194 1.06098 8.22616 0.869114 8.35154 0.730542C8.47692 0.59197 8.6355 0.5155 8.79956 0.514492ZM5.88856 2.49213C6.03043 2.49209 6.16897 2.54854 6.28579 2.65398C6.40261 2.75942 6.4922 2.90887 6.54267 3.08252H7.4623C7.52563 3.08348 7.58613 3.1171 7.63066 3.17609C7.67519 3.23508 7.70016 3.31469 7.70016 3.39764V4.72874C7.54112 4.81567 7.38209 4.89355 7.22167 4.96236V3.70733H6.54958C6.50767 3.86645 6.4331 4.00738 6.33405 4.11466C6.235 4.22194 6.1153 4.29142 5.98809 4.31548C5.86087 4.33953 5.73106 4.31724 5.61288 4.25104C5.4947 4.18484 5.39273 4.07729 5.31816 3.94019C5.24358 3.8031 5.19928 3.64175 5.19012 3.47385C5.18095 3.30595 5.20727 3.13799 5.2662 2.9884C5.32513 2.8388 5.41438 2.71335 5.52416 2.62581C5.63395 2.53827 5.76002 2.49202 5.88856 2.49213ZM7.96291 9.57866H8.11641V9.2074C8.11573 8.71163 8.2614 8.2347 8.52298 7.8763C8.64939 7.69907 8.80226 7.55776 8.97212 7.46114C9.14198 7.36453 9.32519 7.31467 9.51037 7.31467C9.69556 7.31467 9.87877 7.36453 10.0486 7.46114C10.2185 7.55776 10.3714 7.69907 10.4978 7.8763C10.7593 8.2347 10.905 8.71163 10.9043 9.2074V9.57866H11.0578C11.1182 9.57914 11.1761 9.61077 11.2188 9.66671C11.2615 9.72265 11.2857 9.79838 11.286 9.87748V13.025C11.2857 13.104 11.2614 13.1795 11.2187 13.2352C11.1759 13.2908 11.1181 13.322 11.0578 13.322H7.96567C7.90539 13.322 7.84756 13.2908 7.80481 13.2352C7.76206 13.1795 7.73786 13.104 7.73749 13.025V9.87748C7.73786 9.79838 7.76201 9.72265 7.80473 9.66671C7.84744 9.61077 7.90527 9.57914 7.96567 9.57866H7.96291ZM9.32368 11.5889L9.07891 12.431H9.94184L9.71228 11.578C9.80251 11.5175 9.87441 11.4187 9.91622 11.2978C9.95804 11.1768 9.9673 11.0409 9.94249 10.9122C9.91768 10.7834 9.86027 10.6695 9.77963 10.5891C9.699 10.5086 9.59991 10.4663 9.49856 10.4691C9.3972 10.4719 9.29957 10.5197 9.22161 10.6046C9.14365 10.6894 9.08998 10.8064 9.06936 10.9364C9.04874 11.0664 9.06239 11.2017 9.10808 11.3202C9.15377 11.4387 9.2288 11.5334 9.32092 11.5889H9.32368ZM8.55064 9.57866H10.4756V9.2074C10.4768 8.85717 10.3748 8.51984 10.1908 8.26567C10.1041 8.14392 9.99917 8.04684 9.88259 7.98046C9.76602 7.91408 9.64026 7.87983 9.51314 7.87983C9.38602 7.87983 9.26026 7.91408 9.14369 7.98046C9.02711 8.04684 8.92221 8.14392 8.83552 8.26567C8.65151 8.51984 8.54947 8.85717 8.55064 9.2074V9.57866Z" fill="white"/>
</g>
<defs>
<clipPath id="clip0_415_78">
<rect width="19" height="23" fill="white" transform="translate(0 0.5)"/>
</clipPath>
</defs>
</svg>
