<svg width="22" height="14" viewBox="0 0 22 14" fill="none" xmlns="http://www.w3.org/2000/svg">
<g id="graph-icon 1" clip-path="url(#clip0_548_355)">
<path id="Vector" fill-rule="evenodd" clip-rule="evenodd" d="M0.847783 10.6175H2.92819C2.99198 10.6181 3.053 10.6496 3.09794 10.7051C3.14288 10.7606 3.1681 10.8357 3.1681 10.9139V17.517C3.1681 17.595 3.14282 17.6698 3.09783 17.725C3.05284 17.7801 2.99182 17.8111 2.92819 17.8111H0.847783C0.78399 17.8111 0.722782 17.7802 0.677506 17.7251C0.63223 17.67 0.606557 17.5952 0.606084 17.517V10.9139C0.606553 10.8355 0.632168 10.7604 0.677394 10.705C0.72262 10.6495 0.783825 10.6181 0.847783 10.6175ZM20.7692 3.86082C21.0094 3.86036 21.2445 3.94631 21.4453 4.10802C21.6461 4.26974 21.8038 4.50011 21.8989 4.77062C21.994 5.04112 22.0223 5.33989 21.9803 5.62992C21.9383 5.91996 21.8279 6.18852 21.6627 6.40236C21.4974 6.61621 21.2847 6.76594 21.0507 6.83302C20.8168 6.9001 20.572 6.88158 20.3465 6.77976C20.1211 6.67794 19.925 6.49729 19.7824 6.26018C19.6399 6.02306 19.5572 5.73989 19.5446 5.44573L16.372 2.71274C16.1599 2.90429 15.9032 3.00738 15.6398 3.00689C15.3643 3.00758 15.0967 2.89384 14.8807 2.6842L12.2166 5.16914C12.2238 5.23388 12.2274 5.29916 12.2273 5.36451C12.2273 5.57381 12.1915 5.78078 12.1225 5.97218C12.0534 6.16358 11.9525 6.3352 11.8262 6.47604C11.6999 6.61689 11.5511 6.72386 11.3892 6.79011C11.2272 6.85637 11.0558 6.88045 10.8859 6.8608C10.7159 6.84116 10.5512 6.77824 10.4022 6.67605C10.2532 6.57387 10.1233 6.43468 10.0207 6.26738C9.91811 6.10009 9.84514 5.90838 9.80645 5.70453C9.76776 5.50067 9.76421 5.28916 9.79603 5.08352L7.07825 2.66884C6.86428 2.87812 6.59949 2.99392 6.32579 2.9979C6.0521 3.00187 5.78514 2.8938 5.56718 2.69079L2.45374 5.41719C2.44435 5.7612 2.33913 6.09089 2.15559 6.35134C1.97205 6.6118 1.72128 6.7873 1.44504 6.84862C1.1688 6.90994 0.883762 6.85338 0.637398 6.68835C0.391034 6.52333 0.198215 6.2598 0.0910519 5.94166C-0.0161111 5.62352 -0.0311493 5.26997 0.0484416 4.93989C0.128033 4.60981 0.297449 4.32312 0.528475 4.12757C0.759502 3.93201 1.03819 3.83941 1.31814 3.86516C1.59808 3.89092 1.86238 4.03348 2.06702 4.26912L5.08916 1.63491C5.08916 1.59101 5.08916 1.5493 5.08916 1.5054C5.08916 1.1066 5.21837 0.724126 5.44836 0.44213C5.67836 0.160133 5.9903 0.00170898 6.31556 0.00170898C6.64082 0.00170898 6.95276 0.160133 7.18275 0.44213C7.41275 0.724126 7.54196 1.1066 7.54196 1.5054C7.54196 1.53613 7.54196 1.56686 7.54196 1.5954L10.3528 4.08692C10.548 3.94125 10.7725 3.86523 11.0009 3.8674C11.2514 3.86669 11.4959 3.96101 11.701 4.13741L14.417 1.5954C14.417 1.56467 14.417 1.53394 14.417 1.5032C14.4291 1.11406 14.5637 0.745797 14.7925 0.475733C15.0214 0.20567 15.3266 0.0548031 15.6443 0.0548031C15.9619 0.0548031 16.2671 0.20567 16.496 0.475733C16.7248 0.745797 16.8594 1.11406 16.8715 1.5032C16.8743 1.55364 16.8743 1.60424 16.8715 1.65467L19.9313 4.28887C20.1551 4.01909 20.4553 3.86573 20.7692 3.86082ZM19.0683 10.0073H21.1487C21.1818 10.0067 21.2146 10.0143 21.2451 10.0297C21.2757 10.0451 21.3034 10.068 21.3265 10.097C21.3496 10.1259 21.3677 10.1604 21.3796 10.1981C21.3915 10.2359 21.397 10.2763 21.3958 10.3168V17.517C21.3953 17.5952 21.3697 17.67 21.3244 17.7251C21.2791 17.7802 21.2179 17.8111 21.1541 17.8111H19.0737C19.0101 17.8111 18.949 17.7801 18.9041 17.725C18.8591 17.6698 18.8338 17.595 18.8338 17.517V10.3168C18.8338 10.2386 18.859 10.1635 18.9039 10.108C18.9489 10.0525 19.0099 10.021 19.0737 10.0205L19.0683 10.0073ZM14.5172 6.25355H16.5976C16.6616 6.25412 16.7228 6.28553 16.768 6.34098C16.8132 6.39643 16.8389 6.47148 16.8393 6.5499V17.5257C16.8388 17.604 16.8132 17.6788 16.7679 17.7339C16.7226 17.789 16.6614 17.8199 16.5976 17.8199H14.5172C14.4857 17.8199 14.4545 17.8123 14.4254 17.7975C14.3963 17.7827 14.3699 17.761 14.3476 17.7337C14.3253 17.7064 14.3076 17.674 14.2956 17.6383C14.2835 17.6026 14.2773 17.5644 14.2773 17.5257V6.5499C14.2771 6.51108 14.2831 6.4726 14.2951 6.43666C14.307 6.40071 14.3246 6.36803 14.3469 6.34048C14.3692 6.31293 14.3958 6.29107 14.425 6.27615C14.4542 6.26123 14.4856 6.25355 14.5172 6.25355ZM9.96074 10.0117H12.0411C12.0733 10.012 12.1052 10.0201 12.1348 10.0357C12.1644 10.0513 12.1911 10.0739 12.2135 10.1023C12.2358 10.1308 12.2533 10.1644 12.2649 10.2012C12.2765 10.238 12.282 10.2773 12.2811 10.3168V17.517C12.2811 17.595 12.2558 17.6698 12.2108 17.725C12.1658 17.7801 12.1048 17.8111 12.0411 17.8111H9.96074C9.89711 17.8111 9.83609 17.7801 9.7911 17.725C9.74611 17.6698 9.72083 17.595 9.72083 17.517V10.3168C9.72083 10.2386 9.74605 10.1635 9.79099 10.108C9.83593 10.0525 9.89695 10.021 9.96074 10.0205V10.0117ZM5.40426 6.25355H7.48466C7.54846 6.25413 7.60947 6.28561 7.65442 6.34112C7.69936 6.39663 7.72458 6.47168 7.72457 6.5499V17.5257C7.72457 17.5644 7.71837 17.6026 7.70631 17.6383C7.69426 17.674 7.67658 17.7064 7.65431 17.7337C7.63203 17.761 7.60558 17.7827 7.57647 17.7975C7.54737 17.8123 7.51617 17.8199 7.48466 17.8199H5.40426C5.34047 17.8199 5.27926 17.789 5.23398 17.7339C5.18871 17.6788 5.16303 17.604 5.16256 17.5257V6.5499C5.16256 6.4713 5.18803 6.39592 5.23335 6.34035C5.27868 6.28477 5.34016 6.25355 5.40426 6.25355Z" fill="white"/>
</g>
<defs>
<clipPath id="clip0_548_355">
<rect width="22" height="14" fill="white"/>
</clipPath>
</defs>
</svg>
