<svg width="21" height="18" viewBox="0 0 21 18" fill="none" xmlns="http://www.w3.org/2000/svg">
<g id="Group">
<path id="Vector" d="M11.0578 1.83169C10.9265 1.68196 10.7726 1.60813 10.5943 1.60813C10.4162 1.60813 10.2601 1.68196 10.1309 1.83169L9.42453 2.63453C9.2351 2.49482 9.03471 2.37272 8.82519 2.26349C8.61584 2.15427 8.40184 2.06056 8.18568 1.97916V0.744149C8.18568 0.535916 8.12342 0.360622 7.99625 0.215805C7.86957 0.0709885 7.71584 0 7.53305 0H6.17383C6.00001 0 5.84876 0.0709885 5.71727 0.215805C5.58811 0.360622 5.52336 0.535916 5.52336 0.744149V1.87485C5.29624 1.93562 5.0756 2.01191 4.86376 2.10599C4.65009 2.19989 4.44738 2.30684 4.25562 2.4261L3.4735 1.54698C3.35097 1.3997 3.20172 1.32342 3.02126 1.32342C2.84278 1.32342 2.68921 1.3997 2.55772 1.54698L1.60642 2.63453C1.4751 2.78427 1.41035 2.95975 1.41035 3.16268C1.41035 3.36599 1.4751 3.54394 1.60642 3.69121L2.31068 4.4967C2.18816 4.7125 2.08124 4.94118 1.98545 5.1797C1.88949 5.4186 1.80731 5.6628 1.73575 5.90909H0.652962C0.470006 5.90909 0.316271 5.98007 0.18943 6.12489C0.062424 6.2699 0 6.44519 0 6.65361V8.20344C0 8.40126 0.062424 8.57428 0.189264 8.72421C0.316105 8.8713 0.470006 8.94512 0.652796 8.94512H1.64411C1.69757 9.2039 1.76431 9.45548 1.84699 9.69685C1.92967 9.94086 2.02314 10.1771 2.12773 10.4056L1.35673 11.2821C1.2274 11.422 1.16065 11.5921 1.16065 11.7981C1.16065 12.0012 1.2274 12.1767 1.35673 12.3266L2.31052 13.4267C2.44184 13.5664 2.59558 13.6353 2.77405 13.6353C2.95202 13.6353 3.10792 13.5666 3.23741 13.4267L3.94367 12.6087C4.13293 12.7482 4.33365 12.8701 4.54301 12.9797C4.75252 13.0886 4.96636 13.1829 5.18252 13.2641V14.4989C5.18252 14.7071 5.24494 14.8822 5.37178 15.0269C5.49879 15.172 5.65269 15.2432 5.83532 15.2432H7.19437C7.36819 15.2432 7.5196 15.172 7.65109 15.0269C7.78009 14.8822 7.84484 14.7071 7.84484 14.4989V13.3682C8.07212 13.3074 8.2926 13.2311 8.50427 13.1369C8.71828 13.043 8.92564 12.936 9.12586 12.8167L9.89454 13.6961C10.0172 13.8433 10.1685 13.9196 10.3516 13.9196C10.5362 13.9196 10.6878 13.8435 10.8106 13.6961L11.7754 12.6087C11.8979 12.4586 11.9583 12.2833 11.9583 12.0802C11.9583 11.877 11.8981 11.6991 11.7754 11.5518L11.058 10.7463C11.1805 10.5303 11.2875 10.3019 11.3834 10.0631C11.4789 9.82444 11.5614 9.58023 11.6328 9.33395H12.7157C12.8984 9.33395 13.0519 9.2624 13.1788 9.11796C13.3059 8.97295 13.3684 8.79785 13.3684 8.58942V7.03979C13.3684 6.84159 13.3059 6.66914 13.1788 6.51883C13.0519 6.37155 12.8984 6.29791 12.7157 6.29791H11.7241C11.6706 6.04898 11.6037 5.80005 11.5212 5.55376C11.4389 5.30464 11.3451 5.07104 11.2405 4.85221L12.0116 3.96078C12.1408 3.82108 12.2077 3.6507 12.2077 3.44512C12.2077 3.24162 12.141 3.06652 12.0116 2.91659L11.0578 1.83169ZM18.5808 10.1559C18.4968 10.0887 18.4074 10.0652 18.3107 10.0847C18.2139 10.1038 18.1352 10.1606 18.0781 10.2559L17.7613 10.7674C17.6471 10.7121 17.5285 10.6678 17.4053 10.6309C17.283 10.5941 17.159 10.5659 17.0349 10.5455L16.9327 9.87574C16.9152 9.76291 16.8671 9.67451 16.7859 9.60958C16.7052 9.54465 16.6159 9.52269 16.5168 9.54256L15.7795 9.68908C15.6855 9.70782 15.6093 9.76291 15.5499 9.85548C15.4918 9.94767 15.471 10.0499 15.4886 10.1631L15.5823 10.7761C15.4639 10.8334 15.3507 10.8987 15.2441 10.9726C15.1355 11.0468 15.0344 11.1263 14.9406 11.2118L14.4434 10.8194C14.3643 10.7528 14.2775 10.7278 14.1794 10.7469C14.0826 10.7664 14.0057 10.824 13.9466 10.918L13.5209 11.6107C13.4622 11.7061 13.4414 11.8083 13.4583 11.9179C13.4753 12.0287 13.5251 12.118 13.6086 12.1837L14.0574 12.5447C14.0089 12.6748 13.9699 12.8101 13.9377 12.9506C13.9053 13.0903 13.8807 13.2315 13.8626 13.3729L13.2752 13.4895C13.1763 13.5092 13.0987 13.5645 13.0418 13.6569C12.9847 13.7489 12.9658 13.8509 12.983 13.9637L13.1114 14.8044C13.1278 14.9116 13.1758 14.9986 13.2575 15.0662C13.3383 15.1325 13.428 15.156 13.5271 15.1361L14.0648 15.0293C14.1153 15.1643 14.1724 15.2932 14.2372 15.4153C14.3022 15.5387 14.3725 15.6565 14.4483 15.7691L14.1028 16.3279C14.0442 16.4179 14.0223 16.517 14.0393 16.6289C14.0562 16.7393 14.1067 16.8271 14.1893 16.8943L14.7978 17.3878C14.8807 17.4494 14.9698 17.4704 15.0664 17.4511C15.1632 17.4319 15.2422 17.3774 15.3005 17.2879L15.6158 16.7681C15.73 16.8235 15.8487 16.868 15.9717 16.9045C16.0943 16.9413 16.2181 16.9695 16.342 16.9897L16.4446 17.6599C16.4618 17.7729 16.5103 17.8611 16.5912 17.9256C16.6719 17.9908 16.7613 18.0127 16.8603 17.993L17.5973 17.8463C17.6917 17.8274 17.7679 17.7727 17.8274 17.6799C17.8853 17.5876 17.9061 17.4859 17.8885 17.3725L17.7947 16.759C17.913 16.7016 18.0264 16.6367 18.1333 16.5627C18.2414 16.4883 18.3449 16.4086 18.4438 16.3223L18.9337 16.7162C19.0126 16.7828 19.1011 16.8076 19.2 16.7877C19.3003 16.7681 19.3762 16.7103 19.4305 16.6172L19.8636 15.9234C19.9174 15.8287 19.9358 15.7273 19.9187 15.6171C19.902 15.5067 19.8545 15.4166 19.776 15.3502L19.3197 14.9907C19.3685 14.8605 19.4074 14.7251 19.4396 14.5848C19.4718 14.4451 19.4964 14.3039 19.5146 14.1623L20.1019 14.0457C20.201 14.026 20.2783 13.9711 20.3351 13.8785C20.3922 13.7862 20.4113 13.6847 20.3941 13.5717L20.2654 12.731C20.249 12.6237 20.2008 12.537 20.1195 12.469C20.0386 12.4025 19.9489 12.3795 19.8498 12.3991L19.3121 12.5061C19.2625 12.3766 19.2055 12.249 19.1403 12.1243C19.0747 11.998 19.0048 11.8814 18.9299 11.7741L19.2742 11.2071C19.3328 11.1172 19.3546 11.0182 19.3373 10.9061C19.3206 10.7957 19.2701 10.7083 19.1872 10.6409L18.5808 10.1559ZM16.4627 12.2912C16.6405 12.2557 16.8143 12.2606 16.9851 12.3054C17.1553 12.352 17.3094 12.4298 17.4462 12.5385C17.5831 12.6486 17.699 12.7876 17.795 12.9546C17.8901 13.1228 17.9527 13.3076 17.9841 13.5104C18.0151 13.7133 18.0107 13.9115 17.9715 14.1067C17.9306 14.3003 17.8627 14.4756 17.7668 14.6322C17.6701 14.788 17.5486 14.9203 17.4022 15.0297C17.2546 15.1382 17.0926 15.2097 16.9146 15.2453C16.7369 15.2805 16.5631 15.2754 16.3919 15.2307C16.2218 15.1842 16.0682 15.1067 15.9309 14.9975C15.7944 14.8873 15.6782 14.7488 15.5823 14.5818C15.4873 14.4135 15.4242 14.2286 15.3933 14.0258C15.3621 13.8233 15.3664 13.6251 15.4058 13.4299C15.4466 13.2359 15.5149 13.0606 15.6102 12.904C15.7069 12.7486 15.8286 12.6161 15.9751 12.5067C16.123 12.3982 16.285 12.3266 16.4627 12.2912ZM6.68435 4.58567C7.04976 4.58567 7.39492 4.66461 7.72231 4.82192C8.04788 4.98207 8.33095 5.19788 8.57151 5.46952C8.80975 5.74382 8.99902 6.06696 9.13947 6.43743C9.27777 6.81092 9.34667 7.20486 9.34667 7.62133C9.34667 8.03798 9.27777 8.43192 9.13947 8.80523C8.99902 9.17607 8.80975 9.49921 8.57151 9.77351C8.33095 10.0454 8.04788 10.261 7.72231 10.4211C7.39492 10.5788 7.04976 10.6574 6.68435 10.6574C6.31894 10.6574 5.97345 10.5788 5.64589 10.4211C5.32082 10.261 5.03758 10.0454 4.79718 9.77351C4.55861 9.49921 4.36935 9.17626 4.22889 8.80523C4.09093 8.43192 4.0217 8.03798 4.0217 7.62133C4.0217 7.20486 4.09093 6.81092 4.22889 6.43743C4.36935 6.06678 4.55861 5.74382 4.79718 5.46952C5.03758 5.19788 5.32082 4.98188 5.64589 4.82192C5.97328 4.66461 6.31894 4.58567 6.68435 4.58567Z" fill="white"/>
</g>
</svg>
