<svg width="67" height="67" viewBox="0 0 67 67" fill="none" xmlns="http://www.w3.org/2000/svg">
<g id="Group 2353">
<ellipse id="Ellipse 34" cx="33.4999" cy="33.5" rx="32.83" ry="33.5" fill="#FAFAFA"/>
<g id="Group">
<path id="Vector" d="M32.0754 10.8961C31.9963 10.9034 31.7556 10.9291 31.5401 10.9474C29.593 11.1417 27.6352 11.8748 25.9503 13.0405C22.0382 15.7458 19.9906 20.4782 20.6695 25.251C21.0898 28.1909 22.4909 30.8155 24.7253 32.8573C26.3563 34.3456 28.5225 35.4123 30.7103 35.7972C31.5006 35.9402 31.849 35.9658 32.8477 35.9658C33.8464 35.9658 34.1949 35.9402 34.9852 35.7972C39.3607 35.0237 43.0681 31.7796 44.4942 27.4797C45.7623 23.6564 45.1732 19.4885 42.9064 16.2077C40.8659 13.2605 37.7441 11.3763 34.1949 10.9474C33.8644 10.9071 32.334 10.8704 32.0754 10.8961Z" fill="#324134"/>
<path id="Vector_2" d="M41.3424 35.0455C39.6253 36.3761 37.4447 37.3402 35.2821 37.7214C34.3948 37.8791 34.0319 37.9084 32.8464 37.9084C31.7005 37.9084 31.5388 37.8974 30.6479 37.7581C28.5428 37.4355 26.4412 36.5631 24.6558 35.2801L24.2463 34.9832L23.8655 35.0455C23.6571 35.0821 23.2153 35.1848 22.8776 35.2691C19.9785 36.0169 17.3884 37.5272 15.2617 39.7046C12.6536 42.3732 11.0586 45.7713 10.6024 49.6166C10.4982 50.4891 10.4874 52.3329 10.5844 53.0257C10.7748 54.4114 11.0945 55.1848 11.734 55.8043C12.3483 56.4018 13.2464 56.6621 14.5073 56.6108C15.4737 56.5705 16.422 56.4092 18.9259 55.8483C21.8609 55.1922 23.2188 54.9539 24.9971 54.7816C25.7335 54.712 41.2526 54.712 41.9891 54.7816C43.7673 54.9539 45.1252 55.1922 48.0602 55.8483C50.5641 56.4092 51.5125 56.5705 52.4788 56.6108C53.3913 56.6474 54.0523 56.5338 54.6522 56.2332C55.2701 55.9253 55.7838 55.3021 56.0533 54.536C56.3191 53.7919 56.4412 52.9964 56.4736 51.838C56.5957 47.3292 54.8534 42.8974 51.6885 39.6679C49.1487 37.0763 45.9119 35.4304 42.3591 34.9245C41.619 34.8182 41.637 34.8145 41.3424 35.0455Z" fill="#324134"/>
</g>
</g>
</svg>
