<svg width="17" height="18" viewBox="0 0 17 18" fill="none" xmlns="http://www.w3.org/2000/svg">
<g id="male-add-icon 1" clip-path="url(#clip0_548_368)">
<g id="Group">
<path id="Vector" fill-rule="evenodd" clip-rule="evenodd" d="M0 17.4999V14.7512C1.27002 14.0964 5.16032 12.8525 5.34432 11.0531C5.38582 10.6464 4.55713 9.09837 4.36759 8.35555C3.96224 7.60633 3.81559 6.41685 4.26107 5.62441C4.43815 5.31063 4.36206 4.16278 4.36206 3.72894C4.36206 -0.579093 10.8851 -0.580694 10.8851 3.72894C10.8851 4.27485 10.7772 5.27541 11.0331 5.70285C11.4606 6.41846 11.2393 7.68957 10.8796 8.35395C10.6485 9.13359 9.76863 10.6096 9.84334 11.0515C10.1228 12.6956 13.7309 13.7986 14.8667 14.3846V17.4983H0V17.4999ZM15.2098 6.28878V8.24028H17V9.71632H15.2098V11.7879H13.9342V9.71632H12.1454V8.24028H13.9356V6.17032H15.2112V6.28878H15.2098Z" fill="white"/>
</g>
</g>
<defs>
<clipPath id="clip0_548_368">
<rect width="17" height="17" fill="white" transform="translate(0 0.5)"/>
</clipPath>
</defs>
</svg>
