<svg width="19" height="20" viewBox="0 0 19 20" fill="none" xmlns="http://www.w3.org/2000/svg">
<path id="shape" d="M11.4445 12.1052L7.44446 8.13599M11.4445 12.1052L6.446 17.0651C5.78735 17.7187 4.98784 18.2347 4.06993 18.3918C3.14311 18.5505 1.99294 18.6032 1.44444 18.059C0.895953 17.5147 0.949147 16.3734 1.109 15.4537C1.26731 14.5429 1.78735 13.7495 2.446 13.0959L7.44446 8.13599M11.4445 12.1052C11.4445 12.1052 14.4444 9.12829 12.4444 7.1437C10.4444 5.1591 7.44446 8.13599 7.44446 8.13599M1 9.93454C1 3.4846 3 1.5 9.5 1.5C16 1.5 18 3.4846 18 9.93454C18 16.3845 16 18.3691 9.5 18.3691" stroke="white" stroke-width="1.5" stroke-linecap="round" stroke-linejoin="round"/>
</svg>
