<svg width="26" height="31" viewBox="0 0 26 31" fill="none" xmlns="http://www.w3.org/2000/svg">
<g id="Group 2288">
<path id="Vector" fill-rule="evenodd" clip-rule="evenodd" d="M12.499 6.56663C14.7665 8.48413 16.8165 9.3927 18.5736 9.17573C18.8807 17.4614 16.5867 22.3541 12.5214 24.4099C8.59636 22.5114 6.2739 17.8167 6.44676 9.06453C8.51094 9.20828 10.5365 8.61432 12.499 6.58019V6.56663ZM15.3746 5.12919V6.31712C15.6105 6.45272 15.8444 6.57477 16.0762 6.68868V5.60382H16.8897C16.9722 5.90726 17.1323 6.16221 17.3418 6.32385C17.5513 6.48549 17.7968 6.54348 18.0352 6.48761C18.2736 6.43175 18.4896 6.26562 18.6452 6.01841C18.8008 5.77121 18.8861 5.45875 18.8861 5.13597C18.8861 4.81319 18.8008 4.50073 18.6452 4.25353C18.4896 4.00632 18.2736 3.84019 18.0352 3.78432C17.7968 3.72846 17.5513 3.78645 17.3418 3.94809C17.1323 4.10972 16.9722 4.36467 16.8897 4.66812H15.7244C15.6784 4.66776 15.6328 4.67958 15.5902 4.7029C15.5477 4.72621 15.509 4.76056 15.4765 4.80395C15.4439 4.84734 15.4182 4.89891 15.4007 4.95567C15.3832 5.01243 15.3743 5.07325 15.3746 5.13461V5.12919ZM1.26922e-06 9.89445C-0.000179928 9.64705 0.0497912 9.40418 0.144627 9.19155C0.239462 8.97892 0.375635 8.80443 0.538735 8.68655C0.701836 8.56867 0.885797 8.51179 1.07115 8.52191C1.25651 8.53203 1.43637 8.6088 1.59169 8.74407C1.74702 8.87934 1.87203 9.0681 1.95351 9.29036C2.03499 9.51262 2.0699 9.76012 2.05455 10.0067C2.0392 10.2532 1.97416 10.4897 1.86631 10.691C1.75846 10.8923 1.61181 11.0509 1.44188 11.1502V13.8922H5.17164C5.21232 14.2095 5.25502 14.5214 5.3018 14.8279H1.09209C1.0009 14.8286 0.913135 14.7816 0.847708 14.6968C0.782281 14.6121 0.744425 14.4965 0.742294 14.3749V11.2126C0.528037 11.1301 0.339723 10.9569 0.205807 10.7191C0.0718914 10.4813 -0.000349202 10.1918 1.26922e-06 9.89445ZM2.82885 8.98317C2.83178 8.64486 2.9285 8.31997 3.10037 8.0711C3.27223 7.82224 3.50709 7.66702 3.75967 7.63536C4.01225 7.6037 4.26468 7.69783 4.46831 7.89962C4.67195 8.10141 4.81237 8.39657 4.86252 8.72823C4.86252 8.88824 4.86252 9.04826 4.86252 9.20828C4.83143 9.44999 4.7527 9.67632 4.63442 9.8641C4.51613 10.0519 4.36254 10.1943 4.18938 10.2769V11.3617H4.93574C4.95404 11.6791 4.97641 11.991 5.00081 12.2974H3.84569C3.75291 12.2974 3.66394 12.2483 3.59834 12.1608C3.53275 12.0733 3.49589 11.9547 3.49589 11.8309V10.266C3.29915 10.1699 3.12947 9.99507 3.01007 9.76544C2.89067 9.53581 2.82738 9.2626 2.82885 8.98317ZM0.0162707 17.4912C0.0169303 17.1692 0.102466 16.8578 0.257913 16.6114C0.41336 16.365 0.628819 16.1994 0.866593 16.1435C1.10437 16.0875 1.34931 16.1449 1.55858 16.3055C1.76784 16.4661 1.9281 16.7197 2.01131 17.022H5.72684C5.80208 17.342 5.88343 17.6539 5.96681 17.9577H2.01131C1.92816 18.2598 1.76808 18.5133 1.55902 18.6739C1.34997 18.8345 1.10523 18.8921 0.867588 18.8365C0.629941 18.7809 0.414491 18.6158 0.258882 18.3699C0.103274 18.124 0.0174019 17.813 0.0162707 17.4912ZM2.23705 23.2003C2.23701 22.9221 2.30039 22.6504 2.41879 22.4213C2.5372 22.1921 2.70503 22.0164 2.90003 21.9175V20.1139C2.90002 20.0522 2.9092 19.991 2.92704 19.9341C2.94487 19.8771 2.971 19.8255 3.00391 19.7821C3.03682 19.7387 3.07587 19.7044 3.11878 19.6813C3.16169 19.6582 3.20761 19.6467 3.25389 19.6474H6.51794C6.63792 19.9701 6.76605 20.282 6.90027 20.5858H3.60164V21.9039C3.78033 21.9861 3.93859 22.1324 4.05906 22.3266C4.17953 22.5209 4.25755 22.7556 4.28456 23.0051C4.31158 23.2546 4.28654 23.5092 4.2122 23.741C4.13786 23.9727 4.01709 24.1727 3.86314 24.319C3.70919 24.4652 3.528 24.5521 3.33946 24.5701C3.15092 24.5881 2.96231 24.5364 2.79433 24.4209C2.62634 24.3053 2.48547 24.1303 2.38716 23.915C2.28886 23.6997 2.23692 23.4524 2.23705 23.2003ZM17.1642 31.0005C17.3497 31.001 17.5318 30.9347 17.6913 30.8085C17.8509 30.6823 17.9818 30.501 18.0704 30.2837C18.159 30.0664 18.2019 29.8212 18.1946 29.574C18.1873 29.3269 18.1301 29.087 18.0289 28.8796C17.9277 28.6723 17.7865 28.5053 17.62 28.3963C17.4535 28.2873 17.268 28.2403 17.0832 28.2603C16.8983 28.2803 16.7209 28.3665 16.5698 28.5099C16.4187 28.6533 16.2995 28.8485 16.2247 29.0749H14.1686V25.6901C13.9409 25.8582 13.707 26.0182 13.467 26.1701V29.5441C13.467 29.6678 13.5039 29.7864 13.5695 29.8739C13.6351 29.9614 13.724 30.0105 13.8168 30.0105H16.1779C16.2396 30.2958 16.3692 30.5467 16.5471 30.7252C16.725 30.9037 16.9416 31.0004 17.1642 31.0005ZM17.8496 27.2279C18.0385 27.2282 18.2237 27.1592 18.3852 27.0284C18.5466 26.8977 18.6779 26.7102 18.7647 26.4865C18.8516 26.2628 18.8906 26.0116 18.8775 25.7603C18.8644 25.5091 18.7997 25.2674 18.6905 25.062C18.5812 24.8565 18.4317 24.695 18.2583 24.5953C18.0849 24.4956 17.8942 24.4614 17.7072 24.4966C17.5202 24.5318 17.344 24.6349 17.198 24.7947C17.0521 24.9545 16.9419 25.1648 16.8795 25.4026H16.0661V23.9163C15.8396 24.1785 15.6058 24.428 15.3644 24.6649V25.8718C15.3642 25.9331 15.373 25.994 15.3905 26.0507C15.408 26.1075 15.4338 26.1591 15.4663 26.2025C15.4988 26.2458 15.5375 26.2802 15.58 26.3035C15.6226 26.3268 15.6682 26.3386 15.7142 26.3383H16.8795C16.9516 26.6007 17.0827 26.827 17.2549 26.9862C17.4271 27.1454 17.6319 27.2298 17.8415 27.2279H17.8496ZM11.4699 30.9761C11.7119 30.9771 11.9463 30.8641 12.1319 30.6571C12.3175 30.4501 12.4424 30.1623 12.4844 29.8445C12.5265 29.5268 12.4831 29.1994 12.3619 28.9202C12.2406 28.6409 12.0494 28.4277 11.8218 28.3182V26.3274C11.592 26.1891 11.3479 26.0372 11.1202 25.8826V28.3236C10.8927 28.4331 10.7016 28.646 10.5803 28.925C10.4591 29.204 10.4155 29.531 10.4573 29.8486C10.4991 30.1662 10.6236 30.454 10.8088 30.6612C10.994 30.8684 11.2282 30.9818 11.4699 30.9815V30.9761ZM7.19922 28.0171C7.40709 28.0136 7.60928 27.9262 7.77917 27.7664C7.94906 27.6067 8.07869 27.382 8.15098 27.1221H9.50338C9.59617 27.1207 9.68483 27.0707 9.75026 26.9829C9.81568 26.8952 9.85264 26.7766 9.85317 26.6529V24.8656C9.61116 24.6405 9.37729 24.4099 9.15155 24.1387V26.1891H8.16115C8.09951 25.9508 7.98985 25.7397 7.84419 25.5791C7.69853 25.4184 7.52251 25.3144 7.33542 25.2784C7.14834 25.2423 6.95744 25.2757 6.78365 25.3749C6.60986 25.474 6.4599 25.6351 6.35023 25.8404C6.24056 26.0457 6.17541 26.2873 6.16193 26.5388C6.14846 26.7902 6.18717 27.0417 6.27382 27.2658C6.36048 27.4898 6.49173 27.6777 6.65318 27.8088C6.81463 27.9399 7.00003 28.0091 7.18905 28.009L7.19922 28.0171ZM25 9.89445C25.0002 9.64705 24.9502 9.40418 24.8554 9.19155C24.7605 8.97892 24.6244 8.80443 24.4613 8.68655C24.2982 8.56867 24.1142 8.51179 23.9288 8.52191C23.7435 8.53203 23.5636 8.6088 23.4083 8.74407C23.253 8.87934 23.128 9.0681 23.0465 9.29036C22.965 9.51262 22.9301 9.76012 22.9454 10.0067C22.9608 10.2532 23.0258 10.4897 23.1337 10.691C23.2415 10.8923 23.3882 11.0509 23.5581 11.1502V13.8922H19.93C19.8934 14.2095 19.8507 14.5214 19.804 14.8279H23.9079C23.9973 14.8251 24.0825 14.7765 24.1458 14.6922C24.209 14.6078 24.2455 14.4942 24.2475 14.3749V11.2126C24.4618 11.1301 24.6501 10.9569 24.784 10.7191C24.9179 10.4813 24.9902 10.1918 24.9898 9.89445H25ZM22.1671 8.98317C22.1682 8.65961 22.0834 8.34597 21.9277 8.09783C21.772 7.84969 21.5555 7.68307 21.3165 7.62751C21.0774 7.57195 20.8314 7.63102 20.6219 7.79428C20.4124 7.95753 20.2531 8.21441 20.1721 8.51939C20.0968 8.82878 20.0968 9.16196 20.1721 9.47136C20.224 9.65743 20.3054 9.82641 20.4106 9.9668C20.5159 10.1072 20.6426 10.2157 20.7822 10.285V11.3699H20.1334C20.1171 11.6872 20.0988 11.9991 20.0765 12.3056H21.1502C21.243 12.3056 21.332 12.2564 21.3976 12.1689C21.4632 12.0814 21.5 11.9628 21.5 11.8391V10.266C21.6968 10.1699 21.8665 9.99507 21.9859 9.76544C22.1053 9.53581 22.1686 9.2626 22.1671 8.98317ZM24.9736 17.4912C24.9716 17.1705 24.8856 16.8608 24.7303 16.616C24.575 16.3711 24.3603 16.2065 24.1234 16.1507C23.8866 16.095 23.6426 16.1516 23.4339 16.3108C23.2251 16.4699 23.0647 16.7216 22.9806 17.022H19.3708C19.2935 17.342 19.2122 17.6539 19.1247 17.9577H22.9806C23.0637 18.2598 23.2238 18.5133 23.4328 18.6739C23.6419 18.8345 23.8866 18.8921 24.1243 18.8365C24.3619 18.7809 24.5774 18.6158 24.733 18.3699C24.8886 18.124 24.9745 17.813 24.9756 17.4912H24.9736ZM22.7528 23.2003C22.7528 22.9221 22.6894 22.6504 22.571 22.4213C22.4526 22.1921 22.2848 22.0164 22.0898 21.9175V20.1139C22.0898 20.0524 22.0807 19.9915 22.063 19.9347C22.0453 19.878 22.0193 19.8264 21.9866 19.7831C21.9539 19.7397 21.9151 19.7054 21.8725 19.6821C21.8298 19.6588 21.7841 19.647 21.738 19.6474H18.5634C18.4394 19.9701 18.3072 20.282 18.1709 20.5858H21.3882V21.9039C21.2095 21.9861 21.0512 22.1324 20.9308 22.3266C20.8103 22.5209 20.7323 22.7556 20.7053 23.0051C20.6783 23.2546 20.7033 23.5092 20.7776 23.741C20.852 23.9727 20.9727 24.1727 21.1267 24.319C21.2806 24.4652 21.4618 24.5521 21.6504 24.5701C21.8389 24.5881 22.0275 24.5364 22.1955 24.4209C22.3635 24.3053 22.5044 24.1303 22.6027 23.915C22.701 23.6997 22.7529 23.4524 22.7528 23.2003ZM17.1642 0.00049426C17.3498 -0.000236245 17.5321 0.0659883 17.6918 0.192154C17.8515 0.31832 17.9826 0.499729 18.0713 0.71717C18.1599 0.93461 18.2029 1.17999 18.1955 1.42731C18.1881 1.67463 18.1308 1.91469 18.0294 2.12207C17.9281 2.32944 17.7866 2.49641 17.6199 2.60529C17.4533 2.71417 17.2676 2.7609 17.0826 2.74054C16.8977 2.72018 16.7203 2.63349 16.5692 2.48964C16.4182 2.34579 16.2991 2.15014 16.2247 1.92342H14.1686V5.555C13.9368 5.39227 13.7029 5.22411 13.467 5.04511V1.45692C13.4667 1.39556 13.4756 1.33474 13.4931 1.27798C13.5106 1.22122 13.5363 1.16965 13.5689 1.12626C13.6014 1.08287 13.6401 1.04853 13.6826 1.02521C13.7252 1.00189 13.7708 0.990073 13.8168 0.990433H16.1779C16.2396 0.705141 16.3692 0.454327 16.5471 0.275778C16.725 0.0972284 16.9416 0.000615474 17.1642 0.00049426ZM11.4699 0.0221915C11.7114 0.0230712 11.9449 0.137144 12.1297 0.344452C12.3144 0.55176 12.4386 0.839101 12.4805 1.1562C12.5225 1.4733 12.4795 1.79997 12.359 2.07905C12.2386 2.35813 12.0484 2.57185 11.8218 2.68282V4.91222C11.5872 5.12376 11.3533 5.31904 11.1202 5.49804V2.68282C10.8937 2.57194 10.7036 2.35844 10.5831 2.07964C10.4627 1.80084 10.4195 1.47446 10.4612 1.15753C10.5029 0.840597 10.6267 0.553267 10.8111 0.345744C10.9955 0.138221 11.2287 0.0237001 11.4699 0.0221915ZM7.18905 2.98387C7.3977 2.98382 7.60143 3.06835 7.77322 3.22625C7.94502 3.38416 8.07676 3.60798 8.15098 3.86803H9.50338C9.59652 3.86946 9.68548 3.91981 9.75097 4.00816C9.81645 4.09651 9.85318 4.21572 9.85317 4.33995V6.33339C9.6193 6.46357 9.38542 6.58019 9.14952 6.68326V4.80373H8.16115C8.09951 5.04203 7.98985 5.25309 7.84419 5.41375C7.69853 5.57441 7.52251 5.67846 7.33542 5.71449C7.14834 5.75052 6.95744 5.71713 6.78365 5.61799C6.60986 5.51885 6.4599 5.35778 6.35023 5.15247C6.24056 4.94715 6.17541 4.70552 6.16193 4.45408C6.14846 4.20264 6.18717 3.9511 6.27382 3.72707C6.36048 3.50304 6.49173 3.31517 6.65318 3.18407C6.81463 3.05297 7.00003 2.9837 7.18905 2.98387ZM10.2396 13.5966H10.4653V13.0406C10.4643 12.2981 10.6785 11.5839 11.0632 11.0471C11.2491 10.7817 11.4739 10.5701 11.7237 10.4254C11.9735 10.2807 12.2429 10.206 12.5153 10.206C12.7876 10.206 13.057 10.2807 13.3068 10.4254C13.5566 10.5701 13.7814 10.7817 13.9673 11.0471C14.352 11.5839 14.5662 12.2981 14.5652 13.0406V13.5966H14.7909C14.8798 13.5973 14.9648 13.6446 15.0276 13.7284C15.0904 13.8122 15.126 13.9256 15.1265 14.0441V18.7578C15.126 18.876 15.0904 18.9891 15.0275 19.0725C14.9646 19.1558 14.8796 19.2026 14.7909 19.2026H10.2436C10.155 19.2026 10.0699 19.1558 10.0071 19.0725C9.94421 18.9891 9.90862 18.876 9.90808 18.7578V14.0441C9.90861 13.9256 9.94414 13.8122 10.007 13.7284C10.0698 13.6446 10.1548 13.5973 10.2436 13.5966H10.2396ZM12.2407 16.607L11.8807 17.8682H13.1498L12.8122 16.5908C12.9449 16.5002 13.0506 16.3522 13.1121 16.1711C13.1736 15.9899 13.1872 15.7864 13.1507 15.5936C13.1142 15.4008 13.0298 15.2302 12.9112 15.1097C12.7926 14.9892 12.6469 14.9259 12.4979 14.9301C12.3488 14.9343 12.2052 15.0058 12.0906 15.1329C11.976 15.26 11.897 15.4352 11.8667 15.6299C11.8364 15.8246 11.8565 16.0272 11.9236 16.2047C11.9908 16.3822 12.1012 16.524 12.2366 16.607H12.2407ZM11.1039 13.5966H13.9348V13.0406C13.9365 12.5161 13.7864 12.0109 13.5158 11.6302C13.3883 11.4479 13.2341 11.3025 13.0626 11.2031C12.8912 11.1037 12.7063 11.0524 12.5193 11.0524C12.3324 11.0524 12.1474 11.1037 11.976 11.2031C11.8046 11.3025 11.6503 11.4479 11.5228 11.6302C11.2522 12.0109 11.1022 12.5161 11.1039 13.0406V13.5966Z" fill="white"/>
<line id="Line 4" x1="25.3841" y1="0.32058" x2="0.384112" y2="30.3206" stroke="white"/>
</g>
</svg>
