<svg width="25" height="32" viewBox="0 0 25 32" fill="none" xmlns="http://www.w3.org/2000/svg">
<path id="Vector" fill-rule="evenodd" clip-rule="evenodd" d="M12.499 7.06615C14.7665 8.98364 16.8165 9.89222 18.5736 9.67524C18.8807 17.9609 16.5867 22.8536 12.5214 24.9094C8.59636 23.0109 6.2739 18.3162 6.44676 9.56404C8.51094 9.70779 10.5365 9.11383 12.499 7.07971V7.06615ZM15.3746 5.6287V6.81663C15.6105 6.95224 15.8444 7.07428 16.0762 7.18819V6.10333H16.8897C16.9722 6.40678 17.1323 6.66173 17.3418 6.82337C17.5513 6.985 17.7968 7.04299 18.0352 6.98713C18.2736 6.93126 18.4896 6.76513 18.6452 6.51792C18.8008 6.27072 18.8861 5.95826 18.8861 5.63548C18.8861 5.3127 18.8008 5.00024 18.6452 4.75304C18.4896 4.50583 18.2736 4.3397 18.0352 4.28384C17.7968 4.22797 17.5513 4.28596 17.3418 4.4476C17.1323 4.60924 16.9722 4.86419 16.8897 5.16763H15.7244C15.6784 5.16727 15.6328 5.17909 15.5902 5.20241C15.5477 5.22573 15.509 5.26007 15.4765 5.30346C15.4439 5.34685 15.4182 5.39842 15.4007 5.45518C15.3832 5.51194 15.3743 5.57276 15.3746 5.63413V5.6287ZM1.26922e-06 10.394C-0.000179928 10.1466 0.0497912 9.9037 0.144627 9.69106C0.239462 9.47843 0.375635 9.30395 0.538735 9.18607C0.701836 9.06819 0.885797 9.0113 1.07115 9.02142C1.25651 9.03155 1.43637 9.10831 1.59169 9.24358C1.74702 9.37885 1.87203 9.56761 1.95351 9.78987C2.03499 10.0121 2.0699 10.2596 2.05455 10.5062C2.0392 10.7527 1.97416 10.9892 1.86631 11.1905C1.75846 11.3918 1.61181 11.5504 1.44188 11.6497V14.3917H5.17164C5.21232 14.709 5.25502 15.0209 5.3018 15.3274H1.09209C1.0009 15.3281 0.913135 15.2811 0.847708 15.1964C0.782281 15.1116 0.744425 14.996 0.742294 14.8745V11.7121C0.528037 11.6296 0.339723 11.4564 0.205807 11.2186C0.0718914 10.9808 -0.000349202 10.6914 1.26922e-06 10.394ZM2.82885 9.48268C2.83178 9.14437 2.9285 8.81948 3.10037 8.57062C3.27223 8.32175 3.50709 8.16653 3.75967 8.13487C4.01225 8.10321 4.26468 8.19734 4.46831 8.39913C4.67195 8.60092 4.81237 8.89608 4.86252 9.22774C4.86252 9.38775 4.86252 9.54777 4.86252 9.70779C4.83143 9.9495 4.7527 10.1758 4.63442 10.3636C4.51613 10.5514 4.36254 10.6938 4.18938 10.7764V11.8612H4.93574C4.95404 12.1786 4.97641 12.4905 5.00081 12.7969H3.84569C3.75291 12.7969 3.66394 12.7478 3.59834 12.6603C3.53275 12.5728 3.49589 12.4542 3.49589 12.3304V10.7655C3.29915 10.6694 3.12947 10.4946 3.01007 10.265C2.89067 10.0353 2.82738 9.76211 2.82885 9.48268ZM0.0162707 17.9907C0.0169303 17.6687 0.102466 17.3573 0.257913 17.1109C0.41336 16.8645 0.628819 16.6989 0.866593 16.643C1.10437 16.5871 1.34931 16.6444 1.55858 16.805C1.76784 16.9656 1.9281 17.2193 2.01131 17.5215H5.72684C5.80208 17.8416 5.88343 18.1535 5.96681 18.4572H2.01131C1.92816 18.7593 1.76808 19.0128 1.55902 19.1734C1.34997 19.334 1.10523 19.3916 0.867588 19.336C0.629941 19.2805 0.414491 19.1153 0.258882 18.8694C0.103274 18.6235 0.0174019 18.3125 0.0162707 17.9907ZM2.23705 23.6998C2.23701 23.4216 2.30039 23.1499 2.41879 22.9208C2.5372 22.6917 2.70503 22.516 2.90003 22.417V20.6134C2.90002 20.5517 2.9092 20.4906 2.92704 20.4336C2.94487 20.3766 2.971 20.325 3.00391 20.2816C3.03682 20.2382 3.07587 20.204 3.11878 20.1808C3.16169 20.1577 3.20761 20.1462 3.25389 20.1469H6.51794C6.63792 20.4696 6.76605 20.7815 6.90027 21.0853H3.60164V22.4034C3.78033 22.4856 3.93859 22.6319 4.05906 22.8261C4.17953 23.0204 4.25755 23.2551 4.28456 23.5046C4.31158 23.7541 4.28654 24.0087 4.2122 24.2405C4.13786 24.4722 4.01709 24.6722 3.86314 24.8185C3.70919 24.9648 3.528 25.0516 3.33946 25.0696C3.15092 25.0876 2.96231 25.036 2.79433 24.9204C2.62634 24.8048 2.48547 24.6298 2.38716 24.4145C2.28886 24.1992 2.23692 23.9519 2.23705 23.6998ZM17.1642 31.5C17.3497 31.5005 17.5318 31.4342 17.6913 31.308C17.8509 31.1818 17.9818 31.0005 18.0704 30.7832C18.159 30.5659 18.2019 30.3207 18.1946 30.0735C18.1873 29.8264 18.1301 29.5865 18.0289 29.3792C17.9277 29.1718 17.7865 29.0048 17.62 28.8958C17.4535 28.7868 17.268 28.7398 17.0832 28.7598C16.8983 28.7798 16.7209 28.866 16.5698 29.0094C16.4187 29.1528 16.2995 29.348 16.2247 29.5744H14.1686V26.1896C13.9409 26.3577 13.707 26.5178 13.467 26.6696V30.0436C13.467 30.1673 13.5039 30.2859 13.5695 30.3734C13.6351 30.4609 13.724 30.5101 13.8168 30.5101H16.1779C16.2396 30.7953 16.3692 31.0462 16.5471 31.2247C16.725 31.4033 16.9416 31.4999 17.1642 31.5ZM17.8496 27.7274C18.0385 27.7277 18.2237 27.6587 18.3852 27.5279C18.5466 27.3972 18.6779 27.2097 18.7647 26.986C18.8516 26.7623 18.8906 26.5111 18.8775 26.2598C18.8644 26.0086 18.7997 25.767 18.6905 25.5615C18.5812 25.356 18.4317 25.1945 18.2583 25.0948C18.0849 24.9951 17.8942 24.9609 17.7072 24.9961C17.5202 25.0313 17.344 25.1344 17.198 25.2942C17.0521 25.454 16.9419 25.6643 16.8795 25.9021H16.0661V24.4158C15.8396 24.678 15.6058 24.9275 15.3644 25.1644V26.3713C15.3642 26.4327 15.373 26.4935 15.3905 26.5502C15.408 26.607 15.4338 26.6586 15.4663 26.702C15.4988 26.7454 15.5375 26.7797 15.58 26.803C15.6226 26.8263 15.6682 26.8382 15.7142 26.8378H16.8795C16.9516 27.1002 17.0827 27.3265 17.2549 27.4857C17.4271 27.6449 17.6319 27.7293 17.8415 27.7274H17.8496ZM11.4699 31.4756C11.7119 31.4766 11.9463 31.3636 12.1319 31.1566C12.3175 30.9496 12.4424 30.6618 12.4844 30.3441C12.5265 30.0263 12.4831 29.6989 12.3619 29.4197C12.2406 29.1404 12.0494 28.9272 11.8218 28.8177V26.8269C11.592 26.6886 11.3479 26.5367 11.1202 26.3821V28.8231C10.8927 28.9326 10.7016 29.1455 10.5803 29.4245C10.4591 29.7035 10.4155 30.0306 10.4573 30.3481C10.4991 30.6657 10.6236 30.9535 10.8088 31.1607C10.994 31.3679 11.2282 31.4814 11.4699 31.481V31.4756ZM7.19922 28.5166C7.40709 28.5131 7.60928 28.4257 7.77917 28.2659C7.94906 28.1062 8.07869 27.8815 8.15098 27.6216H9.50338C9.59617 27.6202 9.68483 27.5702 9.75026 27.4824C9.81568 27.3947 9.85264 27.2762 9.85317 27.1524V25.3651C9.61116 25.14 9.37729 24.9094 9.15155 24.6382V26.6886H8.16115C8.09951 26.4503 7.98985 26.2393 7.84419 26.0786C7.69853 25.9179 7.52251 25.8139 7.33542 25.7779C7.14834 25.7418 6.95744 25.7752 6.78365 25.8744C6.60986 25.9735 6.4599 26.1346 6.35023 26.3399C6.24056 26.5452 6.17541 26.7868 6.16193 27.0383C6.14846 27.2897 6.18717 27.5412 6.27382 27.7653C6.36048 27.9893 6.49173 28.1772 6.65318 28.3083C6.81463 28.4394 7.00003 28.5087 7.18905 28.5085L7.19922 28.5166ZM25 10.394C25.0002 10.1466 24.9502 9.9037 24.8554 9.69106C24.7605 9.47843 24.6244 9.30395 24.4613 9.18607C24.2982 9.06819 24.1142 9.0113 23.9288 9.02142C23.7435 9.03155 23.5636 9.10831 23.4083 9.24358C23.253 9.37885 23.128 9.56761 23.0465 9.78987C22.965 10.0121 22.9301 10.2596 22.9454 10.5062C22.9608 10.7527 23.0258 10.9892 23.1337 11.1905C23.2415 11.3918 23.3882 11.5504 23.5581 11.6497V14.3917H19.93C19.8934 14.709 19.8507 15.0209 19.804 15.3274H23.9079C23.9973 15.3246 24.0825 15.276 24.1458 15.1917C24.209 15.1073 24.2455 14.9937 24.2475 14.8745V11.7121C24.4618 11.6296 24.6501 11.4564 24.784 11.2186C24.9179 10.9808 24.9902 10.6914 24.9898 10.394H25ZM22.1671 9.48268C22.1682 9.15912 22.0834 8.84548 21.9277 8.59734C21.772 8.3492 21.5555 8.18258 21.3165 8.12702C21.0774 8.07146 20.8314 8.13054 20.6219 8.29379C20.4124 8.45704 20.2531 8.71392 20.1721 9.0189C20.0968 9.32829 20.0968 9.66147 20.1721 9.97087C20.224 10.1569 20.3054 10.3259 20.4106 10.4663C20.5159 10.6067 20.6426 10.7152 20.7822 10.7845V11.8694H20.1334C20.1171 12.1867 20.0988 12.4986 20.0765 12.8051H21.1502C21.243 12.8051 21.332 12.7559 21.3976 12.6684C21.4632 12.581 21.5 12.4623 21.5 12.3386V10.7655C21.6968 10.6694 21.8665 10.4946 21.9859 10.265C22.1053 10.0353 22.1686 9.76211 22.1671 9.48268ZM24.9736 17.9907C24.9716 17.67 24.8856 17.3603 24.7303 17.1155C24.575 16.8706 24.3603 16.706 24.1234 16.6502C23.8866 16.5945 23.6426 16.6511 23.4339 16.8103C23.2251 16.9694 23.0647 17.2211 22.9806 17.5215H19.3708C19.2935 17.8416 19.2122 18.1535 19.1247 18.4572H22.9806C23.0637 18.7593 23.2238 19.0128 23.4328 19.1734C23.6419 19.334 23.8866 19.3916 24.1243 19.336C24.3619 19.2805 24.5774 19.1153 24.733 18.8694C24.8886 18.6235 24.9745 18.3125 24.9756 17.9907H24.9736ZM22.7528 23.6998C22.7528 23.4216 22.6894 23.1499 22.571 22.9208C22.4526 22.6917 22.2848 22.516 22.0898 22.417V20.6134C22.0898 20.5519 22.0807 20.491 22.063 20.4342C22.0453 20.3775 22.0193 20.3259 21.9866 20.2826C21.9539 20.2392 21.9151 20.2049 21.8725 20.1816C21.8298 20.1583 21.7841 20.1465 21.738 20.1469H18.5634C18.4394 20.4696 18.3072 20.7815 18.1709 21.0853H21.3882V22.4034C21.2095 22.4856 21.0512 22.6319 20.9308 22.8261C20.8103 23.0204 20.7323 23.2551 20.7053 23.5046C20.6783 23.7541 20.7033 24.0087 20.7776 24.2405C20.852 24.4722 20.9727 24.6722 21.1267 24.8185C21.2806 24.9648 21.4618 25.0516 21.6504 25.0696C21.8389 25.0876 22.0275 25.036 22.1955 24.9204C22.3635 24.8048 22.5044 24.6298 22.6027 24.4145C22.701 24.1992 22.7529 23.9519 22.7528 23.6998ZM17.1642 0.500006C17.3498 0.499275 17.5321 0.5655 17.6918 0.691666C17.8515 0.817832 17.9826 0.999241 18.0713 1.21668C18.1599 1.43412 18.2029 1.6795 18.1955 1.92682C18.1881 2.17414 18.1308 2.4142 18.0294 2.62158C17.9281 2.82896 17.7866 2.99592 17.6199 3.1048C17.4533 3.21368 17.2676 3.26042 17.0826 3.24006C16.8977 3.2197 16.7203 3.133 16.5692 2.98915C16.4182 2.8453 16.2991 2.64965 16.2247 2.42293H14.1686V6.05451C13.9368 5.89178 13.7029 5.72363 13.467 5.54462V1.95644C13.4667 1.89507 13.4756 1.83425 13.4931 1.77749C13.5106 1.72073 13.5363 1.66916 13.5689 1.62577C13.6014 1.58238 13.6401 1.54804 13.6826 1.52472C13.7252 1.5014 13.7708 1.48958 13.8168 1.48994H16.1779C16.2396 1.20465 16.3692 0.953839 16.5471 0.775289C16.725 0.59674 16.9416 0.500127 17.1642 0.500006ZM11.4699 0.521703C11.7114 0.522583 11.9449 0.636656 12.1297 0.843964C12.3144 1.05127 12.4386 1.33861 12.4805 1.65571C12.5225 1.97281 12.4795 2.29948 12.359 2.57856C12.2386 2.85764 12.0484 3.07136 11.8218 3.18233V5.41173C11.5872 5.62328 11.3533 5.81855 11.1202 5.99755V3.18233C10.8937 3.07145 10.7036 2.85795 10.5831 2.57915C10.4627 2.30035 10.4195 1.97397 10.4612 1.65704C10.5029 1.34011 10.6267 1.05278 10.8111 0.845256C10.9955 0.637733 11.2287 0.523212 11.4699 0.521703ZM7.18905 3.48338C7.3977 3.48333 7.60143 3.56786 7.77322 3.72577C7.94502 3.88367 8.07676 4.10749 8.15098 4.36755H9.50338C9.59652 4.36897 9.68548 4.41932 9.75097 4.50767C9.81645 4.59602 9.85318 4.71524 9.85317 4.83946V6.8329C9.6193 6.96308 9.38542 7.07971 9.14952 7.18277V5.30324H8.16115C8.09951 5.54155 7.98985 5.7526 7.84419 5.91326C7.69853 6.07392 7.52251 6.17797 7.33542 6.214C7.14834 6.25003 6.95744 6.21664 6.78365 6.1175C6.60986 6.01836 6.4599 5.85729 6.35023 5.65198C6.24056 5.44667 6.17541 5.20503 6.16193 4.95359C6.14846 4.70215 6.18717 4.45062 6.27382 4.22658C6.36048 4.00255 6.49173 3.81468 6.65318 3.68358C6.81463 3.55248 7.00003 3.48321 7.18905 3.48338ZM10.2396 14.0961H10.4653V13.5401C10.4643 12.7976 10.6785 12.0834 11.0632 11.5466C11.2491 11.2812 11.4739 11.0696 11.7237 10.9249C11.9735 10.7802 12.2429 10.7055 12.5153 10.7055C12.7876 10.7055 13.057 10.7802 13.3068 10.9249C13.5566 11.0696 13.7814 11.2812 13.9673 11.5466C14.352 12.0834 14.5662 12.7976 14.5652 13.5401V14.0961H14.7909C14.8798 14.0968 14.9648 14.1442 15.0276 14.2279C15.0904 14.3117 15.126 14.4251 15.1265 14.5436V19.2573C15.126 19.3755 15.0904 19.4886 15.0275 19.572C14.9646 19.6553 14.8796 19.7021 14.7909 19.7021H10.2436C10.155 19.7021 10.0699 19.6553 10.0071 19.572C9.94421 19.4886 9.90862 19.3755 9.90808 19.2573V14.5436C9.90861 14.4251 9.94414 14.3117 10.007 14.2279C10.0698 14.1442 10.1548 14.0968 10.2436 14.0961H10.2396ZM12.2407 17.1066L11.8807 18.3677H13.1498L12.8122 17.0903C12.9449 16.9997 13.0506 16.8517 13.1121 16.6706C13.1736 16.4895 13.1872 16.2859 13.1507 16.0931C13.1142 15.9003 13.0298 15.7297 12.9112 15.6092C12.7926 15.4887 12.6469 15.4254 12.4979 15.4296C12.3488 15.4338 12.2052 15.5053 12.0906 15.6324C11.976 15.7595 11.897 15.9347 11.8667 16.1294C11.8364 16.3241 11.8565 16.5267 11.9236 16.7042C11.9908 16.8817 12.1012 17.0235 12.2366 17.1066H12.2407ZM11.1039 14.0961H13.9348V13.5401C13.9365 13.0156 13.7864 12.5104 13.5158 12.1297C13.3883 11.9474 13.2341 11.802 13.0626 11.7026C12.8912 11.6032 12.7063 11.5519 12.5193 11.5519C12.3324 11.5519 12.1474 11.6032 11.976 11.7026C11.8046 11.802 11.6503 11.9474 11.5228 12.1297C11.2522 12.5104 11.1022 13.0156 11.1039 13.5401V14.0961Z" fill="white"/>
</svg>
