<svg width="92" height="143" viewBox="0 0 92 143" fill="none" xmlns="http://www.w3.org/2000/svg">
<g id="Group">
<g id="Group_2">
<path id="Vector" d="M46.3782 142.5C44.5617 142.5 42.7325 142.416 40.8938 142.244C26.7619 140.929 12.9953 134.478 4.96234 125.41C2.47736 122.605 2.48053 118.06 4.96869 115.261C7.45685 112.46 11.4868 112.463 13.9718 115.268C19.8754 121.932 30.8538 126.906 41.9402 127.939C51.5816 128.837 65.7342 127.309 78.3877 114.921C81.0426 112.322 85.063 112.64 87.3686 115.633C89.6741 118.626 89.3899 123.158 86.7366 125.757C75.5979 136.665 61.4342 142.5 46.3782 142.5Z" fill="#324134" stroke="#324134" stroke-miterlimit="10" stroke-linecap="round" stroke-linejoin="round"/>
</g>
<g id="Group_3">
<path id="Vector_2" d="M16.6309 114.285C16.2816 111.857 14.019 111.581 12.6424 113.706C11.2658 115.83 11.9088 118.68 11.9088 118.68C11.9088 118.68 17.1279 117.747 16.6309 114.285Z" fill="white" stroke="#F6C90E" stroke-miterlimit="10" stroke-linecap="round" stroke-linejoin="round"/>
<path id="Vector_3" d="M34.5796 122.32C35.8958 120.46 37.9504 121.658 38.241 124.352C38.5316 127.045 36.7866 129.08 36.7866 129.08C36.7866 129.08 32.7044 124.969 34.5796 122.32Z" fill="white" stroke="#F6C90E" stroke-miterlimit="10" stroke-linecap="round" stroke-linejoin="round"/>
<path id="Vector_4" d="M32.0066 35.6872C25.0963 36.183 17.6413 32.6729 13.8987 29.7088C8.68742 25.583 1.38965 25.9678 1.38965 44.1375C1.38965 62.3072 1.38965 114.659 1.38965 114.659L45.516 76.4137" stroke="#F6C90E" stroke-miterlimit="10" stroke-linecap="round" stroke-linejoin="round"/>
<g id="Group_4">
<g id="Clip path group">
<mask id="mask0_194_527" style="mask-type:luminance" maskUnits="userSpaceOnUse" x="1" y="39" width="33" height="76">
<g id="SVGID_00000178193990674130577800000002160075351899365001_">
<path id="Vector_5" d="M1.39125 45.2332L7.70771 39.0078C7.70771 39.0078 11.3217 45.2028 21.857 47.7714C32.394 50.3399 33.8898 86.4913 33.8898 86.4913L1.38965 114.66L1.38965 45.2332H1.39125Z" fill="white"/>
</g>
</mask>
<g mask="url(#mask0_194_527)">
<path id="Vector_6" d="M6.15003 36.9099H1.38965L1.38965 117.486H6.15003L6.15003 36.9099Z" fill="#F6C90E"/>
</g>
</g>
<g id="Clip path group_2">
<mask id="mask1_194_527" style="mask-type:luminance" maskUnits="userSpaceOnUse" x="1" y="39" width="33" height="76">
<g id="SVGID_00000178193990674130577800000002160075351899365001__2">
<path id="Vector_7" d="M1.39125 45.2332L7.70771 39.0078C7.70771 39.0078 11.3217 45.2028 21.857 47.7714C32.394 50.3399 33.8898 86.4913 33.8898 86.4913L1.38965 114.66L1.38965 45.2332H1.39125Z" fill="white"/>
</g>
</mask>
<g mask="url(#mask1_194_527)">
<path id="Vector_8" d="M12.4703 35.0188H7.70996L7.70996 112.024H12.4703L12.4703 35.0188Z" fill="#F6C90E"/>
</g>
</g>
<g id="Clip path group_3">
<mask id="mask2_194_527" style="mask-type:luminance" maskUnits="userSpaceOnUse" x="1" y="39" width="33" height="76">
<g id="SVGID_00000178193990674130577800000002160075351899365001__3">
<path id="Vector_9" d="M1.39125 45.2332L7.70771 39.0078C7.70771 39.0078 11.3217 45.2028 21.857 47.7714C32.394 50.3399 33.8898 86.4913 33.8898 86.4913L1.38965 114.66L1.38965 45.2332H1.39125Z" fill="white"/>
</g>
</mask>
<g mask="url(#mask2_194_527)">
<path id="Vector_10" d="M18.7867 44.1384H14.0264L14.0264 118.634H18.7867L18.7867 44.1384Z" fill="#F6C90E"/>
</g>
</g>
<g id="Clip path group_4">
<mask id="mask3_194_527" style="mask-type:luminance" maskUnits="userSpaceOnUse" x="1" y="39" width="33" height="76">
<g id="SVGID_00000178193990674130577800000002160075351899365001__4">
<path id="Vector_11" d="M1.39125 45.2332L7.70771 39.0078C7.70771 39.0078 11.3217 45.2028 21.857 47.7714C32.394 50.3399 33.8898 86.4913 33.8898 86.4913L1.38965 114.66L1.38965 45.2332H1.39125Z" fill="white"/>
</g>
</mask>
<g mask="url(#mask3_194_527)">
<path id="Vector_12" d="M25.1032 44.1382H20.3428L20.3428 118.634H25.1032L25.1032 44.1382Z" fill="#F6C90E"/>
</g>
</g>
<g id="Clip path group_5">
<mask id="mask4_194_527" style="mask-type:luminance" maskUnits="userSpaceOnUse" x="1" y="39" width="33" height="76">
<g id="SVGID_00000178193990674130577800000002160075351899365001__5">
<path id="Vector_13" d="M1.39125 45.2332L7.70771 39.0078C7.70771 39.0078 11.3217 45.2028 21.857 47.7714C32.394 50.3399 33.8898 86.4913 33.8898 86.4913L1.38965 114.66L1.38965 45.2332H1.39125Z" fill="white"/>
</g>
</mask>
<g mask="url(#mask4_194_527)">
<path id="Vector_14" d="M31.4147 44.1379H26.6543L26.6543 118.633H31.4147L31.4147 44.1379Z" fill="#F6C90E"/>
</g>
</g>
</g>
<g id="Group_5">
<path id="Vector_15" d="M32.881 122.907L18.3252 116.48L31.1376 72.5581L45.6934 78.9858L32.881 122.907Z" fill="white"/>
<g id="Clip path group_6">
<mask id="mask5_194_527" style="mask-type:luminance" maskUnits="userSpaceOnUse" x="18" y="72" width="28" height="51">
<g id="XMLID_00000028284568181831632850000017409584890261404577_">
<path id="Vector_16" d="M32.88 122.907L18.3242 116.479L31.1366 72.5579L45.6924 78.9855L32.88 122.907Z" fill="white"/>
</g>
</mask>
<g mask="url(#mask5_194_527)">
<path id="Vector_17" d="M28.4169 78.061L28.3486 89.2477L33.9329 82.6896L33.4708 92.3371L39.6759 86.094L38.2723 95.9311L44.9744 90.1051" stroke="#F6C90E" stroke-miterlimit="10" stroke-linecap="round" stroke-linejoin="round"/>
</g>
</g>
<g id="Clip path group_7">
<mask id="mask6_194_527" style="mask-type:luminance" maskUnits="userSpaceOnUse" x="18" y="72" width="28" height="51">
<g id="XMLID_00000028284568181831632850000017409584890261404577__2">
<path id="Vector_18" d="M32.88 122.907L18.3242 116.479L31.1366 72.5579L45.6924 78.9855L32.88 122.907Z" fill="white"/>
</g>
</mask>
<g mask="url(#mask6_194_527)">
<path id="Vector_19" d="M21.8535 97.7333L28.1062 91.501V100.092L33.1459 94.2091L32.4965 103.291L37.7251 98.111L37.8473 109.172" stroke="#F6C90E" stroke-miterlimit="10" stroke-linecap="round" stroke-linejoin="round"/>
</g>
</g>
<g id="Clip path group_8">
<mask id="mask7_194_527" style="mask-type:luminance" maskUnits="userSpaceOnUse" x="18" y="72" width="28" height="51">
<g id="XMLID_00000028284568181831632850000017409584890261404577__3">
<path id="Vector_20" d="M32.88 122.907L18.3242 116.479L31.1366 72.5579L45.6924 78.9855L32.88 122.907Z" fill="white"/>
</g>
</mask>
<g mask="url(#mask7_194_527)">
<path id="Vector_21" d="M22.4268 96.429L23.1492 108.228L27.5665 102.157L27.8062 111.444L32.2298 105.011L33.4254 114.091L39.7527 107.66" stroke="#F6C90E" stroke-miterlimit="10" stroke-linecap="round" stroke-linejoin="round"/>
</g>
</g>
<g id="Clip path group_9">
<mask id="mask8_194_527" style="mask-type:luminance" maskUnits="userSpaceOnUse" x="18" y="72" width="28" height="51">
<g id="XMLID_00000028284568181831632850000017409584890261404577__4">
<path id="Vector_22" d="M32.88 122.907L18.3242 116.479L31.1366 72.5579L45.6924 78.9855L32.88 122.907Z" fill="white"/>
</g>
</mask>
<g mask="url(#mask8_194_527)">
<path id="Vector_23" d="M15.4795 117.834L22.7325 110.307L22.5769 120.596L27.8722 113.146L28.1104 122.393L33.1151 115.605L32.8785 122.906" stroke="#F6C90E" stroke-miterlimit="10" stroke-linecap="round" stroke-linejoin="round"/>
</g>
</g>
<path id="Vector_24" d="M32.881 122.907L18.3252 116.48L31.1376 72.5581L45.6934 78.9858L32.881 122.907Z" stroke="#F6C90E" stroke-miterlimit="10" stroke-linecap="round" stroke-linejoin="round"/>
</g>
<path id="Vector_25" d="M49.1386 112.957C48.7162 107.848 47.0379 88.7434 47.0379 88.7434H46.0694H45.909H44.942C44.942 88.7434 43.2637 107.848 42.8414 112.957C42.419 118.065 44.7563 119.767 45.9693 121.28H45.9312C47.1459 119.767 49.5609 118.065 49.1386 112.957Z" fill="#F6C90E"/>
<path id="Vector_26" d="M40.9937 112.639C41.9003 107.628 45.1965 88.8449 45.1965 88.8449L44.2772 88.469L44.1248 88.4064L43.2054 88.0305C43.2054 88.0305 36.7241 105.514 35.0156 110.198C33.3071 114.882 35.0902 117.404 35.8556 119.31L35.819 119.296C37.3592 118.331 40.087 117.649 40.9937 112.639Z" fill="#F6C90E"/>
<g id="Group_6">
<path id="Vector_27" d="M34.0796 126.419C34.0018 126.419 33.924 126.414 33.8446 126.405C29.4956 125.896 20.9216 122.902 15.477 117.835C14.3942 116.827 14.1814 114.932 14.9991 113.6C15.8184 112.268 17.3586 112.005 18.4399 113.013C22.8666 117.131 30.4991 119.942 34.3082 120.387C35.6594 120.545 36.6502 122.02 36.5216 123.682C36.4025 125.247 35.3323 126.419 34.0796 126.419Z" fill="white" stroke="#F6C90E" stroke-miterlimit="10" stroke-linecap="round" stroke-linejoin="round"/>
</g>
<path id="Vector_28" d="M26.7051 122.643C26.1223 124.425 23.2802 125.782 23.2802 125.782C23.2802 125.782 21.9957 122.381 22.5784 120.599C23.1611 118.816 24.2519 118.764 25.392 119.329C26.532 119.895 27.2878 120.86 26.7051 122.643Z" fill="white" stroke="#F6C90E" stroke-miterlimit="10" stroke-linecap="round" stroke-linejoin="round"/>
<path id="Vector_29" d="M75.3715 114.285C75.7208 111.856 77.9834 111.581 79.36 113.705C80.7366 115.83 80.0919 118.679 80.0919 118.679C80.0919 118.679 74.8729 117.747 75.3715 114.285Z" fill="white" stroke="#F6C90E" stroke-miterlimit="10" stroke-linecap="round" stroke-linejoin="round"/>
<path id="Vector_30" d="M57.4235 122.32C56.1073 120.46 54.0527 121.658 53.7621 124.352C53.4716 127.045 55.2165 129.08 55.2165 129.08C55.2165 129.08 59.2987 124.969 57.4235 122.32Z" fill="white" stroke="#F6C90E" stroke-miterlimit="10" stroke-linecap="round" stroke-linejoin="round"/>
<path id="Vector_31" d="M59.9938 35.6872C66.9041 36.183 74.3591 32.6729 78.1017 29.7088C83.313 25.583 90.6108 25.9678 90.6108 44.1375C90.6108 62.3072 90.6108 114.659 90.6108 114.659L46.4844 76.4137" stroke="#F6C90E" stroke-miterlimit="10" stroke-linecap="round" stroke-linejoin="round"/>
<g id="Group_7">
<g id="Clip path group_10">
<mask id="mask9_194_527" style="mask-type:luminance" maskUnits="userSpaceOnUse" x="58" y="39" width="33" height="76">
<g id="SVGID_00000139973617607695301170000007352530336652441486_">
<path id="Vector_32" d="M90.6049 45.2364L84.2885 39.011C84.2885 39.011 80.6745 45.206 70.1391 47.7745C59.6022 50.3431 58.1064 86.4945 58.1064 86.4945L90.6065 114.663L90.6065 45.2364H90.6049Z" fill="white"/>
</g>
</mask>
<g mask="url(#mask9_194_527)">
<path id="Vector_33" d="M90.609 36.9131H85.8486L85.8486 117.489H90.609L90.609 36.9131Z" fill="#F6C90E"/>
</g>
</g>
<g id="Clip path group_11">
<mask id="mask10_194_527" style="mask-type:luminance" maskUnits="userSpaceOnUse" x="58" y="39" width="33" height="76">
<g id="SVGID_00000139973617607695301170000007352530336652441486__2">
<path id="Vector_34" d="M90.6049 45.2364L84.2885 39.011C84.2885 39.011 80.6745 45.206 70.1391 47.7745C59.6022 50.3431 58.1064 86.4945 58.1064 86.4945L90.6065 114.663L90.6065 45.2364H90.6049Z" fill="white"/>
</g>
</mask>
<g mask="url(#mask10_194_527)">
<path id="Vector_35" d="M84.2945 35.021H79.5342L79.5342 112.026H84.2945L84.2945 35.021Z" fill="#F6C90E"/>
</g>
</g>
<g id="Clip path group_12">
<mask id="mask11_194_527" style="mask-type:luminance" maskUnits="userSpaceOnUse" x="58" y="39" width="33" height="76">
<g id="SVGID_00000139973617607695301170000007352530336652441486__3">
<path id="Vector_36" d="M90.6049 45.2364L84.2885 39.011C84.2885 39.011 80.6745 45.206 70.1391 47.7745C59.6022 50.3431 58.1064 86.4945 58.1064 86.4945L90.6065 114.663L90.6065 45.2364H90.6049Z" fill="white"/>
</g>
</mask>
<g mask="url(#mask11_194_527)">
<path id="Vector_37" d="M77.9742 44.1406H73.2139L73.2139 118.636H77.9742L77.9742 44.1406Z" fill="#F6C90E"/>
</g>
</g>
<g id="Clip path group_13">
<mask id="mask12_194_527" style="mask-type:luminance" maskUnits="userSpaceOnUse" x="58" y="39" width="33" height="76">
<g id="SVGID_00000139973617607695301170000007352530336652441486__4">
<path id="Vector_38" d="M90.6049 45.2364L84.2885 39.011C84.2885 39.011 80.6745 45.206 70.1391 47.7745C59.6022 50.3431 58.1064 86.4945 58.1064 86.4945L90.6065 114.663L90.6065 45.2364H90.6049Z" fill="white"/>
</g>
</mask>
<g mask="url(#mask12_194_527)">
<path id="Vector_39" d="M71.654 44.1406H66.8936L66.8936 118.636H71.654L71.654 44.1406Z" fill="#F6C90E"/>
</g>
</g>
<g id="Clip path group_14">
<mask id="mask13_194_527" style="mask-type:luminance" maskUnits="userSpaceOnUse" x="58" y="39" width="33" height="76">
<g id="SVGID_00000139973617607695301170000007352530336652441486__5">
<path id="Vector_40" d="M90.6049 45.2364L84.2885 39.011C84.2885 39.011 80.6745 45.206 70.1391 47.7745C59.6022 50.3431 58.1064 86.4945 58.1064 86.4945L90.6065 114.663L90.6065 45.2364H90.6049Z" fill="white"/>
</g>
</mask>
<g mask="url(#mask13_194_527)">
<path id="Vector_41" d="M65.3376 44.1406H60.5771L60.5771 118.636H65.3376L65.3376 44.1406Z" fill="#F6C90E"/>
</g>
</g>
</g>
<g id="Group_8">
<path id="Vector_42" d="M59.1249 122.908L73.6791 116.481L60.8667 72.5591L46.3125 78.9868L59.1249 122.908Z" fill="white"/>
<g id="Clip path group_15">
<mask id="mask14_194_527" style="mask-type:luminance" maskUnits="userSpaceOnUse" x="46" y="72" width="28" height="51">
<g id="XMLID_00000011033416577606071350000009608683370589425795_">
<path id="Vector_43" d="M59.1258 122.908L73.6801 116.481L60.8677 72.5591L46.3135 78.9868L59.1258 122.908Z" fill="white"/>
</g>
</mask>
<g mask="url(#mask14_194_527)">
<path id="Vector_44" d="M63.5897 78.0615L63.658 89.2482L58.0737 82.6901L58.5358 92.3376L52.3307 86.0945L53.7343 95.9316L47.0322 90.1056" stroke="#F6C90E" stroke-miterlimit="10" stroke-linecap="round" stroke-linejoin="round"/>
</g>
</g>
<g id="Clip path group_16">
<mask id="mask15_194_527" style="mask-type:luminance" maskUnits="userSpaceOnUse" x="46" y="72" width="28" height="51">
<g id="XMLID_00000011033416577606071350000009608683370589425795__2">
<path id="Vector_45" d="M59.1258 122.908L73.6801 116.481L60.8677 72.5591L46.3135 78.9868L59.1258 122.908Z" fill="white"/>
</g>
</mask>
<g mask="url(#mask15_194_527)">
<path id="Vector_46" d="M70.1451 97.734L63.8908 91.5017V100.093L58.8528 94.2098L59.5022 103.292L54.2736 98.1117L54.1514 109.173" stroke="#F6C90E" stroke-miterlimit="10" stroke-linecap="round" stroke-linejoin="round"/>
</g>
</g>
<g id="Clip path group_17">
<mask id="mask16_194_527" style="mask-type:luminance" maskUnits="userSpaceOnUse" x="46" y="72" width="28" height="51">
<g id="XMLID_00000011033416577606071350000009608683370589425795__3">
<path id="Vector_47" d="M59.1258 122.908L73.6801 116.481L60.8677 72.5591L46.3135 78.9868L59.1258 122.908Z" fill="white"/>
</g>
</mask>
<g mask="url(#mask16_194_527)">
<path id="Vector_48" d="M69.5837 96.4302L68.8613 108.229L64.4441 102.158L64.2043 111.445L59.7808 105.013L58.5851 114.093L52.2578 107.662" stroke="#F6C90E" stroke-miterlimit="10" stroke-linecap="round" stroke-linejoin="round"/>
</g>
</g>
<g id="Clip path group_18">
<mask id="mask17_194_527" style="mask-type:luminance" maskUnits="userSpaceOnUse" x="46" y="72" width="28" height="51">
<g id="XMLID_00000011033416577606071350000009608683370589425795__4">
<path id="Vector_49" d="M59.1258 122.908L73.6801 116.481L60.8677 72.5591L46.3135 78.9868L59.1258 122.908Z" fill="white"/>
</g>
</mask>
<g mask="url(#mask17_194_527)">
<path id="Vector_50" d="M76.5242 117.835L69.2712 110.308L69.4269 120.597L64.1316 113.147L63.8918 122.394L58.8887 115.606L59.1253 122.907" stroke="#F6C90E" stroke-miterlimit="10" stroke-linecap="round" stroke-linejoin="round"/>
</g>
</g>
<path id="Vector_51" d="M59.1249 122.908L73.6791 116.481L60.8667 72.5591L46.3125 78.9868L59.1249 122.908Z" stroke="#F6C90E" stroke-miterlimit="10" stroke-linecap="round" stroke-linejoin="round"/>
</g>
<path id="Vector_52" d="M51.0017 112.639C50.0951 107.628 46.7988 88.8449 46.7988 88.8449L47.7181 88.469L47.8706 88.4064L48.7899 88.0305C48.7899 88.0305 55.2713 105.514 56.9797 110.198C58.6882 114.882 56.9051 117.404 56.1398 119.31L56.1763 119.296C54.6362 118.331 51.9083 117.649 51.0017 112.639Z" fill="#F6C90E"/>
<path id="Vector_53" d="M46.075 42.9641H45.9209C34.3328 49.5242 21.8555 47.8202 21.8555 47.8202C21.8555 47.8202 25.8108 85.2174 45.9209 94.5896H46.075C66.1867 85.2192 70.1404 47.8202 70.1404 47.8202C70.1404 47.8202 57.6631 49.5225 46.075 42.9641Z" fill="white" stroke="#F6C90E" stroke-width="0.5" stroke-miterlimit="10" stroke-linecap="round" stroke-linejoin="round"/>
<g id="Group_9">
<path id="Vector_54" d="M46.0006 92.1175C30.8103 84.3656 25.5817 58.7812 24.2432 50.2972C24.683 50.3115 25.1704 50.3222 25.7008 50.3222C29.9481 50.3222 38.1125 49.6797 46.0022 45.4771C53.892 49.6797 62.0563 50.3222 66.3037 50.3222C66.8324 50.3222 67.3199 50.3133 67.7597 50.2972C66.4117 58.783 61.1672 84.3763 46.0006 92.1175Z" fill="white"/>
<g id="Clip path group_19">
<mask id="mask18_194_527" style="mask-type:luminance" maskUnits="userSpaceOnUse" x="24" y="45" width="44" height="48">
<g id="XMLID_00000045621093110170763570000008911734328297200299_">
<path id="Vector_55" d="M46.0006 92.118C30.8103 84.3661 25.5817 58.7817 24.2432 50.2977C24.683 50.312 25.1704 50.3227 25.7008 50.3227C29.9481 50.3227 38.1125 49.6802 46.0022 45.4775C53.892 49.6802 62.0563 50.3227 66.3037 50.3227C66.8324 50.3227 67.3199 50.3138 67.7597 50.2977C66.4117 58.7835 61.1672 84.3768 46.0006 92.118Z" fill="white"/>
</g>
</mask>
<g mask="url(#mask18_194_527)">
<path id="Vector_56" d="M38.5917 43.7446H23.7676L23.7676 95.7603H38.5917L38.5917 43.7446Z" fill="#F6C90E"/>
</g>
</g>
<g id="Clip path group_20">
<mask id="mask19_194_527" style="mask-type:luminance" maskUnits="userSpaceOnUse" x="24" y="45" width="44" height="48">
<g id="XMLID_00000045621093110170763570000008911734328297200299__2">
<path id="Vector_57" d="M46.0006 92.118C30.8103 84.3661 25.5817 58.7817 24.2432 50.2977C24.683 50.312 25.1704 50.3227 25.7008 50.3227C29.9481 50.3227 38.1125 49.6802 46.0022 45.4775C53.892 49.6802 62.0563 50.3227 66.3037 50.3227C66.8324 50.3227 67.3199 50.3138 67.7597 50.2977C66.4117 58.7835 61.1672 84.3768 46.0006 92.118Z" fill="white"/>
</g>
</mask>
<g mask="url(#mask19_194_527)">
<path id="Vector_58" d="M68.0507 43.7454H53.2266L53.2266 95.761H68.0507V43.7454Z" fill="#F6C90E"/>
</g>
</g>
<path id="Vector_59" d="M46.0006 92.1175C30.8103 84.3656 25.5817 58.7812 24.2432 50.2972C24.683 50.3115 25.1704 50.3222 25.7008 50.3222C29.9481 50.3222 38.1125 49.6797 46.0022 45.4771C53.892 49.6797 62.0563 50.3222 66.3037 50.3222C66.8324 50.3222 67.3199 50.3133 67.7597 50.2972C66.4117 58.783 61.1672 84.3763 46.0006 92.1175Z" stroke="#F6C90E" stroke-width="0.5" stroke-miterlimit="10" stroke-linecap="round" stroke-linejoin="round"/>
</g>
<g id="Group_10">
<path id="Vector_60" d="M46.0006 92.1175C30.8103 84.3656 25.5817 58.7812 24.2432 50.2972C24.683 50.3115 25.1704 50.3222 25.7008 50.3222C29.9481 50.3222 38.1125 49.6797 46.0022 45.4771C53.892 49.6797 62.0563 50.3222 66.3037 50.3222C66.8324 50.3222 67.3199 50.3133 67.7597 50.2972C66.4117 58.783 61.1672 84.3763 46.0006 92.1175Z" fill="white"/>
<g id="Clip path group_21">
<mask id="mask20_194_527" style="mask-type:luminance" maskUnits="userSpaceOnUse" x="24" y="45" width="44" height="48">
<g id="XMLID_00000045621093110170763570000008911734328297200299__3">
<path id="Vector_61" d="M46.0006 92.118C30.8103 84.3661 25.5817 58.7817 24.2432 50.2977C24.683 50.312 25.1704 50.3227 25.7008 50.3227C29.9481 50.3227 38.1125 49.6802 46.0022 45.4775C53.892 49.6802 62.0563 50.3227 66.3037 50.3227C66.8324 50.3227 67.3199 50.3138 67.7597 50.2977C66.4117 58.7835 61.1672 84.3768 46.0006 92.118Z" fill="white"/>
</g>
</mask>
<g mask="url(#mask20_194_527)">
<path id="Vector_62" d="M38.5917 43.7446H23.7676L23.7676 95.7603H38.5917L38.5917 43.7446Z" fill="#F6C90E"/>
</g>
</g>
<g id="Clip path group_22">
<mask id="mask21_194_527" style="mask-type:luminance" maskUnits="userSpaceOnUse" x="24" y="45" width="44" height="48">
<g id="XMLID_00000045621093110170763570000008911734328297200299__4">
<path id="Vector_63" d="M46.0006 92.118C30.8103 84.3661 25.5817 58.7817 24.2432 50.2977C24.683 50.312 25.1704 50.3227 25.7008 50.3227C29.9481 50.3227 38.1125 49.6802 46.0022 45.4775C53.892 49.6802 62.0563 50.3227 66.3037 50.3227C66.8324 50.3227 67.3199 50.3138 67.7597 50.2977C66.4117 58.7835 61.1672 84.3768 46.0006 92.118Z" fill="white"/>
</g>
</mask>
<g mask="url(#mask21_194_527)">
<path id="Vector_64" d="M68.0507 43.7454H53.2266L53.2266 95.761H68.0507V43.7454Z" fill="#F6C90E"/>
</g>
</g>
<path id="Vector_65" d="M46.0006 92.1175C30.8103 84.3656 25.5817 58.7812 24.2432 50.2972C24.683 50.3115 25.1704 50.3222 25.7008 50.3222C29.9481 50.3222 38.1125 49.6797 46.0022 45.4771C53.892 49.6797 62.0563 50.3222 66.3037 50.3222C66.8324 50.3222 67.3199 50.3133 67.7597 50.2972C66.4117 58.783 61.1672 84.3763 46.0006 92.1175Z" stroke="#F6C90E" stroke-width="0.5" stroke-miterlimit="10" stroke-linecap="round" stroke-linejoin="round"/>
</g>
<g id="Group_11">
<path id="Vector_66" d="M57.9148 126.419C57.9926 126.419 58.072 126.414 58.1498 126.405C62.4988 125.897 71.0712 122.902 76.5173 117.835C77.5986 116.827 77.813 114.932 76.9953 113.6C76.176 112.269 74.6358 112.005 73.5529 113.013C69.1262 117.132 61.4936 119.942 57.6845 120.387C56.3333 120.545 55.3426 122.02 55.4712 123.683C55.5935 125.247 56.6636 126.419 57.9148 126.419Z" fill="white" stroke="#F6C90E" stroke-miterlimit="10" stroke-linecap="round" stroke-linejoin="round"/>
</g>
<path id="Vector_67" d="M65.2989 122.642C65.8816 124.425 68.7238 125.781 68.7238 125.781C68.7238 125.781 70.0083 122.381 69.4256 120.598C68.8429 118.815 67.7521 118.763 66.612 119.329C65.4736 119.893 64.7162 120.859 65.2989 122.642Z" fill="white" stroke="#F6C90E" stroke-miterlimit="10" stroke-linecap="round" stroke-linejoin="round"/>
<g id="Group_12">
<g id="Clip path group_23">
<mask id="mask22_194_527" style="mask-type:luminance" maskUnits="userSpaceOnUse" x="30" y="0" width="32" height="38">
<g id="XMLID_00000129895407551359539190000013060418438911997107_">
<path id="Vector_68" d="M54.5969 34.9668L61.1751 37.5316C61.1751 37.5316 52.3089 26.7691 52.328 12.6882C52.328 8.46949 53.152 0.500977 49.1651 0.500977C46.9501 0.500977 45.6799 0.500977 43.1617 0.500977C40.6434 0.500977 40.2687 4.25076 40.2687 4.25076C40.2687 4.25076 39.2684 4.25076 36.8629 4.25076C34.4574 4.25076 33.6699 10.5798 33.6699 10.5798C33.6699 10.5798 39.7384 5.42313 39.7495 12.6882C39.7686 26.7691 30.9023 37.5316 30.9023 37.5316L37.4806 34.9668H54.5969Z" fill="white"/>
</g>
</mask>
<g mask="url(#mask22_194_527)">
<path id="Vector_69" d="M35.1582 9.89336C36.3681 6.2277 40.336 6.36016 41.9015 7.29805C43.4671 8.23594 42.1143 12.2202 39.839 12.4547L35.1582 9.89336Z" fill="#F6C90E"/>
</g>
</g>
<g id="Clip path group_24">
<mask id="mask23_194_527" style="mask-type:luminance" maskUnits="userSpaceOnUse" x="30" y="0" width="32" height="38">
<g id="XMLID_00000129895407551359539190000013060418438911997107__2">
<path id="Vector_70" d="M54.5969 34.9668L61.1751 37.5316C61.1751 37.5316 52.3089 26.7691 52.328 12.6882C52.328 8.46949 53.152 0.500977 49.1651 0.500977C46.9501 0.500977 45.6799 0.500977 43.1617 0.500977C40.6434 0.500977 40.2687 4.25076 40.2687 4.25076C40.2687 4.25076 39.2684 4.25076 36.8629 4.25076C34.4574 4.25076 33.6699 10.5798 33.6699 10.5798C33.6699 10.5798 39.7384 5.42313 39.7495 12.6882C39.7686 26.7691 30.9023 37.5316 30.9023 37.5316L37.4806 34.9668H54.5969Z" fill="white"/>
</g>
</mask>
<g mask="url(#mask23_194_527)">
<path id="Vector_71" d="M50.3254 0.499923C50.392 0.764824 50.319 0.489188 46.9338 3.07734C42.7595 6.26868 39.9984 4.43586 39.9984 4.43586C39.9984 4.43586 38.2582 -0.72255 41.1336 -1.40449C44.006 -2.08464 49.9887 -0.835321 50.3254 0.499923Z" fill="#F6C90E"/>
</g>
</g>
<path id="Vector_72" d="M54.5911 34.9658L61.1693 37.5307C61.1693 37.5307 52.3031 26.7682 52.3221 12.6872C52.3221 8.46852 53.1462 0.5 49.1592 0.5C46.9443 0.5 45.674 0.5 43.1558 0.5C40.6376 0.5 40.2629 4.24978 40.2629 4.24978C40.2629 4.24978 39.2625 4.24978 36.857 4.24978C34.4515 4.24978 33.664 10.5788 33.664 10.5788C33.664 10.5788 39.7325 5.42216 39.7437 12.6872C39.7627 26.7682 30.8965 37.5307 30.8965 37.5307L37.4747 34.9658H54.5911Z" stroke="#F6C90E" stroke-miterlimit="10" stroke-linecap="round" stroke-linejoin="round"/>
</g>
<path id="Vector_73" d="M46.302 4.13261C46.302 4.89689 45.7987 5.51617 45.1779 5.51617C44.5571 5.51617 44.0537 4.89689 44.0537 4.13261C44.0537 3.36834 44.5571 2.74902 45.1779 2.74902C45.7987 2.74902 46.302 3.36834 46.302 4.13261Z" fill="white" stroke="#F6C90E" stroke-width="0.5" stroke-miterlimit="10" stroke-linecap="round" stroke-linejoin="round"/>
<path id="Vector_74" d="M73.6797 116.93C74.4196 116.423 75.0214 115.935 75.4342 115.478" stroke="#F6C90E" stroke-miterlimit="10" stroke-linecap="round" stroke-linejoin="round"/>
<path id="Vector_75" d="M70.085 119.008C70.917 118.586 71.7061 118.156 72.419 117.73" stroke="#F6C90E" stroke-miterlimit="10" stroke-linecap="round" stroke-linejoin="round"/>
<path id="Vector_76" d="M61.4619 122.643C62.2336 122.38 63.0593 122.08 63.9103 121.749" stroke="#F6C90E" stroke-miterlimit="10" stroke-linecap="round" stroke-linejoin="round"/>
<path id="Vector_77" d="M57.21 123.74C57.8022 123.702 58.7485 123.486 59.9108 123.138" stroke="#F6C90E" stroke-miterlimit="10" stroke-linecap="round" stroke-linejoin="round"/>
<path id="Vector_78" d="M31.877 123.382C32.7169 123.614 33.4504 123.747 34.0284 123.754" stroke="#F6C90E" stroke-miterlimit="10" stroke-linecap="round" stroke-linejoin="round"/>
<path id="Vector_79" d="M28.0322 121.985C28.8865 122.348 29.7121 122.674 30.4854 122.942" stroke="#F6C90E" stroke-miterlimit="10" stroke-linecap="round" stroke-linejoin="round"/>
<path id="Vector_80" d="M19.6553 117.679C20.365 118.109 21.1383 118.553 21.9464 118.998" stroke="#F6C90E" stroke-miterlimit="10" stroke-linecap="round" stroke-linejoin="round"/>
<path id="Vector_81" d="M15.9609 115.069C16.4023 115.515 17.2074 116.116 18.249 116.798" stroke="#F6C90E" stroke-miterlimit="10" stroke-linecap="round" stroke-linejoin="round"/>
<g id="Vector_82">
<path d="M41.483 35.4228L35.8828 38.7037C35.8828 38.7037 41.105 28.156 40.8097 18.3135" fill="white"/>
<path d="M41.483 35.4228L35.8828 38.7037C35.8828 38.7037 41.105 28.156 40.8097 18.3135" stroke="#F6C90E" stroke-miterlimit="10" stroke-linecap="round" stroke-linejoin="round"/>
</g>
<g id="Vector_83">
<path d="M50.5781 35.4228L56.1783 38.7037C56.1783 38.7037 50.956 28.156 51.2514 18.3135" fill="white"/>
<path d="M50.5781 35.4228L56.1783 38.7037C56.1783 38.7037 50.956 28.156 51.2514 18.3135" stroke="#F6C90E" stroke-miterlimit="10" stroke-linecap="round" stroke-linejoin="round"/>
</g>
<g id="Group_13">
<g id="Vector_84">
<path d="M43.5671 17.3752C44.1371 25.8127 41.4902 35.4225 41.4902 35.4225L45.9186 40.8154L50.5835 35.4225C50.5835 35.4225 47.9366 25.8127 48.5067 17.3752" fill="white"/>
<path d="M43.5671 17.3752C44.1371 25.8127 41.4902 35.4225 41.4902 35.4225L45.9186 40.8154L50.5835 35.4225C50.5835 35.4225 47.9366 25.8127 48.5067 17.3752" stroke="#F6C90E" stroke-miterlimit="10" stroke-linecap="round" stroke-linejoin="round"/>
</g>
</g>
</g>
</g>
</svg>
