<svg width="44" height="46" viewBox="0 0 44 46" fill="none" xmlns="http://www.w3.org/2000/svg">
<g id="curved / filters-2">
<path id="shape" d="M7.33301 9.875L18.333 9.875M18.333 9.875C18.333 11.9461 19.9746 13.625 21.9997 13.625C24.0247 13.625 25.6663 11.9461 25.6663 9.875M18.333 9.875C18.333 7.80393 19.9746 6.125 21.9997 6.125C24.0247 6.125 25.6663 7.80393 25.6663 9.875M25.6663 9.875L36.6663 9.875M7.33301 23L29.333 23M29.333 23C29.333 25.0711 30.9746 26.75 32.9997 26.75C35.0247 26.75 36.6663 25.0711 36.6663 23C36.6663 20.9289 35.0247 19.25 32.9997 19.25C30.9746 19.25 29.333 20.9289 29.333 23ZM14.6663 36.125L36.6663 36.125M14.6663 36.125C14.6663 34.0539 13.0247 32.375 10.9997 32.375C8.97463 32.375 7.33301 34.0539 7.33301 36.125C7.33301 38.1961 8.97463 39.875 10.9997 39.875C13.0247 39.875 14.6663 38.1961 14.6663 36.125Z" stroke="#324134" stroke-width="1.5" stroke-linecap="round"/>
</g>
</svg>
