<svg width="116" height="115" viewBox="0 0 116 115" fill="none" xmlns="http://www.w3.org/2000/svg">
<g id="Group">
<circle id="Ellipse 34" cx="58" cy="57.5" r="57.5" fill="#324134"/>
<g id="Group_2">
<path id="Vector" d="M55.5045 18.7023C55.3661 18.7149 54.9445 18.7589 54.567 18.7904C51.1568 19.1239 47.7278 20.3822 44.7769 22.383C37.925 27.0264 34.3387 35.1493 35.5278 43.3413C36.264 48.3874 38.7178 52.8923 42.6314 56.3969C45.4879 58.9514 49.2819 60.7823 53.1136 61.443C54.4978 61.6884 55.1081 61.7324 56.8573 61.7324C58.6064 61.7324 59.2167 61.6884 60.6009 61.443C68.2644 60.1154 74.7577 54.5471 77.2555 47.1667C79.4766 40.6043 78.4447 33.4505 74.4745 27.8192C70.9007 22.7606 65.4331 19.5265 59.2167 18.7904C58.6379 18.7212 55.9575 18.6583 55.5045 18.7023Z" fill="white"/>
<path id="Vector_2" d="M71.7381 60.153C68.7306 62.4369 64.9114 64.0917 61.1237 64.746C59.5696 65.0166 58.9341 65.0669 56.8578 65.0669C54.8507 65.0669 54.5676 65.048 53.0072 64.8089C49.3201 64.2553 45.6394 62.7578 42.5123 60.5556L41.7951 60.046L41.1281 60.153C40.7632 60.2159 39.9893 60.392 39.3979 60.5368C34.3203 61.8203 29.7839 64.4126 26.0591 68.1499C21.4912 72.7304 18.6976 78.563 17.8985 85.1632C17.7161 86.6606 17.6972 89.8254 17.8671 91.0146C18.2005 93.3929 18.7605 94.7205 19.8805 95.7838C20.9564 96.8094 22.5293 97.2561 24.7378 97.168C26.4303 97.0988 28.0914 96.822 32.4768 95.8593C37.6173 94.7331 39.9956 94.3241 43.1101 94.0284C44.3999 93.9089 71.5808 93.9089 72.8706 94.0284C75.9851 94.3241 78.3634 94.7331 83.5039 95.8593C87.8893 96.822 89.5504 97.0988 91.2429 97.168C92.841 97.231 93.9987 97.0359 95.0495 96.52C96.1317 95.9915 97.0314 94.9218 97.5033 93.6068C97.9689 92.3296 98.1828 90.9643 98.2395 88.976C98.4534 81.237 95.4018 73.6301 89.8587 68.087C85.4103 63.6387 79.7413 60.8136 73.5187 59.9453C72.2226 59.7629 72.254 59.7566 71.7381 60.153Z" fill="white"/>
</g>
</g>
</svg>
